<?xml version="1.0" encoding="utf-8"?>
<!-- Generator: Adobe Illustrator 22.1.0, SVG Export Plug-In . SVG Version: 6.00 Build 0)  -->
<svg version="1.1" id="Layer_1" xmlns="http://www.w3.org/2000/svg" xmlns:xlink="http://www.w3.org/1999/xlink" x="0px" y="0px"
	 viewBox="0 0 188.9 198" style="enable-background:new 0 0 188.9 198;" xml:space="preserve">
<style type="text/css">
	.st0{fill:#07212E;}
	.st1{fill:#F1929A;}
	.st2{fill:#F1929B;}
	.st3{fill:#E5F2F0;}
	.st4{fill:#FDD632;}
</style>
<title>Anarchy</title>
<g id="Ebene_24">
	<g id="Ebene_20">
		<g>
			<circle class="st0" cx="94.5" cy="93.6" r="53.2"/>
		</g>
	</g>
	<g id="Ebene_19">
		<g>
			<path class="st1" d="M122.5,191.6l-5.1-32.4c-0.7,0.4-1.3,0.7-1.6,0.9l-0.1,0.1c-2.2,1.5-3.9,2.5-5.6,2.3l-0.3,0l-0.3-0.1
				c-0.3-0.1-0.6-0.1-0.9-0.2c0,0,0,0,0,0c-0.6,0.2-1.6,0.6-3.2,0.7l-0.1,0l-0.1,0c-2.8-0.1-5.5-0.6-8.1-1.4
				c-0.6-0.2-1.3-0.4-2.1-0.7c-1.4-0.5-4.7-1.7-5.8-1.4c0,0,0,0-0.1,0.1c-0.3,0.3-0.7,0.7-1.4,1c-1.7,0.7-3.6,0.6-6.5-0.6
				c0,0-0.1,0.1-0.1,0.1c-0.7,0.5-2,1.5-3.9,1.1c-0.7-0.1-1.4-0.5-2.5-1c-0.5-0.2-1.2-0.6-1.6-0.7c-1.7-0.3-3.4-0.7-5-1.2l-0.2-0.1
				c-1-0.4-2-0.9-2.9-1.4c-0.6-0.3-1.4-0.7-1.8-0.9c-1.3-0.3-2.6-0.6-3.9-0.7c-0.7-0.1-1.4-0.2-2.1-0.4l-3.1,8.5l-4.9-2.4l-3.1,1.7
				l-6-0.5l-1.8-2.9l-5.1,0.5l6.1-14.2c-0.3-0.4-0.6-0.9-0.8-1.4l-0.2-0.5c-0.1-0.4-0.3-0.8-0.5-1.2c-0.3-0.4-0.8-0.8-1.2-1.1
				l-0.1,0c-1.4-0.6-3.2-1.4-3.6-3.5c-0.3-1.2-0.4-2.6-0.5-3.9c-0.1-0.5-0.3-0.9-0.5-1.3c-0.3-0.3-1.1-1.3-1.8-2.1
				c-2.5-2.8-3.5-4-3.9-4.6l-0.2-0.3c-1.2-2.6-2.1-5.4-2.7-8.2l0-0.2c-0.2-1.9-0.2-3.7,0.2-5.6l0.1-0.3c0.3-1,0.4-1.9,0.4-3
				c-0.1-0.4-0.3-1.7-0.7-3.2l-7,0.2l1.5-8.5l-5.1-9.9l4.1-3l-2.6-7.9L28,76.7c0.2-1.5,0.6-2.1,0.8-2.4c0.8-1.3,1.7-2.4,2.9-3.3
				c0.4-0.3,1.2-1.6,1.5-2.2c0.3-0.5,0.6-0.9,0.8-1.2c0.1-0.1,0.2-0.2,0.3-0.4c-2.1-1.3-3.2-3.3-2.6-5.2c0.4-1.7,1.6-3.1,3.2-3.8
				c1.2-0.4,2.3-0.7,3.5-0.7c0,0,0,0,0.1,0c1.6-1.4,3.2-2.9,4.7-4.5c1.2-1.5,3.8-5.1,4.6-6.2c0.1-0.1,0.2-0.2,0.3-0.4
				c1.6-2.4,3.5-5,5.1-6.4c2.7-2.2,5.5-4.1,8.5-5.7l0.2-0.1c1.5-0.7,6.8-3.1,8-3.6c0.4-0.2,1-0.4,1.7-0.8c2.2-1,4-1.9,5.2-2.3
				c1.7-0.6,3.4-1,5.2-1.1l0.4,0l0.4,0.1c1.1,0.3,2.2,0.7,3.1,1.3c1.1-0.3,2.4-0.7,2.9-0.8c0.3-0.1,0.7-0.1,1.2-0.2l4.2-10.1
				l5.7,2.5l0.1,0l1.2-2.6l8-1.8l2.3,10.3c3.2,0.3,6.4,1.1,9.5,2.2c4,1.5,7.8,3.4,11.4,5.6c0.4,0.2,7.4,4.9,10.9,8.4
				c0.6,0.6,5.7,5.6,6.8,7.2c1.5,0.5,4.5,1.5,6.4,2.9c0.6,0.5,1.1,0.8,1.4,1c0.8,0.6,1.5,1,2.1,2.2c0.2,0.4,0.3,0.7,0.4,1
				c0.1,0.2,0.1,0.3,0.2,0.4c0,0.1,0.1,0.2,0.2,0.3c0.3,0.4,0.8,1,0.9,1.9c0.2,1.1,0.3,2.3,0.4,3.4l0,0.3l0,0.2
				c0.3,0.5,0.5,1,0.7,1.5l0.1,0.4c0.1,0.4,0.2,0.9,0.4,1.9c0.1,0.3,0.1,0.7,0.2,0.9c0.4,1.1,0.9,2.2,1.4,3.2c0.6,0.8,1,1.8,1.3,2.8
				l0.1,0.4v0.4c0,0.4-0.1,0.7-0.2,1c0.3,1,0.6,1.9,0.8,2.9l0.1,0.3l0,0.3c0,1.3-0.1,2.6-0.3,3.8c-0.2,1-0.3,2-0.2,2.9l0.2,0.7
				l19.2,1.4l-10.2,5.9l0.3,0.9l-3.1,4.4l-2.9,0.1l-0.3,2l-2.7,0.1l-0.1,0.2c-0.1,0.4-0.4,1-1,2.3c-0.3,0.5-0.6,1.4-0.7,1.6
				c-0.2,0.6-0.3,1.2-0.4,1.8c0.3,1.2,0.3,2.4,0,3.6l-0.1,0.3c-0.5,1.2-1.2,2.4-2,3.4c-0.8,1.5-1.5,3.1-2.2,4.7
				c-0.7,1.9-1.3,2.8-3.6,4.9l-0.1,0.1c-1,0.9-1.9,2-2.6,3.2c-0.1,0.4-0.2,1.3-0.3,2c-0.3,1.5-0.4,2.4-0.6,3l-0.1,0.2
				c-0.7,2-1.6,3.8-2.7,5.6l-0.3,0.4c-0.5,0.5-1,1-1.5,1.4c-0.1,0-0.1,0.1-0.2,0.1c-0.1,1-0.3,2.6-1.6,3.8c-1.2,1.1-2.6,1.1-3.5,1.1
				c-0.2,0-0.4,0-0.5,0c-0.3,0.4-0.6,0.8-0.8,1.3l-0.1,0.3l-0.2,0.3c-0.4,0.7-0.9,1.3-1.5,1.8l7.9,34.1l-1.4,7.7l-8.3-5.5l-0.8,0.1
				l-1.9,3.5l-5.2-1L122.5,191.6z M122,149.9l4.9,31.7l2-1.3l3.2,0.6l1.3-2.3l6.1-0.7l1.4,0.9l-7.7-33.6l1.7-1.1
				c0.5-0.3,0.9-0.7,1.3-1.2c0.6-1.4,1.5-2.6,2.6-3.6l0.2-0.2c1.1-0.8,2.3-1,3.2-1.1c0.1-0.6,0.2-1.2,0.5-1.9c0.5-0.8,1.2-1.4,1.9-2
				c0.2-0.1,0.4-0.3,0.5-0.4c0.8-1.3,1.4-2.7,2-4.1c0.1-0.4,0.3-1.5,0.4-2.2c0.3-1.9,0.4-2.6,0.6-3.1l0.2-0.4c1-2,2.4-3.7,4.1-5.2
				c1.6-1.5,1.7-1.7,2-2.6c0.8-2,1.7-3.9,2.6-5.7l0.2-0.3l0.2-0.2c0.5-0.6,0.9-1.2,1.2-1.9c0-0.1,0-0.2,0-0.3l-0.3-0.6l0-0.7
				c0.1-1.3,0.3-2.6,0.8-3.9c0.1-0.4,0.4-1,1-2.2c0.2-0.5,0.5-1.1,0.7-1.5c0-0.3,0-0.7,0-1l-0.5-3.3l4-0.1l0.3-1.9l4.5-0.1l-0.1-0.5
				l-7.3-0.5l-1.2-5.4c-0.2-1.7-0.2-3.4,0.2-5.1c0.1-0.7,0.2-1.5,0.2-2.3c-0.2-0.9-0.5-1.8-0.8-2.7l-0.1-0.4c-0.2-0.7-0.1-1.3,0-1.7
				c-0.1-0.1-0.2-0.3-0.2-0.4l-0.2-0.3c-0.7-1.4-1.4-2.8-1.9-4.3l-0.1-0.4c-0.1-0.3-0.2-0.8-0.2-1.2c-0.1-0.4-0.2-0.9-0.2-1.2
				c-0.2-0.5-0.5-1.1-0.8-1.5c-0.4-0.6-0.7-1.6-0.3-2.8c0-0.6-0.1-1.2-0.2-1.8c-0.2-0.2-0.3-0.5-0.5-0.8c-0.2-0.4-0.4-0.8-0.5-1.1
				c0-0.1-0.1-0.2-0.1-0.4c-0.1,0-0.1-0.1-0.2-0.1c-0.4-0.2-0.8-0.6-1.5-1.1c-1.2-0.9-4.1-1.9-5.3-2.2l-0.8-0.2l-0.6-0.7
				c-0.3-0.4-0.6-0.7-0.9-1.1c-0.4-0.5-2.7-3.1-6.1-6.4c-2.5-2.5-7.6-6.1-10-7.6c-3.2-2-6.6-3.7-10.2-5.1c-3.2-1.1-6.5-1.8-10-2
				l-2.3-0.1l-1.7-7.8l-0.3,0.6l-4.5,2.2l-2.6-1.1l-3.2,7.5l-1.6,0.3c0,0-1.9,0.3-2.5,0.5c-0.4,0.1-2.2,0.6-3.7,1.1l-1.5,0.5l-1.2-1
				c-0.6-0.4-1.2-0.8-1.9-1c-1,0.1-2,0.3-2.9,0.7l-0.2,0.1c-0.9,0.3-3.1,1.3-4.6,2c-0.8,0.4-1.6,0.7-2,0.9c-1.1,0.5-6.1,2.7-7.7,3.5
				c-2.6,1.5-5.1,3.2-7.4,5.1c-1.1,1-3.2,4.1-3.9,5.1c-0.2,0.2-0.3,0.4-0.4,0.5c0,0-3.4,4.8-4.9,6.7l-0.2,0.2
				c-1.7,1.7-3.4,3.4-5.3,5l6.5-0.4l-6.8,5.9c0,0-0.9,0.8-1.3,1.1c-0.2,0.2-0.5,0.7-0.7,1.1c-0.4,0.5-0.7,1.1-1,1.5
				c-0.2,0.2-0.3,0.5-0.6,0.9c-0.8,1.2-1.7,2.7-2.9,3.7c-0.6,0.5-1.1,1-1.4,1.6c-0.1,0.5-0.2,1.6-0.1,2.5l0.1,3.3l-11.3-0.8l1.2,3.5
				l-3.5,2.6l3.7,7.1l-0.6,3.2l4.6-0.1l0.5,2.4c0.3,1.2,1.2,5.2,1.3,6.3l0,0.1c0.1,1.8-0.1,3.5-0.6,5.2c-0.2,1.1-0.3,2.2-0.1,3.3
				c0.5,2.3,1.2,4.5,2.1,6.6c0.5,0.6,2.2,2.6,3.2,3.7c1.6,1.9,2,2.3,2.3,2.7c0.8,1.3,1.3,2.6,1.5,4l0,0.4c0,0.7,0.1,1.4,0.2,2
				c0.1,0.1,0.2,0.1,0.3,0.2l0.5,0.2c1.2,0.7,2.3,1.6,3.2,2.8l0.1,0.1c0.6,0.8,1,1.7,1.3,2.7c0.2,0.5,0.6,0.9,0.9,1.2l1.5,1.4
				l-4.2,9.8l1.5,2.4l1.2,0.1l4.2-2.3l1.8,0.9l2.6-7.2l2.6,0.6c0,0,2.6,0.6,4.2,0.8c1.5,0.2,3.2,0.5,4.7,0.9l0.2,0
				c0.9,0.3,1.8,0.8,2.8,1.3c0.7,0.4,1.5,0.8,2.2,1.1c1.4,0.4,2.8,0.8,4.2,1l0.3,0.1c0.8,0.2,1.7,0.6,2.7,1.1
				c0.2,0.1,0.4,0.2,0.7,0.3c0.2-0.1,0.3-0.2,0.5-0.3c1.4-0.9,3.2-1.1,4.8-0.4c1.1,0.4,1.7,0.6,2.1,0.7c0.4-0.3,0.9-0.8,1.7-1.1
				c3.1-1.2,7,0.3,10.1,1.4c0.7,0.2,1.3,0.5,1.8,0.6c2.1,0.7,4.3,1.1,6.5,1.2c0.5,0,0.7-0.1,1.1-0.3c0.4-0.2,0.9-0.4,1.6-0.4l0.2,0
				l0.2,0c0.7,0,1.4,0.1,2,0.2c0.6-0.3,1.6-1,2-1.2l0.1-0.1c1.1-0.8,5-2.8,5.8-3.2L122,149.9z M89,159.3C89,159.3,89,159.3,89,159.3
				C89,159.3,89,159.3,89,159.3z M85.2,154.9l1.3,2.7l-1.2-2.8C85.3,154.8,85.2,154.8,85.2,154.9C85.2,154.8,85.2,154.9,85.2,154.9z
				 M142.2,139.1C142.2,139.1,142.2,139.1,142.2,139.1C142.2,139.1,142.2,139.1,142.2,139.1z M143.4,138L143.4,138L143.4,138z
				 M38.5,136.2C38.5,136.3,38.5,136.3,38.5,136.2C38.5,136.3,38.5,136.3,38.5,136.2z M34,77.2L34,77.2L34,77.2z M40.5,68.8
				C40.5,68.8,40.5,68.8,40.5,68.8C40.5,68.8,40.5,68.8,40.5,68.8z M155.6,59.1c0,0,0,0.1,0,0.1C155.6,59.1,155.6,59.1,155.6,59.1z"
				/>
		</g>
	</g>
	<g id="Ebene_22">
		<g>
			<path class="st2" d="M70.1,83.6l-20.8-1.4l1.1-2c0.5-1,1.1-1.9,1.7-2.7c0.5-0.7,0.8-1.4,1.1-2.2c0.4-1.1,0.8-2.7,0.8-2.7l3.4-13
				l-0.4,13.4c0,0.7,0.3,1.3,0.9,1.6c0.5,0.3,1,0.4,1.5,0.2c0.5-0.3,0.9-0.9,1.2-2.9l0-0.2c0.3-2.1,0.5-2.9,2.3-5.3
				c1.5-1.8,3-3.6,4.7-5.2c1.7-1.6,3.9-2.8,6.2-3.5c1.8-0.5,3.7-0.8,5.6-0.9l2.4-0.1l-2.5,5.9L70.1,83.6z M54.2,79.5l13.9,0.9
				L77,60.1c-0.8,0.1-1.7,0.3-2.5,0.6c-1.8,0.5-3.5,1.5-4.9,2.8c-1.6,1.5-3.1,3.1-4.4,4.8c-1.5,1.9-1.5,2.1-1.7,3.9l0,0.3
				c-0.3,2-0.7,4.1-2.9,5.2l-0.2,0.1c-1.3,0.4-2.8,0.2-4-0.5c-0.2-0.1-0.4-0.2-0.5-0.3c-0.3,0.8-0.7,1.6-1.2,2.3
				C54.4,79.3,54.3,79.4,54.2,79.5z"/>
		</g>
		<g>
			<path class="st2" d="M110.1,86l-31.2-2l12-32.8l0.9-0.2c3.8-0.7,7.8-0.9,11.7-0.7l1.2,0.1L110.1,86z M83.1,81.3l23.4,1.5
				L102,53.3c-3-0.1-6,0.1-8.9,0.6L83.1,81.3z"/>
		</g>
		<g>
			<path class="st2" d="M138.8,87.7l-17-1.1l-8.3-35.1l2.6,0.9c0.5,0.2,11.6,4.2,17.7,15.4c3,5.6,4.7,11.9,4.9,18.2L138.8,87.7z
				 M124.1,83.8l11.4,0.7c-0.4-5.3-2-10.5-4.5-15.2c-3.8-7-9.9-11-13.4-12.8L124.1,83.8z"/>
		</g>
		<g>
			<path class="st2" d="M129.6,120.2l-5.4-22.7l13.6-0.3l-0.3,1.8c0,0.3-1,6.7-2.3,9.9c-1,2.7-2.2,5.4-3.7,8L129.6,120.2z
				 M128,100.5l2.7,11.4c0.6-1.3,1.2-2.7,1.7-4c0.8-2,1.5-5.4,1.9-7.5L128,100.5z"/>
		</g>
		<g>
			<path class="st2" d="M87.5,136.3c-2.2,0-4.7-0.1-7.6-0.5c-5.9-0.9-11.5-2.8-16.7-5.5l-1.2-0.6l11.2-30.4l39-0.9l4.3,31.4
				l-1.1,0.4c-5.3,2.2-10.9,3.9-16.5,5.1c-0.6,0.1-1.1,0.2-1.6,0.3C94.8,135.8,91.7,136.3,87.5,136.3z M65.8,128.2
				c4.6,2.3,9.5,3.9,14.6,4.6c7.7,1.1,12.6,0.3,16.5-0.4c0.5-0.1,1.1-0.2,1.6-0.2c5-1.1,10-2.6,14.8-4.5l-3.7-26.4l-34.3,0.8
				L65.8,128.2z"/>
		</g>
		<g>
			<path class="st2" d="M54.5,119.4l-1.6-1.6c-2.7-2.8-3.5-4.5-3.2-6.4c0.1-1.1,0.6-2,1.1-2.8c0.2-0.4,0.5-0.9,0.5-1.1
				c0-0.9-0.1-1.7-0.4-2.5c-0.4-0.9-1.4-2.8-1.4-2.8l-1.1-2.1l14.8-0.6L54.5,119.4z M53.2,102.9c0.2,0.4,0.3,0.7,0.5,1
				c0.5,1.2,0.7,2.4,0.6,3.7c0,0.9-0.5,1.7-0.9,2.5c-0.3,0.6-0.7,1.1-0.7,1.6l0,0.1c0,0.3-0.1,0.8,0.9,2.1l5-11.3L53.2,102.9z"/>
		</g>
	</g>
	<g id="Ebene_21">
		<g>
			<path class="st3" d="M54.2,117.8l7.3-17.2l-11.1,0.3c0.2-0.6,0.5-1.2,0.8-1.7c0.5-0.3,0.7-0.9,0.7-1.5c-0.4-0.7-0.8-1.3-1.4-1.8
				c-0.6-0.7-0.1-2,0.2-2.6c0.5-1,0.7-2.2,0.6-3.3c-0.3-0.9-1.6-3.2-1.6-4c0.1-1.2,0.3-2.4,0.7-3.6c0.2-0.5,0.7-1.3,0.7-1.3
				l18.2,1.3l10.3-24.4c0,0,3.2-0.5,4.2-1.4c0.9-1,1.8-2.1,2.6-3.2l5.2-1.2L80.3,83l28.6,1.8l-5.2-33.5c0,0,8.3,0.4,11.2,2.1
				l7.6,32.5l53.2,3.3l-3.6,2.3l0.5,1.8l-1.6,2.3l-3.8-0.1l-0.4,2.1l-41.4,1.2l19.3,83.5l-0.5,2.6l-5.5-3.7l-3.5,0.4l-1.4,2.8
				l-4.3-0.7l-4.7,2.9l-13.7-87.4l-37.2,1.2l-10.5,28.8l-3.8-2.2l-0.8-2.4l-1.7-2.7L54.2,117.8z"/>
		</g>
		<g>
			<path class="st3" d="M30.9,80l-12.6-0.9l2,5.7l-3.8,2.9l4.2,8.5l-1,5.8l5.8-0.2c-0.2-0.8-0.1-1.7,0.1-2.5c0.4-1,1.5-2.2,1.5-3
				s-1-4.7-0.6-6.2s0.6-2.6,1.5-3.4s2.2-1.1,2.5-2.3C30.8,82.9,30.9,81.5,30.9,80"/>
		</g>
		<g>
			<path class="st3" d="M42.7,144.5l-4.8,11.5l1.8-0.1l2,3.2l3.6,0.3l3.7-2l3.4,1.7l2.8-7.8c-2.3-0.6-4.5-1.5-6.6-2.5
				C46.6,147.5,42.7,144.5,42.7,144.5z"/>
		</g>
		<g>
			<path class="st3" d="M92.2,29.2l3.6-8.5l4.1,1.7l2.5-1l0.9-2.2l3.5-0.9l2.2,9.7c0,0-5.7,0-8.3,0.2S92.2,29.2,92.2,29.2z"/>
		</g>
	</g>
	<g id="Ebene_16">
		<g>
			<path class="st4" d="M34.5,62.9c-0.4-1.7,3.8-2.6,4.7-2.7c0,0,0,1,3.8-2.9c1.6-1.7,7-8.2,7-8.2s3-5.4,5.7-7.4s9.6-6.7,16.3-9
				s6.7-3.4,8.8-3.2c1.3,0,2.6,0.2,3.7,0.8c0.9,0.4,0.3,1.2,2.7,0.4c1.6-0.6,3.3-1,5-1.3c6.2-1.1,12.4-1.6,18.7-1.3
				c10.1,0.5,18.8,6.9,21.4,8.5s10.9,7.2,16.1,14.7c0,0,4.7,1.4,6.9,3.2c1.4,1.1,2.4,2.6,3.1,4.2c0.5,1.1,0.7,2.3,0.6,3.5
				c-0.2,0.6-0.5,1,0.2,1.8c0.6,1,1.1,2.1,1.2,3.3c0.3,1.2,0.7,2.4,1.3,3.4c0.7,1.2,1.5,2.2,1.4,2.8s-0.5,1.6-0.2,2.1
				c0.5,0.7,0.8,1.5,0.9,2.3c0,1.3-0.4,4.1-0.4,5.6c0.2,1.7,0.5,3.3,0.9,4.9l-26.4-1.7c0,0-0.1-9.4-4-16.6s-9.1-13.1-16.2-15.6
				s-14.3-4-22-3s-9.3,2.1-9.3,2.1s-1.5,2.6-3,3.5c-2,1.1-8,1.2-10.3,2.3s-5.2,2.7-6.4,4.2s-4.8,6.9-4.8,6.9s-0.7,4.8-2.1,5.3
				c-1.2,0.4-2.6,0-3.5-0.9c-0.2-0.6-0.5-1.6-0.7-2s-0.7,0.7-0.7,0.7c-0.6,2-1.4,4-2.5,5.8c-1.4,2-2.8,5-2.5,6.9s1.5,2.6,1.6,4
				s-1.3,4.3-1.2,5s1.6,1.8,1.6,2.5s-1.7,3-1.6,3.6s2.1,4.4,2.1,5.6s-1.7,3.9-1.7,4.7s2.9,6.1,5.7,9.3c1.6,1.9,2.7,4.1,3.2,6.4
				c4.8,2.8,10,4.9,15.4,6.4c6.8,1.9,14,2.3,21,1.2c6.1-1,15.1-3.4,17.8-4.9c0.6-0.4,1.3-0.6,1.9-0.9l3.9,25.7l-7.7,4.1
				c0,0-0.7,0.8-2.6,0.6c-0.9-0.2-1.8-0.1-2.6,0.2c-2.5,0.3-5,0.1-7.5-0.5c-2.7-0.8-8.4-2.7-10-2.7c-0.8,0-1.7,0.1-2.5,0.5
				c-0.6,0.2-0.1,0.9-2,0.7s-3.3-1.3-4.1-1.1s-1.7,1.3-2.7,1.3s-3.6-1.4-4.4-1.6c-2.1-0.3-4.1-0.9-6-1.7c-1.7-0.9-3.5-1.6-5.3-2.1
				c-1.1-0.2-8-1-11.8-2.9s-7.9-4.8-8.8-6.1s-1.6-3.1-2.3-3.7s-3.2-1.7-3.7-2.3s-0.8-5.2-1.4-6.2s-5.7-6.7-6.2-7.6s-2.3-6.3-2.2-8.5
				s0.6-5.2,0.7-6.1c-0.1-1.9-0.3-3.7-0.7-5.5c-0.3-1.7-0.7-3.7-0.1-4.8s1.6-1.7,1.5-2.7s-1-5.1-0.5-6.7c0.3-1.2,1-2.2,1.9-3
				c0.6-0.4,2.1-1,2.1-2.5s-0.1-5.7,0.1-6.5c0.1-1.1,0.6-2.1,1.4-2.9c1.1-0.9,2.2-1.9,3.1-3.1c0.4-0.8,1.8-3.1,2.5-4
				c0.6-0.8,1.2-1.4,1.9-2.1c0,0-2.4,0.4-3.2-0.1C35.5,64.8,34.7,64,34.5,62.9z"/>
		</g>
		<g id="Ebene_18">
			<g>
				<path class="st4" d="M136.6,146.6c0,0,1.9-1.1,2.2-2s0.5-2.6,1.4-2.8s3.8-0.8,4.1-0.9s0.6-2.4,0.6-2.4l1.5-1.7
					c1.2-1.2,2.2-2.6,2.9-4.1c0.7-1.9,1.2-3.8,1.4-5.8c0.2-1,1.2-3.6,2.6-4.6c1.5-1.2,2.8-2.6,3.8-4.2c0.5-1.1,1.9-4.9,2.2-5.3
					s2-2.3,2.2-3.4s-0.2-2.4-0.1-3.1s0.9-3.8,1.3-4.2c0.6-0.8,0.9-1.7,1-2.7c0-0.7-0.1-1.9-0.1-1.9l-27,1c0,0-1.1,5.3-1.4,6.4
					s-2.4,6.8-2.8,7.8s-2.8,4.8-2.8,4.8L136.6,146.6z"/>
			</g>
		</g>
		<g>
			<path class="st0" d="M58.7,76.4c-0.9,0-1.6-0.3-2.3-1c-1-1-1.5-2.5-1.4-4.4c0-0.9,0.1-1.9,0.2-3.1c0.2-2.1,0.5-5.7,0-6.1
				c-0.6-0.4-2.6,0.3-4.6,1c-1.1,0.4-2.4,0.8-3.7,1.2l-1.1,0.3c-3.8,1.1-8.1,2.3-10.5,0.6c-1.1-0.6-1.5-2.1-0.9-3.3
				c0.3-0.5,0.7-0.9,1.2-1.1c1.3-0.6,2.4-0.8,5.9-0.7c3.3,0,6.6-0.8,9.6-2.2c2.9-1.3,6-2.7,8-1.2c2,1.5,2.8,3.5,3.1,7
				c0.2,3.2,0.1,9.8-1.9,12.1c-0.5,0.5-1,0.8-1.6,0.8h0C58.7,76.4,58.7,76.4,58.7,76.4z M54.7,60.7c0.5,0,0.8,0.1,1.1,0.3
				c1,0.7,0.8,3.2,0.4,7c-0.1,1.1-0.2,2.1-0.2,3c-0.1,1.6,0.3,2.9,1.1,3.7c0.5,0.5,1,0.7,1.6,0.7c0.3,0,0.6-0.2,0.9-0.5
				c1.6-1.8,1.9-7.9,1.6-11.3c-0.2-3.2-1-4.9-2.7-6.3c-1.5-1.2-4.4,0.1-7,1.3C48.5,60.2,45,61,41.5,61c-3.7-0.1-4.5,0.1-5.5,0.6
				c-0.3,0.1-0.6,0.4-0.8,0.6c-0.4,0.7-0.1,1.6,0.5,2c2.1,1.5,6.1,0.3,9.7-0.7l1.2-0.3c1.3-0.4,2.5-0.8,3.6-1.2
				C52.1,61.2,53.6,60.7,54.7,60.7z"/>
		</g>
		<g>
			<path class="st0" d="M39.4,60.4c2-1.7,3.8-3.6,5.4-5.7c1.7-2,3.2-4.1,4.7-6.3c1.4-2.2,3.1-4.3,4.9-6.3c1-0.9,2-1.8,3.1-2.5
				c1.1-0.8,2.2-1.5,3.3-2.2c2.3-1.4,4.6-2.5,7.1-3.5c2.4-1.1,4.8-2.2,7.2-3.2c1.2-0.5,2.4-1,3.7-1.4c0.7-0.2,1.3-0.4,2-0.5
				c0.7-0.1,1.5-0.1,2.2,0.1c1.3,0.5,2.4,1.4,3.3,2.4c0.9,1,1.6,2.1,2.3,3.2c-0.8-1-1.7-2-2.6-2.9c-0.9-0.8-2-1.5-3.2-1.8
				c-1.2-0.2-2.4-0.1-3.6,0.4c-1.2,0.4-2.4,0.9-3.6,1.4c-2.4,1-4.8,2.1-7.2,3.2c-2.4,1-4.8,2.1-7,3.5c-1.1,0.7-2.2,1.4-3.2,2.2
				C57,41.3,56,42.1,55,43c-1.8,1.9-3.4,3.9-4.8,6.1c-1.4,2.2-3,4.3-4.7,6.4C43.7,57.4,41.6,59,39.4,60.4z"/>
		</g>
		<g>
			<path class="st0" d="M61.7,70.7c0.8-1.8,1.7-3.6,2.8-5.3c1.2-1.6,2.6-3.1,4.3-4.3c1.7-1.2,3.5-2.1,5.4-2.7c1-0.3,2-0.5,3-0.7
				c1-0.1,2-0.1,3-0.2c0.9-0.1,1.8-0.4,2.7-0.8c0.8-0.4,1.5-1,2.1-1.8c1.2-1.6,2.1-3.3,2.8-5.1c0.7-1.8,1.3-3.7,1.6-5.6
				c0.4-1.9,0.6-3.9,0.6-5.8c0.4,2,0.5,4,0.4,6c-0.3,2-0.8,4-1.6,5.8c-0.7,1.9-1.7,3.7-2.9,5.3c-0.7,0.8-1.5,1.5-2.4,2
				c-0.9,0.5-2,0.8-3,0.9c-1,0.1-2,0.2-3,0.2c-1,0.1-1.9,0.3-2.8,0.6c-1.8,0.6-3.6,1.4-5.2,2.6c-1.5,1.1-2.9,2.5-4,4.1
				C64,67.5,62.8,69.1,61.7,70.7z"/>
		</g>
		<g>
			<path class="st0" d="M91.3,153.1c-26.8-0.3-39.2-8.3-47.9-16.1c-9.9-8.9-13.8-29.4-12.1-39c1.6-9.2,9.2-20.7,11.6-21.3
				c0.6-0.2,1.3,0,1.8,0.4c1,0.9,1.2,3.1,0.6,5.4c-0.9,3.7-4.1,24.7,3.1,35.2c7,10.3,23.4,18,38.9,18.2c9.9,0,19.7-2.2,28.6-6.4
				c0-0.4,0-0.7-0.1-1.1c-8.9,4.3-18.7,6.5-28.6,6.5c-15.2-0.2-31.2-7.7-38.1-17.8s-3.8-30.8-2.9-34.4c0.7-2.7,0.3-5.1-0.9-6.3
				c-0.7-0.7-1.8-1-2.7-0.7C39.6,76.4,32,88.4,30.3,97.7c-1.8,9.9,2.3,30.8,12.4,40c8.8,7.9,21.5,16.1,48.6,16.4h0.9
				c9.1,0.1,18.2-1.4,26.8-4.6c-0.1-0.3-0.2-0.6-0.2-1C110,151.8,100.7,153.3,91.3,153.1z"/>
		</g>
		<g>
			<path class="st0" d="M137.3,86.8l1,0.1c-0.1-3.8-0.7-7.6-1.8-11.2c-4.2-13-13.5-21.5-26.1-24.1c-10.6-2.1-19.8,0.3-23.3,1.2
				L86.4,53l0.2,1l0.7-0.2c3.4-0.9,12.5-3.3,22.9-1.2c12.3,2.4,21.3,10.7,25.4,23.4C136.6,79.5,137.2,83.1,137.3,86.8z"/>
		</g>
		<g>
			<path class="st0" d="M137,97.9l-0.3,0.1l-0.2,0.1c-1.3,7.6-3.9,14.6-6.7,18.8c0.1,0.4,0.3,0.8,0.4,1.2l0.1-0.1
				c3-4.4,5.9-11.9,7.3-20.2C137.3,97.9,137.2,98,137,97.9z"/>
		</g>
		<g>
			<path class="st0" d="M152.8,60c3.7,8.9,5.4,18.5,5.2,28.2c0.3,0,0.7,0,1,0c0.3-9.8-1.5-19.5-5.2-28.5
				C147,43.9,127,29.9,113.6,27.8c-13-2-28.2,2.6-28.4,2.7l0.3,1c0.2,0,15.2-4.6,27.9-2.6C126.6,30.8,146.2,44.6,152.8,60z"/>
		</g>
		<g>
			<path class="st0" d="M157.5,97.6h-0.2c-0.2,1.2-0.3,2.2-0.5,2.9c-1.5,8-6,23.2-18.6,36c-1,1-2.1,2-3.3,2.9c0.1,0.3,0.2,0.7,0.3,1
				c1.3-1,2.5-2.1,3.7-3.3c12.9-12.9,17.4-28.4,18.9-36.5c0.1-0.8,0.3-1.9,0.5-3.2C158,97.5,157.7,97.5,157.5,97.6z"/>
		</g>
		<g>
			<path class="st0" d="M156.9,56.6c0.4,0.8,0.7,1.3,0.9,1.6c0.5,0.8,0.7,1.7,0.6,2.6c0.1,1.1,0,1.4-0.1,1.5
				c-0.2,0.4-0.1,0.6,0.3,1.2c0.7,0.9,1.1,2,1.2,3.1c0.1,1.3,0.5,2.6,1.2,3.8l0.5,0.9c0.5,0.7,0.8,1.5,1,2.3c0,0.1-0.1,0.2-0.1,0.3
				c-0.2,0.5-0.3,0.9,0.2,2.1c0.7,1.2,0.9,2.6,0.6,3.9c-0.4,1.8-0.5,3.7-0.3,5.5c0.1,0.8,0.3,1.6,0.5,2.3l0.2,0.7c0.3,0,0.7,0,1,0
				c-0.1-0.3-0.2-0.7-0.3-1c-0.2-0.7-0.4-1.4-0.5-2.2c-0.2-1.7-0.1-3.5,0.3-5.2c0.3-1.5,0.1-3.1-0.6-4.4c-0.4-0.9-0.3-1.1-0.2-1.3
				c0.1-0.1,0.1-0.3,0.1-0.4c0.2-0.7-0.3-1.7-1.1-3.1l-0.5-0.9c-0.7-1-1.1-2.2-1.1-3.4c-0.1-1.3-0.5-2.5-1.3-3.6l-0.2-0.4
				c0.2-0.6,0.2-1.3,0.1-1.9c0.1-1.1-0.2-2.1-0.8-3c-0.2-0.3-0.5-0.8-0.8-1.6c-1.4-2.9-9.4-5.8-9.7-5.9l-0.3,0.9
				C149.9,52,155.9,54.5,156.9,56.6z"/>
		</g>
		<g>
			<path class="st0" d="M119.7,153.9c-0.7,0.4-1.6,0.9-2.6,1.5c-2,1.1-3,1.7-3.8,2.2c-0.6,0.4-1.3,0.7-1.9,1.1
				c-0.9,0.4-1,0.4-1.4,0.2c-0.4-0.1-0.9-0.2-1.3-0.2c-0.5,0-1,0.1-1.4,0.3c-0.7,0.2-1.7,0.5-4.6,0.1c-2.3-0.4-4.6-1-6.8-1.7
				c-2.1-0.7-4.4-1.2-6.6-1.5c-2-0.1-2.4,0.4-2.8,0.9c-0.1,0.2-0.2,0.3-0.8,0.3c-1,0-2.1-0.2-3-0.6c-0.5-0.2-1.1-0.4-1.6-0.4
				c-0.6,0.1-1.1,0.3-1.6,0.6c-0.6,0.4-1.3,0.8-1.7,0.6c-0.4-0.1-0.8-0.3-1.2-0.5c-1.1-0.6-2.4-1-3.7-1.2c-2.5-0.4-4.9-1.3-7.1-2.6
				c-1.6-0.8-3.4-1.3-5.2-1.5c-0.9-0.1-1.9-0.3-3-0.5c-3.7-0.8-10.4-3.1-13.7-6.5c-1.9-1.9-2.1-2.5-2.3-3c-0.2-0.8-0.6-1.4-1.2-2
				c-0.7-0.8-1.6-1.5-2.6-1.9c-0.7-0.3-1.1-0.5-1.4-1.3c-0.2-0.7-0.3-1.4-0.3-2.2c0-1.1-0.2-2.2-0.7-3.2c-0.8-1.3-1.8-2.5-2.9-3.6
				c-1.5-1.4-2.7-3-3.7-4.8c-1.1-2.6-1.8-5.4-1.8-8.2c0-0.9,0.1-1.8,0.3-2.6c0.2-1.1,0.4-2.2,0.4-3.4c-0.1-1.4-0.3-2.7-0.6-4
				c-0.4-1.4-0.6-2.9-0.6-4.3c0.1-0.8,0.4-1.5,0.9-2.2c0.3-0.5,0.6-1,0.7-1.5c0.1-0.7,0-1.4-0.2-2.1c-0.4-1.7-0.4-3.5,0-5.2
				c0.2-1.1,0.9-2,1.9-2.5c0.7-0.4,1.3-1.1,1.7-1.8c0.4-1.5,0.6-3,0.4-4.6c0-1.7,0-3.5,0.4-4.3c0.4-0.7,0.9-1.2,1.5-1.7
				c0.8-0.6,1.4-1.3,2-2.1c0.4-0.5,0.7-1.2,1.1-1.8c1.1-1.9,2.4-4,3.8-4.8l-0.5-0.9c-1.6,0.9-3,3.1-4.2,5.1
				c-0.4,0.7-0.8,1.3-1.1,1.8c-0.5,0.7-1.1,1.3-1.8,1.8c-0.7,0.5-1.3,1.2-1.8,1.9c-0.6,1-0.6,2.8-0.5,4.8c0.1,1.4,0,2.8-0.4,4.2
				c-0.3,0.6-0.7,1.1-1.3,1.4c-1.1,0.7-1.9,1.8-2.2,3.1c-0.5,1.9-0.5,3.8-0.1,5.7c0.1,0.6,0.2,1.2,0.2,1.7c-0.1,0.4-0.3,0.8-0.6,1.2
				c-0.6,0.8-1,1.7-1.1,2.6c0,1.6,0.2,3.1,0.6,4.7c0.3,1.2,0.5,2.5,0.6,3.8c0,1.1-0.2,2.1-0.4,3.2c-0.2,0.9-0.3,1.9-0.4,2.8
				c0.1,3,0.7,5.9,1.9,8.6c1.1,1.9,2.4,3.5,3.9,5c1,1,2,2.1,2.7,3.3c0.4,0.9,0.6,1.9,0.6,2.9c0,0.8,0.1,1.7,0.3,2.5c0.3,1,1,1.7,2,2
				c0.9,0.3,1.7,0.9,2.3,1.6c0.5,0.4,0.8,1,1,1.6c0.2,0.6,0.4,1.3,2.5,3.4c3.5,3.5,10.4,6,14.2,6.8c1.2,0.2,2.2,0.4,3.1,0.5
				c1.7,0.1,3.4,0.6,4.9,1.3c2.3,1.3,4.9,2.2,7.5,2.6c1.2,0.2,2.3,0.6,3.4,1.1c0.5,0.2,0.9,0.4,1.4,0.6c0.9,0.1,1.8-0.1,2.5-0.7
				c0.3-0.2,0.7-0.4,1.1-0.5c0.4,0.1,0.9,0.2,1.3,0.4c1.1,0.5,2.2,0.7,3.3,0.7c0.6,0.1,1.2-0.2,1.6-0.8c0.2-0.2,0.3-0.5,1.9-0.5
				c2.2,0.2,4.3,0.7,6.3,1.4c2.3,0.7,4.6,1.3,7,1.7c0.9,0.1,1.8,0.2,2.7,0.2c0.8,0,1.6-0.1,2.4-0.4c0.4-0.1,0.7-0.2,1.1-0.2
				c0.4,0,0.7,0,1.1,0.1c0.7,0.2,1.5,0.1,2.1-0.3c0.7-0.3,1.4-0.7,2-1.1c0.8-0.5,1.8-1.1,3.8-2.1c0.9-0.5,1.7-0.9,2.3-1.3
				C119.8,154.6,119.7,154.2,119.7,153.9z"/>
		</g>
		<g>
			<path class="st0" d="M164.4,97.5c-0.3,0-0.7,0-1,0c0.1,0.6,0.1,1.3,0,1.9c-0.1,0.7-0.4,1.3-0.7,1.8c-0.6,1.1-1,2.2-1.4,3.4
				c-0.3,0.8-0.4,1.8-0.1,2.7c0.2,0.5,0.1,1-0.1,1.5c-0.1,0.8-0.5,1.5-1,2c-0.6,0.6-1,1.3-1.4,2c-0.5,1-0.9,1.9-1.3,2.9
				c-0.3,0.7-0.5,1.4-1,2.3c-0.6,1-1.4,1.9-2.4,2.7c-1.4,1.1-2.5,2.6-3.3,4.1c-0.4,1.1-0.7,2.2-0.8,3.4c-0.2,1.8-0.7,3.6-1.6,5.2
				c-1.4,2.4-1.8,2.6-2.2,2.9c-0.3,0.2-0.7,0.5-0.9,0.8c-0.5,0.6-0.8,1.3-0.8,2c-0.1,0.5-0.1,0.8-0.4,1.1c-0.4,0.2-0.8,0.3-1.3,0.3
				c-1.1,0-2.2,0.3-3,1.1c-0.5,0.4-0.8,1-1,1.7c-0.3,0.8-0.6,1.6-2.5,2.9c0,0.1,0,0.1,0,0.2c0.1,0.2,0.1,0.6,0.1,0.8v0.1
				c2.6-1.7,3-2.8,3.3-3.7c0.1-0.5,0.4-0.9,0.7-1.2c0.7-0.6,1.5-0.9,2.4-0.8c0.7,0,1.3-0.1,1.9-0.5c0.5-0.4,0.8-1.1,0.8-1.7
				c0-0.5,0.2-1,0.6-1.4c0.2-0.2,0.4-0.5,0.7-0.6c0.5-0.4,1-0.7,2.5-3.3c1-1.7,1.6-3.6,1.8-5.6c0.1-1.1,0.4-2.1,0.8-3.2
				c0.8-1.5,1.8-2.8,3.1-3.8c1-0.8,1.9-1.9,2.6-3c0.5-1,0.8-1.7,1-2.4c0.4-1,0.8-1.9,1.2-2.8c0.3-0.6,0.7-1.2,1.2-1.8
				c0.6-0.7,1.1-1.5,1.2-2.4c0.2-0.7,0.2-1.4,0-2.1c-0.1-0.3-0.2-0.7,0.1-2.1c0.3-1.1,0.7-2.2,1.3-3.2c0.4-0.7,0.7-1.4,0.8-2.2
				C164.4,98.9,164.4,98.2,164.4,97.5z"/>
		</g>
		<g>
			<path class="st0" d="M59.2,127.3c-0.7-2.6-2.1-5-3.9-7.1l-0.2-0.2c-2-2.5-4.1-5.1-4.8-7.4c-0.5-1.4,0.1-2.3,0.6-3.1
				c0.5-0.7,0.9-1.5,0.9-2.8c-0.1-1.5-0.6-2.5-1.2-3.4c-0.4-0.7-0.8-1.4-0.8-2.3c0-1,0.5-1.6,1-2.1c0.4-0.4,0.6-0.7,0.7-1.2
				c0-0.5-0.2-0.8-0.7-1.2c-0.5-0.4-1-0.8-1-1.7c0-0.7,0.3-1.2,0.6-1.7c0.4-0.6,0.7-1.3,0.7-2.4c-0.1-1.3-0.4-1.9-0.8-2.5
				c-0.2-0.3-0.4-0.7-0.6-1.1c-0.6-1.5-0.2-3.8,0.9-6.1c0.5-1,1-1.6,1.4-2.2c0.5-0.7,1-1.4,1.5-2.6c1.1-2.2,1.8-7.9,1.8-7.9l1,0.1
				c0,0.2-0.8,5.9-1.9,8.2c-0.6,1.3-1.1,2-1.6,2.7c-0.4,0.6-0.8,1.2-1.3,2.1c-1,2-1.4,4.1-0.9,5.3c0.2,0.4,0.3,0.7,0.5,1
				c0.4,0.7,0.8,1.4,0.9,3c0.1,1.4-0.4,2.2-0.8,2.9c-0.3,0.5-0.5,0.8-0.5,1.2c0,0.3,0.2,0.5,0.7,0.9c0.5,0.4,1.2,1,1.1,2
				c-0.1,0.9-0.5,1.4-0.9,1.8c-0.4,0.4-0.7,0.7-0.7,1.4c0,0.6,0.3,1.1,0.7,1.8c0.5,0.9,1.2,2.1,1.3,3.8c0.1,1.5-0.5,2.5-1,3.3
				c-0.5,0.8-0.8,1.4-0.5,2.3c0.7,2.1,2.7,4.6,4.7,7.1l0.1,0.2c1.9,2.1,3.3,4.7,4.1,7.4L59.2,127.3z"/>
		</g>
		<g>
			<path class="st0" d="M97.3,37.6c1.7-0.7,3.5-1.3,5.3-1.9c1.8-0.4,3.7-0.7,5.6-0.9c1-0.1,1.9-0.1,2.9,0c0.9,0.1,1.9,0.2,2.8,0.3
				c0.5,0.1,1,0.2,1.5,0.4c0.3,0.1,0.6,0.3,0.8,0.6c0.2,0.3,0.2,0.7,0.2,1c-0.1,1-0.4,2-1,2.9c-0.3,0.4-0.7,0.8-1.1,1.1
				c-0.4,0.3-0.9,0.5-1.2,0.7c-0.3,0.3-0.5,0.6-0.6,1c-0.2,0.5-0.4,0.9-0.7,1.4c-0.3,0.4-0.6,0.7-1,1.1c-0.4,0.4-0.8,0.7-1.3,0.9
				c-0.3,0.1-0.6,0.1-0.9,0.1c-0.3,0-0.5-0.1-0.8-0.1l-1.4-0.2c-1.8-0.3-3.7-0.7-5.5-1c-1.8-0.5-3.6-1-5.4-1.7
				c1.9,0.2,3.7,0.5,5.6,0.7c1.8,0.4,3.7,0.7,5.5,1l1.4,0.2c0.4,0.1,0.8,0.1,1.1,0c0.4-0.2,0.7-0.4,1-0.7c0.3-0.3,0.6-0.6,0.9-0.9
				c0.5-0.5,0.5-1.7,1.4-2.5c0.5-0.4,0.9-0.5,1.2-0.7c0.3-0.3,0.6-0.6,0.9-0.9c0.5-0.7,0.7-1.6,0.8-2.4c0-0.4-0.1-0.5-0.4-0.6
				c-0.4-0.1-0.8-0.2-1.2-0.3c-0.9-0.1-1.8-0.2-2.8-0.3c-0.9-0.1-1.8-0.1-2.7,0c-1.8,0.2-3.6,0.4-5.4,0.8
				C100.9,36.9,99.1,37.2,97.3,37.6z"/>
		</g>
		<g>
			<path class="st0" d="M58.7,52.1c-1.7,0-3.1-1.4-3.1-3.1S57,46,58.7,46s3.1,1.4,3.1,3.1S60.4,52.1,58.7,52.1z M58.7,47
				c-1.1,0-2.1,0.9-2.1,2.1s0.9,2.1,2.1,2.1s2.1-0.9,2.1-2.1S59.8,47,58.7,47z"/>
		</g>
	</g>
	<g id="Ebene_17">
		<g>
			<path class="st0" d="M25.8,102.3c-0.1-0.3-0.2-0.7-0.2-1l-5.3,0.2l0.9-5.4l-4.2-8.3l3.8-2.8L19,79.7l11.9,0.8c0-0.2,0-0.3,0-0.5
				c0-0.2,0-0.3,0.1-0.5l-13.4-0.8l2.1,6l-3.9,2.9l4.4,8.7l-1.1,6.3L25.8,102.3z"/>
		</g>
		<g>
			<path class="st0" d="M61.8,101.1c0.1-0.3,0.3-0.7,0.4-1l-11.7,0.4c0,0.3,0.1,0.7,0.1,1L61.8,101.1L61.8,101.1z"/>
		</g>
		<g>
			<path class="st0" d="M109,84.4l-28.8-1.8c-0.1,0.3-0.3,0.7-0.4,1l29.3,1.9C109.1,85.1,109,84.7,109,84.4z"/>
		</g>
		<g>
			<path class="st0" d="M111.2,98.6l-37.6,1.2c-0.2,0.3-0.2,0.7-0.4,1l38.1-1.2C111.3,99.2,111.2,98.9,111.2,98.6z"/>
		</g>
		<g>
			<path class="st0" d="M177.2,88.7l-55-3.5l0.1,1l51.7,3.3l-2.7,1.7l0.7,1.8l-1.2,1.7h-4l-0.3,2l-41.1,1.3c0,0.3,0.1,0.7,0.1,1
				l41.6-1.3h0.4l0.3-2h3.7l1.8-2.6l-0.6-1.5L177.2,88.7z"/>
		</g>
		<g>
			<path class="st0" d="M69.9,81.9l-18.6-1.2c-0.2,0.4-0.4,0.7-0.6,1l18.8,1.2C69.6,82.6,69.8,82.2,69.9,81.9z"/>
		</g>
		<g>
			<path class="st0" d="M107.3,18.2l-0.1-0.5l-4.2,0.9l-1,2.3l-1.9,0.8l-4.5-1.9l-4.2,9.8l1.2-0.4l3.4-8.1l4,1.6l2.6-1.2l1-2.2
				l2.8-0.6l2,8.8h1L107.3,18.2z"/>
		</g>
		<g>
			<path class="st0" d="M80.6,83.6l11.5-31.3L91,52.6L79.6,83.5L80.6,83.6z"/>
		</g>
		<g>
			<path class="st0" d="M69.7,82.9L80.3,58l-1.1,0.1L68.6,82.8C68.9,82.8,69.3,82.9,69.7,82.9z"/>
		</g>
		<g>
			<path class="st0" d="M63.7,129.5L74.6,100l-1.1,0.1L62.8,129C63.1,129.1,63.4,129.3,63.7,129.5z"/>
		</g>
		<g>
			<path class="st0" d="M54.5,118.3l7.8-18.1c-0.4,0-0.8,0-1.1,0l-7.4,17.2L54.5,118.3z"/>
		</g>
		<g>
			<path class="st0" d="M54.8,150.8l-2.8,7.5l-3-1.6l-3.9,2.1l-3.1-0.2l-2-3.3l-1.5,0.2l4.6-10.7l-0.8-0.7l-5.1,11.9l-0.3,0.8
				l2.5-0.3l2,3.2l3.9,0.3l3.6-2l3.5,1.9l3.2-8.7L54.8,150.8z"/>
		</g>
		<g>
			<path class="st0" d="M123.1,86.3l-7.6-32.5c-0.4-0.2-0.8-0.3-1.1-0.5l7.6,33C122.3,86.3,122.7,86.3,123.1,86.3z"/>
		</g>
		<g>
			<path class="st0" d="M109.5,85.4l-5.3-34.2l-1-0.1l5.3,34.2L109.5,85.4z"/>
		</g>
		<g>
			<path class="st0" d="M125.8,98.1c-0.3,0-0.7,0-1,0l19.4,83.9l-0.3,1.9l-5-3.4l-3.9,0.6l-1.4,2.7l-4.1-0.7l-4.3,2.7l-13.6-87.2
				c-0.3,0-0.7,0.1-1,0.1l13.9,88.8l5.2-3.3l4.4,0.8l1.6-2.8l3.1-0.4l6,4.1l0.7-3.6L125.8,98.1z"/>
		</g>
	</g>
</g>
</svg>
