<svg id="Ebene_17" data-name="Ebene 17" xmlns="http://www.w3.org/2000/svg" viewBox="0 0 363.08 473.75"><defs><style>.cls-1,.cls-3{fill:#06222d;stroke:#06222d;}.cls-1,.cls-2,.cls-3,.cls-4{stroke-miterlimit:10;}.cls-1,.cls-2{opacity:0.79;}.cls-2,.cls-4{fill:#754148;stroke:#754148;}.cls-3,.cls-4{opacity:0.4;}</style></defs><title>Pattern-01</title><g id="Ebene_2" data-name="Ebene 2"><path class="cls-1" d="M87.88,77.21l0,.1c-1.51-3.26-4.79-8.09-11-8.09-8.06,0-13.23,11-4.7,21.5,6.64,8.18,13,15.14,15.73,18,2.7-2.89,9.14-9.84,15.82-18,8.59-10.49,3.39-21.5-4.74-21.5C92.7,69.23,89.4,74,87.88,77.21Z"/><path class="cls-1" d="M66.08,126.44l0-.1c1.51,3.26,4.79,8.09,11,8.09,8.06,0,13.23-11,4.7-21.5-6.64-8.18-13-15.14-15.73-18-2.7,2.89-9.14,9.84-15.82,18-8.59,10.49-3.39,21.5,4.74,21.5C61.26,134.42,64.56,129.69,66.08,126.44Z"/><path class="cls-2" d="M132.78,77.4l0,.1c-1.51-3.26-4.79-8.09-11-8.09-8.06,0-13.23,11-4.7,21.5,6.64,8.18,13,15.14,15.73,18,2.7-2.89,9.14-9.84,15.82-18,8.59-10.49,3.39-21.5-4.74-21.5C137.61,69.42,134.3,74.15,132.78,77.4Z"/><path class="cls-1" d="M0,108.72c2.7-2.89,9.14-9.84,15.82-18,8.59-10.49,3.39-21.5-4.74-21.5-6.22,0-9.52,4.73-11,8l0,.1"/><path class="cls-1" d="M22.09,125.4l0-.1c1.51,3.26,4.79,8.09,11,8.09,8.06,0,13.23-11,4.7-21.5-6.64-8.18-13-15.14-15.73-18-2.7,2.89-9.14,9.84-15.82,18-8.59,10.49-3.39,21.5,4.74,21.5C17.27,133.38,20.57,128.65,22.09,125.4Z"/><path class="cls-1" d="M270.81,77.21l0,.1c-1.51-3.26-4.79-8.09-11-8.09-8.06,0-13.23,11-4.7,21.5,6.64,8.18,13,15.14,15.73,18,2.7-2.89,9.14-9.84,15.82-18,8.59-10.49,3.39-21.5-4.74-21.5C275.63,69.22,272.33,74,270.81,77.21Z"/><path class="cls-1" d="M178.86,77.27l0,.1c-1.51-3.26-4.79-8.09-11-8.09-8.06,0-13.23,11-4.7,21.5,6.64,8.18,13,15.14,15.73,18,2.7-2.89,9.14-9.84,15.82-18,8.59-10.49,3.39-21.5-4.74-21.5C183.69,69.29,180.38,74,178.86,77.27Z"/><path class="cls-1" d="M202,125.34l0-.1c1.51,3.26,4.79,8.09,11,8.09,8.06,0,13.23-11,4.7-21.5-6.64-8.18-13-15.14-15.73-18-2.7,2.89-9.14,9.84-15.82,18-8.59,10.49-3.39,21.5,4.74,21.5C197.13,133.32,200.43,128.59,202,125.34Z"/><path class="cls-1" d="M155.33,125.36l0-.1c1.51,3.26,4.79,8.09,11,8.09,8.06,0,13.23-11,4.7-21.5-6.64-8.18-13-15.14-15.73-18-2.7,2.89-9.14,9.84-15.82,18-8.59,10.49-3.39,21.5,4.74,21.5C150.51,133.35,153.81,128.61,155.33,125.36Z"/><path class="cls-1" d="M225.38,77.19l0,.1c-1.51-3.26-4.79-8.09-11-8.09-8.06,0-13.23,11-4.7,21.5,6.64,8.18,13,15.14,15.73,18,2.7-2.89,9.14-9.84,15.82-18,8.59-10.49,3.39-21.5-4.74-21.5C230.2,69.21,226.9,73.94,225.38,77.19Z"/><path class="cls-1" d="M87.88,9.55l0,.1c-1.51-3.26-4.79-8.09-11-8.09-8.06,0-13.23,11-4.7,21.5,6.64,8.18,13,15.14,15.73,18,2.7-2.89,9.14-9.84,15.82-18,8.59-10.49,3.39-21.5-4.74-21.5C92.7,1.56,89.4,6.3,87.88,9.55Z"/><path class="cls-1" d="M109.85,56.73l0-.1c1.51,3.26,4.79,8.09,11,8.09,8.06,0,13.23-11,4.7-21.5-6.64-8.18-13-15.14-15.73-18-2.7,2.89-9.14,9.84-15.82,18-8.59,10.49-3.39,21.5,4.74,21.5C105,64.71,108.33,60,109.85,56.73Z"/><path class="cls-1" d="M66.08,57.77l0-.1c1.51,3.26,4.79,8.09,11,8.09,8.06,0,13.23-11,4.7-21.5-6.64-8.18-13-15.14-15.73-18-2.7,2.89-9.14,9.84-15.82,18-8.59,10.49-3.39,21.5,4.74,21.5C61.26,65.76,64.56,61,66.08,57.77Z"/><path class="cls-1" d="M132.78,9.74l0,.1c-1.51-3.26-4.79-8.09-11-8.09-8.06,0-13.23,11-4.7,21.5,6.64,8.18,13,15.14,15.73,18,2.7-2.89,9.14-9.84,15.82-18,8.59-10.49,3.39-21.5-4.74-21.5C137.61,1.75,134.3,6.49,132.78,9.74Z"/><path class="cls-1" d="M0,41.05c2.7-2.89,9.14-9.84,15.82-18,8.59-10.49,3.39-21.5-4.74-21.5-6.22,0-9.52,4.73-11,8l0,.1"/><path class="cls-1" d="M270.81,9.54l0,.1c-1.51-3.26-4.79-8.09-11-8.09-8.06,0-13.23,11-4.7,21.5,6.64,8.18,13,15.14,15.73,18,2.7-2.89,9.14-9.84,15.82-18,8.59-10.49,3.39-21.5-4.74-21.5C275.63,1.56,272.33,6.29,270.81,9.54Z"/><path class="cls-2" d="M248.24,56.31l0-.1c1.51,3.26,4.79,8.09,11,8.09,8.06,0,13.23-11,4.7-21.5-6.64-8.18-13-15.14-15.73-18-2.7,2.89-9.14,9.84-15.82,18-8.59,10.49-3.39,21.5,4.74,21.5C243.42,64.29,246.72,59.55,248.24,56.31Z"/><path class="cls-1" d="M202,56.67l0-.1c1.51,3.26,4.79,8.09,11,8.09,8.06,0,13.23-11,4.7-21.5-6.64-8.18-13-15.14-15.73-18-2.7,2.89-9.14,9.84-15.82,18-8.59,10.49-3.39,21.5,4.74,21.5C197.13,64.65,200.43,59.92,202,56.67Z"/><path class="cls-1" d="M225.38,9.52l0,.1c-1.51-3.26-4.79-8.09-11-8.09-8.06,0-13.23,11-4.7,21.5,6.64,8.18,13,15.14,15.73,18,2.7-2.89,9.14-9.84,15.82-18,8.59-10.49,3.39-21.5-4.74-21.5C230.2,1.54,226.9,6.27,225.38,9.52Z"/><path class="cls-1" d="M87.88,215.21l0,.1c-1.51-3.26-4.79-8.09-11-8.09-8.06,0-13.23,11-4.7,21.5,6.64,8.18,13,15.14,15.73,18,2.7-2.89,9.14-9.84,15.82-18,8.59-10.49,3.39-21.5-4.74-21.5C92.7,207.23,89.4,212,87.88,215.21Z"/><path class="cls-1" d="M109.85,262.4l0-.1c1.51,3.26,4.79,8.09,11,8.09,8.06,0,13.23-11,4.7-21.5-6.64-8.18-13-15.14-15.73-18-2.7,2.89-9.14,9.84-15.82,18-8.59,10.49-3.39,21.5,4.74,21.5C105,270.38,108.33,265.65,109.85,262.4Z"/><path class="cls-1" d="M66.08,263.44l0-.1c1.51,3.26,4.79,8.09,11,8.09,8.06,0,13.23-11,4.7-21.5-6.64-8.18-13-15.14-15.73-18-2.7,2.89-9.14,9.84-15.82,18-8.59,10.49-3.39,21.5,4.74,21.5C61.26,271.42,64.56,266.69,66.08,263.44Z"/><path class="cls-1" d="M132.78,215.4l0,.1c-1.51-3.26-4.79-8.09-11-8.09-8.06,0-13.23,11-4.7,21.5,6.64,8.18,13,15.14,15.73,18,2.7-2.89,9.14-9.84,15.82-18,8.59-10.49,3.39-21.5-4.74-21.5C137.61,207.42,134.3,212.15,132.78,215.4Z"/><path class="cls-2" d="M0,246.72c2.7-2.89,9.14-9.84,15.82-18,8.59-10.49,3.39-21.5-4.74-21.5-6.22,0-9.52,4.73-11,8l0,.1"/><path class="cls-1" d="M44.1,215.21l0,.1c-1.51-3.26-4.79-8.09-11-8.09-8.06,0-13.23,11-4.7,21.5,6.64,8.18,13,15.14,15.73,18,2.7-2.89,9.14-9.84,15.82-18,8.59-10.49,3.39-21.5-4.74-21.5C48.93,207.22,45.62,212,44.1,215.21Z"/><path class="cls-1" d="M270.81,215.21l0,.1c-1.51-3.26-4.79-8.09-11-8.09-8.06,0-13.23,11-4.7,21.5,6.64,8.18,13,15.14,15.73,18,2.7-2.89,9.14-9.84,15.82-18,8.59-10.49,3.39-21.5-4.74-21.5C275.63,207.22,272.33,212,270.81,215.21Z"/><path class="cls-1" d="M178.86,215.27l0,.1c-1.51-3.26-4.79-8.09-11-8.09-8.06,0-13.23,11-4.7,21.5,6.64,8.18,13,15.14,15.73,18,2.7-2.89,9.14-9.84,15.82-18,8.59-10.49,3.39-21.5-4.74-21.5C183.69,207.29,180.38,212,178.86,215.27Z"/><path class="cls-1" d="M155.33,262.36l0-.1c1.51,3.26,4.79,8.09,11,8.09,8.06,0,13.23-11,4.7-21.5-6.64-8.18-13-15.14-15.73-18-2.7,2.89-9.14,9.84-15.82,18-8.59,10.49-3.39,21.5,4.74,21.5C150.51,270.35,153.81,265.61,155.33,262.36Z"/><path class="cls-1" d="M225.38,215.19l0,.1c-1.51-3.26-4.79-8.09-11-8.09-8.06,0-13.23,11-4.7,21.5,6.64,8.18,13,15.14,15.73,18,2.7-2.89,9.14-9.84,15.82-18,8.59-10.49,3.39-21.5-4.74-21.5C230.2,207.21,226.9,211.94,225.38,215.19Z"/><path class="cls-1" d="M87.88,146.55l0,.1c-1.51-3.26-4.79-8.09-11-8.09-8.06,0-13.23,11-4.7,21.5,6.64,8.18,13,15.14,15.73,18,2.7-2.89,9.14-9.84,15.82-18,8.59-10.49,3.39-21.5-4.74-21.5C92.7,138.56,89.4,143.3,87.88,146.55Z"/><path class="cls-1" d="M109.85,193.73l0-.1c1.51,3.26,4.79,8.09,11,8.09,8.06,0,13.23-11,4.7-21.5-6.64-8.18-13-15.14-15.73-18-2.7,2.89-9.14,9.84-15.82,18-8.59,10.49-3.39,21.5,4.74,21.5C105,201.71,108.33,197,109.85,193.73Z"/><path class="cls-1" d="M132.78,146.74l0,.1c-1.51-3.26-4.79-8.09-11-8.09-8.06,0-13.23,11-4.7,21.5,6.64,8.18,13,15.14,15.73,18,2.7-2.89,9.14-9.84,15.82-18,8.59-10.49,3.39-21.5-4.74-21.5C137.61,138.75,134.3,143.49,132.78,146.74Z"/><path class="cls-1" d="M0,178.05c2.7-2.89,9.14-9.84,15.82-18,8.59-10.49,3.39-21.5-4.74-21.5-6.22,0-9.52,4.73-11,8l0,.1"/><path class="cls-1" d="M44.1,146.54l0,.1c-1.51-3.26-4.79-8.09-11-8.09-8.06,0-13.23,11-4.7,21.5,6.64,8.18,13,15.14,15.73,18,2.7-2.89,9.14-9.84,15.82-18,8.59-10.49,3.39-21.5-4.74-21.5C48.93,138.56,45.62,143.29,44.1,146.54Z"/><path class="cls-1" d="M270.81,146.54l0,.1c-1.51-3.26-4.79-8.09-11-8.09-8.06,0-13.23,11-4.7,21.5,6.64,8.18,13,15.14,15.73,18,2.7-2.89,9.14-9.84,15.82-18,8.59-10.49,3.39-21.5-4.74-21.5C275.63,138.56,272.33,143.29,270.81,146.54Z"/><path class="cls-2" d="M248.31,193.62l0-.1c1.51,3.26,4.79,8.09,11,8.09,8.06,0,13.23-11,4.7-21.5-6.64-8.18-13-15.14-15.73-18-2.7,2.89-9.14,9.84-15.82,18-8.59,10.49-3.39,21.5,4.74,21.5C243.48,201.6,246.79,196.87,248.31,193.62Z"/><path class="cls-1" d="M178.86,146.61l0,.1c-1.51-3.26-4.79-8.09-11-8.09-8.06,0-13.23,11-4.7,21.5,6.64,8.18,13,15.14,15.73,18,2.7-2.89,9.14-9.84,15.82-18,8.59-10.49,3.39-21.5-4.74-21.5C183.69,138.62,180.38,143.36,178.86,146.61Z"/><path class="cls-1" d="M155.33,193.7l0-.1c1.51,3.26,4.79,8.09,11,8.09,8.06,0,13.23-11,4.7-21.5-6.64-8.18-13-15.14-15.73-18-2.7,2.89-9.14,9.84-15.82,18-8.59,10.49-3.39,21.5,4.74,21.5C150.51,201.68,153.81,196.95,155.33,193.7Z"/><path class="cls-1" d="M87.88,350.7l0,.1c-1.51-3.26-4.79-8.09-11-8.09-8.06,0-13.23,11-4.7,21.5,6.64,8.18,13,15.14,15.73,18,2.7-2.89,9.14-9.84,15.82-18,8.59-10.49,3.39-21.5-4.74-21.5C92.7,342.72,89.4,347.45,87.88,350.7Z"/><path class="cls-1" d="M109.85,396.88l0-.1c1.51,3.26,4.79,8.09,11,8.09,8.06,0,13.23-11,4.7-21.5-6.64-8.18-13-15.14-15.73-18-2.7,2.89-9.14,9.84-15.82,18-8.59,10.49-3.39,21.5,4.74,21.5C105,404.87,108.33,400.13,109.85,396.88Z"/><path class="cls-1" d="M132.78,350.89l0,.1c-1.51-3.26-4.79-8.09-11-8.09-8.06,0-13.23,11-4.7,21.5,6.64,8.18,13,15.14,15.73,18,2.7-2.89,9.14-9.84,15.82-18,8.59-10.49,3.39-21.5-4.74-21.5C137.61,342.91,134.3,347.64,132.78,350.89Z"/><path class="cls-1" d="M0,382.2c2.7-2.89,9.14-9.84,15.82-18,8.59-10.49,3.39-21.5-4.74-21.5-6.22,0-9.52,4.73-11,8l0,.1"/><path class="cls-1" d="M22.09,396.88l0-.1c1.51,3.26,4.79,8.09,11,8.09,8.06,0,13.23-11,4.7-21.5-6.64-8.18-13-15.14-15.73-18-2.7,2.89-9.14,9.84-15.82,18-8.59,10.49-3.39,21.5,4.74,21.5C17.27,404.87,20.57,400.13,22.09,396.88Z"/><path class="cls-1" d="M248.24,396.46l0-.1c1.51,3.26,4.79,8.09,11,8.09,8.06,0,13.23-11,4.7-21.5-6.64-8.18-13-15.14-15.73-18-2.7,2.89-9.14,9.84-15.82,18-8.59,10.49-3.39,21.5,4.74,21.5C243.42,404.44,246.72,399.71,248.24,396.46Z"/><path class="cls-1" d="M178.86,350.76l0,.1c-1.51-3.26-4.79-8.09-11-8.09-8.06,0-13.23,11-4.7,21.5,6.64,8.18,13,15.14,15.73,18,2.7-2.89,9.14-9.84,15.82-18,8.59-10.49,3.39-21.5-4.74-21.5C183.69,342.78,180.38,347.51,178.86,350.76Z"/><path class="cls-1" d="M155.33,396.85l0-.1c1.51,3.26,4.79,8.09,11,8.09,8.06,0,13.23-11,4.7-21.5-6.64-8.18-13-15.14-15.73-18-2.7,2.89-9.14,9.84-15.82,18-8.59,10.49-3.39,21.5,4.74,21.5C150.51,404.83,153.81,400.1,155.33,396.85Z"/><path class="cls-1" d="M225.38,350.68l0,.1c-1.51-3.26-4.79-8.09-11-8.09-8.06,0-13.23,11-4.7,21.5,6.64,8.18,13,15.14,15.73,18,2.7-2.89,9.14-9.84,15.82-18,8.59-10.49,3.39-21.5-4.74-21.5C230.2,342.69,226.9,347.43,225.38,350.68Z"/><path class="cls-1" d="M66.08,331.26l0-.1c1.51,3.26,4.79,8.09,11,8.09,8.06,0,13.23-11,4.7-21.5-6.64-8.18-13-15.14-15.73-18-2.7,2.89-9.14,9.84-15.82,18-8.59,10.49-3.39,21.5,4.74,21.5C61.26,339.24,64.56,334.51,66.08,331.26Z"/><path class="cls-1" d="M22.09,330.22l0-.1c1.51,3.26,4.79,8.09,11,8.09,8.06,0,13.23-11,4.7-21.5-6.64-8.18-13-15.14-15.73-18-2.7,2.89-9.14,9.84-15.82,18-8.59,10.49-3.39,21.5,4.74,21.5C17.27,338.2,20.57,333.47,22.09,330.22Z"/><path class="cls-1" d="M270.81,283l0,.1c-1.51-3.26-4.79-8.09-11-8.09-8.06,0-13.23,11-4.7,21.5,6.64,8.18,13,15.14,15.73,18,2.7-2.89,9.14-9.84,15.82-18C295.19,286,290,275,281.85,275,275.63,275,272.33,279.78,270.81,283Z"/><path class="cls-1" d="M248.24,329.79l0-.1c1.51,3.26,4.79,8.09,11,8.09,8.06,0,13.23-11,4.7-21.5-6.64-8.18-13-15.14-15.73-18-2.7,2.89-9.14,9.84-15.82,18-8.59,10.49-3.39,21.5,4.74,21.5C243.42,337.78,246.72,333,248.24,329.79Z"/><path class="cls-1" d="M178.86,283.09l0,.1c-1.51-3.26-4.79-8.09-11-8.09-8.06,0-13.23,11-4.7,21.5,6.64,8.18,13,15.14,15.73,18,2.7-2.89,9.14-9.84,15.82-18,8.59-10.49,3.39-21.5-4.74-21.5C183.69,275.11,180.38,279.84,178.86,283.09Z"/><path class="cls-2" d="M202,330.16l0-.1c1.51,3.26,4.79,8.09,11,8.09,8.06,0,13.23-11,4.7-21.5-6.64-8.18-13-15.14-15.73-18-2.7,2.89-9.14,9.84-15.82,18-8.59,10.49-3.39,21.5,4.74,21.5C197.13,338.14,200.43,333.41,202,330.16Z"/><path class="cls-1" d="M155.33,330.18l0-.1c1.51,3.26,4.79,8.09,11,8.09,8.06,0,13.23-11,4.7-21.5-6.64-8.18-13-15.14-15.73-18-2.7,2.89-9.14,9.84-15.82,18-8.59,10.49-3.39,21.5,4.74,21.5C150.51,338.17,153.81,333.43,155.33,330.18Z"/><path class="cls-1" d="M87.88,417l0,.1c-1.51-3.26-4.79-8.09-11-8.09-8.06,0-13.23,11-4.7,21.5,6.64,8.18,13,15.14,15.73,18,2.7-2.89,9.14-9.84,15.82-18,8.59-10.49,3.39-21.5-4.74-21.5C92.7,409,89.4,413.78,87.88,417Z"/><path class="cls-1" d="M109.85,464.22l0-.1c1.51,3.26,4.79,8.09,11,8.09,8.06,0,13.23-11,4.7-21.5-6.64-8.18-13-15.14-15.73-18-2.7,2.89-9.14,9.84-15.82,18-8.59,10.49-3.39,21.5,4.74,21.5C105,472.2,108.33,467.47,109.85,464.22Z"/><path class="cls-2" d="M0,448.54c2.7-2.89,9.14-9.84,15.82-18C24.42,420,19.21,409,11.09,409c-6.22,0-9.52,4.73-11,8l0,.1"/><path class="cls-1" d="M338.44,125.4l0-.1c1.51,3.26,4.79,8.09,11,8.09,8.06,0,13.23-11,4.7-21.5-6.64-8.18-13-15.14-15.73-18-2.7,2.89-9.14,9.84-15.82,18-8.59,10.49-3.39,21.5,4.74,21.5C333.62,133.38,336.92,128.65,338.44,125.4Z"/><path class="cls-1" d="M338.44,56.73l0-.1c1.51,3.26,4.79,8.09,11,8.09,8.06,0,13.23-11,4.7-21.5-6.64-8.18-13-15.14-15.73-18-2.7,2.89-9.14,9.84-15.82,18-8.59,10.49-3.39,21.5,4.74,21.5C333.62,64.71,336.92,60,338.44,56.73Z"/><path class="cls-1" d="M338.44,262.4l0-.1c1.51,3.26,4.79,8.09,11,8.09,8.06,0,13.23-11,4.7-21.5-6.64-8.18-13-15.14-15.73-18-2.7,2.89-9.14,9.84-15.82,18-8.59,10.49-3.39,21.5,4.74,21.5C333.62,270.38,336.92,265.65,338.44,262.4Z"/><path class="cls-1" d="M338.44,193.73l0-.1c1.51,3.26,4.79,8.09,11,8.09,8.06,0,13.23-11,4.7-21.5-6.64-8.18-13-15.14-15.73-18-2.7,2.89-9.14,9.84-15.82,18-8.59,10.49-3.39,21.5,4.74,21.5C333.62,201.71,336.92,197,338.44,193.73Z"/><path class="cls-1" d="M338.44,396.88l0-.1c1.51,3.26,4.79,8.09,11,8.09,8.06,0,13.23-11,4.7-21.5-6.64-8.18-13-15.14-15.73-18-2.7,2.89-9.14,9.84-15.82,18-8.59,10.49-3.39,21.5,4.74,21.5C333.62,404.87,336.92,400.13,338.44,396.88Z"/><path class="cls-1" d="M338.44,330.22l0-.1c1.51,3.26,4.79,8.09,11,8.09,8.06,0,13.23-11,4.7-21.5-6.64-8.18-13-15.14-15.73-18-2.7,2.89-9.14,9.84-15.82,18-8.59,10.49-3.39,21.5,4.74,21.5C333.62,338.2,336.92,333.47,338.44,330.22Z"/><path class="cls-1" d="M338.44,464.22l0-.1c1.51,3.26,4.79,8.09,11,8.09,8.06,0,13.23-11,4.7-21.5-6.64-8.18-13-15.14-15.73-18-2.7,2.89-9.14,9.84-15.82,18-8.59,10.49-3.39,21.5,4.74,21.5C333.62,472.2,336.92,467.47,338.44,464.22Z"/><path class="cls-1" d="M293.44,125.4l0-.1c1.51,3.26,4.79,8.09,11,8.09,8.06,0,13.23-11,4.7-21.5-6.64-8.18-13-15.14-15.73-18-2.7,2.89-9.14,9.84-15.82,18-8.59,10.49-3.39,21.5,4.74,21.5C288.62,133.38,291.92,128.65,293.44,125.4Z"/><path class="cls-1" d="M293.44,56.73l0-.1c1.51,3.26,4.79,8.09,11,8.09,8.06,0,13.23-11,4.7-21.5-6.64-8.18-13-15.14-15.73-18-2.7,2.89-9.14,9.84-15.82,18-8.59,10.49-3.39,21.5,4.74,21.5C288.62,64.71,291.92,60,293.44,56.73Z"/><path class="cls-1" d="M293.44,262.4l0-.1c1.51,3.26,4.79,8.09,11,8.09,8.06,0,13.23-11,4.7-21.5-6.64-8.18-13-15.14-15.73-18-2.7,2.89-9.14,9.84-15.82,18-8.59,10.49-3.39,21.5,4.74,21.5C288.62,270.38,291.92,265.65,293.44,262.4Z"/><path class="cls-1" d="M293.44,193.73l0-.1c1.51,3.26,4.79,8.09,11,8.09,8.06,0,13.23-11,4.7-21.5-6.64-8.18-13-15.14-15.73-18-2.7,2.89-9.14,9.84-15.82,18-8.59,10.49-3.39,21.5,4.74,21.5C288.62,201.71,291.92,197,293.44,193.73Z"/><path class="cls-1" d="M293.44,396.88l0-.1c1.51,3.26,4.79,8.09,11,8.09,8.06,0,13.23-11,4.7-21.5-6.64-8.18-13-15.14-15.73-18-2.7,2.89-9.14,9.84-15.82,18-8.59,10.49-3.39,21.5,4.74,21.5C288.62,404.87,291.92,400.13,293.44,396.88Z"/><path class="cls-1" d="M293.44,330.22l0-.1c1.51,3.26,4.79,8.09,11,8.09,8.06,0,13.23-11,4.7-21.5-6.64-8.18-13-15.14-15.73-18-2.7,2.89-9.14,9.84-15.82,18-8.59,10.49-3.39,21.5,4.74,21.5C288.62,338.2,291.92,333.47,293.44,330.22Z"/><path class="cls-1" d="M293.44,464.22l0-.1c1.51,3.26,4.79,8.09,11,8.09,8.06,0,13.23-11,4.7-21.5-6.64-8.18-13-15.14-15.73-18-2.7,2.89-9.14,9.84-15.82,18-8.59,10.49-3.39,21.5,4.74,21.5C288.62,472.2,291.92,467.47,293.44,464.22Z"/><path class="cls-1" d="M44.1,417l0,.1c-1.51-3.26-4.79-8.09-11-8.09-8.06,0-13.23,11-4.7,21.5,6.64,8.18,13,15.14,15.73,18,2.7-2.89,9.14-9.84,15.82-18C68.48,420,63.27,409,55.14,409,48.93,409,45.62,413.78,44.1,417Z"/><path class="cls-1" d="M270.81,417l0,.1c-1.51-3.26-4.79-8.09-11-8.09-8.06,0-13.23,11-4.7,21.5,6.64,8.18,13,15.14,15.73,18,2.7-2.89,9.14-9.84,15.82-18C295.19,420,290,409,281.85,409,275.63,409,272.33,413.78,270.81,417Z"/><path class="cls-1" d="M314.81,77.21l0,.1c-1.51-3.26-4.79-8.09-11-8.09-8.06,0-13.23,11-4.7,21.5,6.64,8.18,13,15.14,15.73,18,2.7-2.89,9.14-9.84,15.82-18,8.59-10.49,3.39-21.5-4.74-21.5C319.63,69.22,316.33,74,314.81,77.21Z"/><path class="cls-1" d="M314.81,9.54l0,.1c-1.51-3.26-4.79-8.09-11-8.09-8.06,0-13.23,11-4.7,21.5,6.64,8.18,13,15.14,15.73,18,2.7-2.89,9.14-9.84,15.82-18,8.59-10.49,3.39-21.5-4.74-21.5C319.63,1.56,316.33,6.29,314.81,9.54Z"/><path class="cls-1" d="M363.13,77.21l0,.1c-1.51-3.26-4.79-8.09-11-8.09-8.06,0-13.23,11-4.7,21.5,6.64,8.18,13,15.14,15.73,18"/><path class="cls-1" d="M363.13,9.54l0,.1c-1.51-3.26-4.79-8.09-11-8.09-8.06,0-13.23,11-4.7,21.5,6.64,8.18,13,15.14,15.73,18"/><path class="cls-2" d="M363.13,215.21l0,.1c-1.51-3.26-4.79-8.09-11-8.09-8.06,0-13.23,11-4.7,21.5,6.64,8.18,13,15.14,15.73,18"/><path class="cls-1" d="M363.13,146.54l0,.1c-1.51-3.26-4.79-8.09-11-8.09-8.06,0-13.23,11-4.7,21.5,6.64,8.18,13,15.14,15.73,18"/><path class="cls-1" d="M363.13,350.69l0,.1c-1.51-3.26-4.79-8.09-11-8.09-8.06,0-13.23,11-4.7,21.5,6.64,8.18,13,15.14,15.73,18"/><path class="cls-2" d="M363.13,417l0,.1c-1.51-3.26-4.79-8.09-11-8.09-8.06,0-13.23,11-4.7,21.5,6.64,8.18,13,15.14,15.73,18"/><path class="cls-1" d="M314.81,215.21l0,.1c-1.51-3.26-4.79-8.09-11-8.09-8.06,0-13.23,11-4.7,21.5,6.64,8.18,13,15.14,15.73,18,2.7-2.89,9.14-9.84,15.82-18,8.59-10.49,3.39-21.5-4.74-21.5C319.63,207.22,316.33,212,314.81,215.21Z"/><path class="cls-1" d="M314.81,146.54l0,.1c-1.51-3.26-4.79-8.09-11-8.09-8.06,0-13.23,11-4.7,21.5,6.64,8.18,13,15.14,15.73,18,2.7-2.89,9.14-9.84,15.82-18,8.59-10.49,3.39-21.5-4.74-21.5C319.63,138.56,316.33,143.29,314.81,146.54Z"/><path class="cls-1" d="M314.81,283l0,.1c-1.51-3.26-4.79-8.09-11-8.09-8.06,0-13.23,11-4.7,21.5,6.64,8.18,13,15.14,15.73,18,2.7-2.89,9.14-9.84,15.82-18C339.19,286,334,275,325.85,275,319.63,275,316.33,279.78,314.81,283Z"/><path class="cls-1" d="M314.81,417l0,.1c-1.51-3.26-4.79-8.09-11-8.09-8.06,0-13.23,11-4.7,21.5,6.64,8.18,13,15.14,15.73,18,2.7-2.89,9.14-9.84,15.82-18C339.19,420,334,409,325.85,409,319.63,409,316.33,413.78,314.81,417Z"/><path class="cls-1" d="M248.24,463.79l0-.1c1.51,3.26,4.79,8.09,11,8.09,8.06,0,13.23-11,4.7-21.5-6.64-8.18-13-15.14-15.73-18-2.7,2.89-9.14,9.84-15.82,18-8.59,10.49-3.39,21.5,4.74,21.5C243.42,471.78,246.72,467,248.24,463.79Z"/><path class="cls-1" d="M178.86,417.09l0,.1c-1.51-3.26-4.79-8.09-11-8.09-8.06,0-13.23,11-4.7,21.5,6.64,8.18,13,15.14,15.73,18,2.7-2.89,9.14-9.84,15.82-18,8.59-10.49,3.39-21.5-4.74-21.5C183.69,409.11,180.38,413.84,178.86,417.09Z"/><path class="cls-1" d="M202,464.16l0-.1c1.51,3.26,4.79,8.09,11,8.09,8.06,0,13.23-11,4.7-21.5-6.64-8.18-13-15.14-15.73-18-2.7,2.89-9.14,9.84-15.82,18-8.59,10.49-3.39,21.5,4.74,21.5C197.13,472.14,200.43,467.41,202,464.16Z"/><path class="cls-1" d="M155.33,464.18l0-.1c1.51,3.26,4.79,8.09,11,8.09,8.06,0,13.23-11,4.7-21.5-6.64-8.18-13-15.14-15.73-18-2.7,2.89-9.14,9.84-15.82,18-8.59,10.49-3.39,21.5,4.74,21.5C150.51,472.17,153.81,467.43,155.33,464.18Z"/><path class="cls-2" d="M225.38,417l0,.1c-1.51-3.26-4.79-8.09-11-8.09-8.06,0-13.23,11-4.7,21.5,6.64,8.18,13,15.14,15.73,18,2.7-2.89,9.14-9.84,15.82-18,8.59-10.49,3.39-21.5-4.74-21.5C230.2,409,226.9,413.76,225.38,417Z"/></g><g id="Ebene_2_Kopie" data-name="Ebene 2 Kopie"><path class="cls-3" d="M87.88,77.21l0,.1c-1.51-3.26-4.79-8.09-11-8.09-8.06,0-13.23,11-4.7,21.5,6.64,8.18,13,15.14,15.73,18,2.7-2.89,9.14-9.84,15.82-18,8.59-10.49,3.39-21.5-4.74-21.5C92.7,69.23,89.4,74,87.88,77.21Z"/><path class="cls-3" d="M44.54,77.21l0,.1c-1.51-3.26-4.79-8.09-11-8.09-8.06,0-13.23,11-4.7,21.5,6.64,8.18,13,15.14,15.73,18,2.7-2.89,9.14-9.84,15.82-18,8.59-10.49,3.39-21.5-4.74-21.5C49.37,69.23,46.06,74,44.54,77.21Z"/><path class="cls-3" d="M66.08,126.44l0-.1c1.51,3.26,4.79,8.09,11,8.09,8.06,0,13.23-11,4.7-21.5-6.64-8.18-13-15.14-15.73-18-2.7,2.89-9.14,9.84-15.82,18-8.59,10.49-3.39,21.5,4.74,21.5C61.26,134.42,64.56,129.69,66.08,126.44Z"/><path class="cls-3" d="M110.08,126.44l0-.1c1.51,3.26,4.79,8.09,11,8.09,8.06,0,13.23-11,4.7-21.5-6.64-8.18-13-15.14-15.73-18-2.7,2.89-9.14,9.84-15.82,18-8.59,10.49-3.39,21.5,4.74,21.5C105.26,134.42,108.56,129.69,110.08,126.44Z"/><path class="cls-4" d="M132.78,77.4l0,.1c-1.51-3.26-4.79-8.09-11-8.09-8.06,0-13.23,11-4.7,21.5,6.64,8.18,13,15.14,15.73,18,2.7-2.89,9.14-9.84,15.82-18,8.59-10.49,3.39-21.5-4.74-21.5C137.61,69.42,134.3,74.15,132.78,77.4Z"/><path class="cls-3" d="M0,108.72c2.7-2.89,9.14-9.84,15.82-18,8.59-10.49,3.39-21.5-4.74-21.5-6.22,0-9.52,4.73-11,8l0,.1"/><path class="cls-3" d="M22.09,125.4l0-.1c1.51,3.26,4.79,8.09,11,8.09,8.06,0,13.23-11,4.7-21.5-6.64-8.18-13-15.14-15.73-18-2.7,2.89-9.14,9.84-15.82,18-8.59,10.49-3.39,21.5,4.74,21.5C17.27,133.38,20.57,128.65,22.09,125.4Z"/><path class="cls-3" d="M270.81,77.21l0,.1c-1.51-3.26-4.79-8.09-11-8.09-8.06,0-13.23,11-4.7,21.5,6.64,8.18,13,15.14,15.73,18,2.7-2.89,9.14-9.84,15.82-18,8.59-10.49,3.39-21.5-4.74-21.5C275.63,69.22,272.33,74,270.81,77.21Z"/><path class="cls-3" d="M178.86,77.27l0,.1c-1.51-3.26-4.79-8.09-11-8.09-8.06,0-13.23,11-4.7,21.5,6.64,8.18,13,15.14,15.73,18,2.7-2.89,9.14-9.84,15.82-18,8.59-10.49,3.39-21.5-4.74-21.5C183.69,69.29,180.38,74,178.86,77.27Z"/><path class="cls-3" d="M202,125.34l0-.1c1.51,3.26,4.79,8.09,11,8.09,8.06,0,13.23-11,4.7-21.5-6.64-8.18-13-15.14-15.73-18-2.7,2.89-9.14,9.84-15.82,18-8.59,10.49-3.39,21.5,4.74,21.5C197.13,133.32,200.43,128.59,202,125.34Z"/><path class="cls-3" d="M248.62,125.34l0-.1c1.51,3.26,4.79,8.09,11,8.09,8.06,0,13.23-11,4.7-21.5-6.64-8.18-13-15.14-15.73-18-2.7,2.89-9.14,9.84-15.82,18-8.59,10.49-3.39,21.5,4.74,21.5C243.8,133.32,247.1,128.59,248.62,125.34Z"/><path class="cls-3" d="M155.33,125.36l0-.1c1.51,3.26,4.79,8.09,11,8.09,8.06,0,13.23-11,4.7-21.5-6.64-8.18-13-15.14-15.73-18-2.7,2.89-9.14,9.84-15.82,18-8.59,10.49-3.39,21.5,4.74,21.5C150.51,133.35,153.81,128.61,155.33,125.36Z"/><path class="cls-3" d="M225.38,77.19l0,.1c-1.51-3.26-4.79-8.09-11-8.09-8.06,0-13.23,11-4.7,21.5,6.64,8.18,13,15.14,15.73,18,2.7-2.89,9.14-9.84,15.82-18,8.59-10.49,3.39-21.5-4.74-21.5C230.2,69.21,226.9,73.94,225.38,77.19Z"/><path class="cls-3" d="M87.88,9.55l0,.1c-1.51-3.26-4.79-8.09-11-8.09-8.06,0-13.23,11-4.7,21.5,6.64,8.18,13,15.14,15.73,18,2.7-2.89,9.14-9.84,15.82-18,8.59-10.49,3.39-21.5-4.74-21.5C92.7,1.56,89.4,6.3,87.88,9.55Z"/><path class="cls-3" d="M45.21,9.55l0,.1c-1.51-3.26-4.79-8.09-11-8.09-8.06,0-13.23,11-4.7,21.5,6.64,8.18,13,15.14,15.73,18,2.7-2.89,9.14-9.84,15.82-18,8.59-10.49,3.39-21.5-4.74-21.5C50,1.56,46.73,6.3,45.21,9.55Z"/><path class="cls-3" d="M109.85,56.73l0-.1c1.51,3.26,4.79,8.09,11,8.09,8.06,0,13.23-11,4.7-21.5-6.64-8.18-13-15.14-15.73-18-2.7,2.89-9.14,9.84-15.82,18-8.59,10.49-3.39,21.5,4.74,21.5C105,64.71,108.33,60,109.85,56.73Z"/><path class="cls-3" d="M156.18,56.73l0-.1c1.51,3.26,4.79,8.09,11,8.09,8.06,0,13.23-11,4.7-21.5-6.64-8.18-13-15.14-15.73-18-2.7,2.89-9.14,9.84-15.82,18-8.59,10.49-3.39,21.5,4.74,21.5C151.36,64.71,154.66,60,156.18,56.73Z"/><path class="cls-3" d="M66.08,57.77l0-.1c1.51,3.26,4.79,8.09,11,8.09,8.06,0,13.23-11,4.7-21.5-6.64-8.18-13-15.14-15.73-18-2.7,2.89-9.14,9.84-15.82,18-8.59,10.49-3.39,21.5,4.74,21.5C61.26,65.76,64.56,61,66.08,57.77Z"/><path class="cls-3" d="M132.78,9.74l0,.1c-1.51-3.26-4.79-8.09-11-8.09-8.06,0-13.23,11-4.7,21.5,6.64,8.18,13,15.14,15.73,18,2.7-2.89,9.14-9.84,15.82-18,8.59-10.49,3.39-21.5-4.74-21.5C137.61,1.75,134.3,6.49,132.78,9.74Z"/><path class="cls-3" d="M0,41.05c2.7-2.89,9.14-9.84,15.82-18,8.59-10.49,3.39-21.5-4.74-21.5-6.22,0-9.52,4.73-11,8l0,.1"/><path class="cls-4" d="M22.09,56.73l0-.1c1.51,3.26,4.79,8.09,11,8.09,8.06,0,13.23-11,4.7-21.5-6.64-8.18-13-15.14-15.73-18-2.7,2.89-9.14,9.84-15.82,18C-2.28,53.71,2.92,64.71,11,64.71,17.27,64.71,20.57,60,22.09,56.73Z"/><path class="cls-3" d="M270.81,9.54l0,.1c-1.51-3.26-4.79-8.09-11-8.09-8.06,0-13.23,11-4.7,21.5,6.64,8.18,13,15.14,15.73,18,2.7-2.89,9.14-9.84,15.82-18,8.59-10.49,3.39-21.5-4.74-21.5C275.63,1.56,272.33,6.29,270.81,9.54Z"/><path class="cls-4" d="M248.24,56.31l0-.1c1.51,3.26,4.79,8.09,11,8.09,8.06,0,13.23-11,4.7-21.5-6.64-8.18-13-15.14-15.73-18-2.7,2.89-9.14,9.84-15.82,18-8.59,10.49-3.39,21.5,4.74,21.5C243.42,64.29,246.72,59.55,248.24,56.31Z"/><path class="cls-3" d="M202,56.67l0-.1c1.51,3.26,4.79,8.09,11,8.09,8.06,0,13.23-11,4.7-21.5-6.64-8.18-13-15.14-15.73-18-2.7,2.89-9.14,9.84-15.82,18-8.59,10.49-3.39,21.5,4.74,21.5C197.13,64.65,200.43,59.92,202,56.67Z"/><path class="cls-3" d="M225.38,9.52l0,.1c-1.51-3.26-4.79-8.09-11-8.09-8.06,0-13.23,11-4.7,21.5,6.64,8.18,13,15.14,15.73,18,2.7-2.89,9.14-9.84,15.82-18,8.59-10.49,3.39-21.5-4.74-21.5C230.2,1.54,226.9,6.27,225.38,9.52Z"/><path class="cls-3" d="M179.38,9.52l0,.1c-1.51-3.26-4.79-8.09-11-8.09-8.06,0-13.23,11-4.7,21.5,6.64,8.18,13,15.14,15.73,18,2.7-2.89,9.14-9.84,15.82-18,8.59-10.49,3.39-21.5-4.74-21.5C184.2,1.54,180.9,6.27,179.38,9.52Z"/><path class="cls-3" d="M87.88,215.21l0,.1c-1.51-3.26-4.79-8.09-11-8.09-8.06,0-13.23,11-4.7,21.5,6.64,8.18,13,15.14,15.73,18,2.7-2.89,9.14-9.84,15.82-18,8.59-10.49,3.39-21.5-4.74-21.5C92.7,207.23,89.4,212,87.88,215.21Z"/><path class="cls-3" d="M132.78,215.4l0,.1c-1.51-3.26-4.79-8.09-11-8.09-8.06,0-13.23,11-4.7,21.5,6.64,8.18,13,15.14,15.73,18,2.7-2.89,9.14-9.84,15.82-18,8.59-10.49,3.39-21.5-4.74-21.5C137.61,207.42,134.3,212.15,132.78,215.4Z"/><path class="cls-4" d="M0,246.72c2.7-2.89,9.14-9.84,15.82-18,8.59-10.49,3.39-21.5-4.74-21.5-6.22,0-9.52,4.73-11,8l0,.1"/><path class="cls-3" d="M44.1,215.21l0,.1c-1.51-3.26-4.79-8.09-11-8.09-8.06,0-13.23,11-4.7,21.5,6.64,8.18,13,15.14,15.73,18,2.7-2.89,9.14-9.84,15.82-18,8.59-10.49,3.39-21.5-4.74-21.5C48.93,207.22,45.62,212,44.1,215.21Z"/><path class="cls-3" d="M270.81,215.21l0,.1c-1.51-3.26-4.79-8.09-11-8.09-8.06,0-13.23,11-4.7,21.5,6.64,8.18,13,15.14,15.73,18,2.7-2.89,9.14-9.84,15.82-18,8.59-10.49,3.39-21.5-4.74-21.5C275.63,207.22,272.33,212,270.81,215.21Z"/><path class="cls-3" d="M178.86,215.27l0,.1c-1.51-3.26-4.79-8.09-11-8.09-8.06,0-13.23,11-4.7,21.5,6.64,8.18,13,15.14,15.73,18,2.7-2.89,9.14-9.84,15.82-18,8.59-10.49,3.39-21.5-4.74-21.5C183.69,207.29,180.38,212,178.86,215.27Z"/><path class="cls-3" d="M225.38,215.19l0,.1c-1.51-3.26-4.79-8.09-11-8.09-8.06,0-13.23,11-4.7,21.5,6.64,8.18,13,15.14,15.73,18,2.7-2.89,9.14-9.84,15.82-18,8.59-10.49,3.39-21.5-4.74-21.5C230.2,207.21,226.9,211.94,225.38,215.19Z"/><path class="cls-3" d="M87.88,146.55l0,.1c-1.51-3.26-4.79-8.09-11-8.09-8.06,0-13.23,11-4.7,21.5,6.64,8.18,13,15.14,15.73,18,2.7-2.89,9.14-9.84,15.82-18,8.59-10.49,3.39-21.5-4.74-21.5C92.7,138.56,89.4,143.3,87.88,146.55Z"/><path class="cls-3" d="M132.78,146.74l0,.1c-1.51-3.26-4.79-8.09-11-8.09-8.06,0-13.23,11-4.7,21.5,6.64,8.18,13,15.14,15.73,18,2.7-2.89,9.14-9.84,15.82-18,8.59-10.49,3.39-21.5-4.74-21.5C137.61,138.75,134.3,143.49,132.78,146.74Z"/><path class="cls-3" d="M0,178.05c2.7-2.89,9.14-9.84,15.82-18,8.59-10.49,3.39-21.5-4.74-21.5-6.22,0-9.52,4.73-11,8l0,.1"/><path class="cls-3" d="M44.1,146.54l0,.1c-1.51-3.26-4.79-8.09-11-8.09-8.06,0-13.23,11-4.7,21.5,6.64,8.18,13,15.14,15.73,18,2.7-2.89,9.14-9.84,15.82-18,8.59-10.49,3.39-21.5-4.74-21.5C48.93,138.56,45.62,143.29,44.1,146.54Z"/><path class="cls-3" d="M270.81,146.54l0,.1c-1.51-3.26-4.79-8.09-11-8.09-8.06,0-13.23,11-4.7,21.5,6.64,8.18,13,15.14,15.73,18,2.7-2.89,9.14-9.84,15.82-18,8.59-10.49,3.39-21.5-4.74-21.5C275.63,138.56,272.33,143.29,270.81,146.54Z"/><path class="cls-3" d="M225.48,146.54l0,.1c-1.51-3.26-4.79-8.09-11-8.09-8.06,0-13.23,11-4.7,21.5,6.64,8.18,13,15.14,15.73,18,2.7-2.89,9.14-9.84,15.82-18,8.59-10.49,3.39-21.5-4.74-21.5C230.3,138.56,227,143.29,225.48,146.54Z"/><path class="cls-3" d="M178.86,146.61l0,.1c-1.51-3.26-4.79-8.09-11-8.09-8.06,0-13.23,11-4.7,21.5,6.64,8.18,13,15.14,15.73,18,2.7-2.89,9.14-9.84,15.82-18,8.59-10.49,3.39-21.5-4.74-21.5C183.69,138.62,180.38,143.36,178.86,146.61Z"/><path class="cls-3" d="M87.88,350.7l0,.1c-1.51-3.26-4.79-8.09-11-8.09-8.06,0-13.23,11-4.7,21.5,6.64,8.18,13,15.14,15.73,18,2.7-2.89,9.14-9.84,15.82-18,8.59-10.49,3.39-21.5-4.74-21.5C92.7,342.72,89.4,347.45,87.88,350.7Z"/><path class="cls-3" d="M109.85,396.88l0-.1c1.51,3.26,4.79,8.09,11,8.09,8.06,0,13.23-11,4.7-21.5-6.64-8.18-13-15.14-15.73-18-2.7,2.89-9.14,9.84-15.82,18-8.59,10.49-3.39,21.5,4.74,21.5C105,404.87,108.33,400.13,109.85,396.88Z"/><path class="cls-3" d="M66.52,396.88l0-.1c1.51,3.26,4.79,8.09,11,8.09,8.06,0,13.23-11,4.7-21.5-6.64-8.18-13-15.14-15.73-18-2.7,2.89-9.14,9.84-15.82,18-8.59,10.49-3.39,21.5,4.74,21.5C61.69,404.87,65,400.13,66.52,396.88Z"/><path class="cls-3" d="M132.78,350.89l0,.1c-1.51-3.26-4.79-8.09-11-8.09-8.06,0-13.23,11-4.7,21.5,6.64,8.18,13,15.14,15.73,18,2.7-2.89,9.14-9.84,15.82-18,8.59-10.49,3.39-21.5-4.74-21.5C137.61,342.91,134.3,347.64,132.78,350.89Z"/><path class="cls-3" d="M0,382.2c2.7-2.89,9.14-9.84,15.82-18,8.59-10.49,3.39-21.5-4.74-21.5-6.22,0-9.52,4.73-11,8l0,.1"/><path class="cls-3" d="M22.09,396.88l0-.1c1.51,3.26,4.79,8.09,11,8.09,8.06,0,13.23-11,4.7-21.5-6.64-8.18-13-15.14-15.73-18-2.7,2.89-9.14,9.84-15.82,18-8.59,10.49-3.39,21.5,4.74,21.5C17.27,404.87,20.57,400.13,22.09,396.88Z"/><path class="cls-4" d="M44.1,350.69l0,.1c-1.51-3.26-4.79-8.09-11-8.09-8.06,0-13.23,11-4.7,21.5,6.64,8.18,13,15.14,15.73,18,2.7-2.89,9.14-9.84,15.82-18,8.59-10.49,3.39-21.5-4.74-21.5C48.93,342.71,45.62,347.44,44.1,350.69Z"/><path class="cls-3" d="M248.24,396.46l0-.1c1.51,3.26,4.79,8.09,11,8.09,8.06,0,13.23-11,4.7-21.5-6.64-8.18-13-15.14-15.73-18-2.7,2.89-9.14,9.84-15.82,18-8.59,10.49-3.39,21.5,4.74,21.5C243.42,404.44,246.72,399.71,248.24,396.46Z"/><path class="cls-3" d="M178.86,350.76l0,.1c-1.51-3.26-4.79-8.09-11-8.09-8.06,0-13.23,11-4.7,21.5,6.64,8.18,13,15.14,15.73,18,2.7-2.89,9.14-9.84,15.82-18,8.59-10.49,3.39-21.5-4.74-21.5C183.69,342.78,180.38,347.51,178.86,350.76Z"/><path class="cls-3" d="M155.33,396.85l0-.1c1.51,3.26,4.79,8.09,11,8.09,8.06,0,13.23-11,4.7-21.5-6.64-8.18-13-15.14-15.73-18-2.7,2.89-9.14,9.84-15.82,18-8.59,10.49-3.39,21.5,4.74,21.5C150.51,404.83,153.81,400.1,155.33,396.85Z"/><path class="cls-3" d="M202,396.85l0-.1c1.51,3.26,4.79,8.09,11,8.09,8.06,0,13.23-11,4.7-21.5-6.64-8.18-13-15.14-15.73-18-2.7,2.89-9.14,9.84-15.82,18-8.59,10.49-3.39,21.5,4.74,21.5C197.17,404.83,200.48,400.1,202,396.85Z"/><path class="cls-3" d="M225.38,350.68l0,.1c-1.51-3.26-4.79-8.09-11-8.09-8.06,0-13.23,11-4.7,21.5,6.64,8.18,13,15.14,15.73,18,2.7-2.89,9.14-9.84,15.82-18,8.59-10.49,3.39-21.5-4.74-21.5C230.2,342.69,226.9,347.43,225.38,350.68Z"/><path class="cls-3" d="M272,350.68l0,.1c-1.51-3.26-4.79-8.09-11-8.09-8.06,0-13.23,11-4.7,21.5,6.64,8.18,13,15.14,15.73,18,2.7-2.89,9.14-9.84,15.82-18,8.59-10.49,3.39-21.5-4.74-21.5C276.87,342.69,273.56,347.43,272,350.68Z"/><path class="cls-3" d="M66.08,331.26l0-.1c1.51,3.26,4.79,8.09,11,8.09,8.06,0,13.23-11,4.7-21.5-6.64-8.18-13-15.14-15.73-18-2.7,2.89-9.14,9.84-15.82,18-8.59,10.49-3.39,21.5,4.74,21.5C61.26,339.24,64.56,334.51,66.08,331.26Z"/><path class="cls-3" d="M110.75,331.26l0-.1c1.51,3.26,4.79,8.09,11,8.09,8.06,0,13.23-11,4.7-21.5-6.64-8.18-13-15.14-15.73-18-2.7,2.89-9.14,9.84-15.82,18-8.59,10.49-3.39,21.5,4.74,21.5C105.93,339.24,109.23,334.51,110.75,331.26Z"/><path class="cls-3" d="M22.09,330.22l0-.1c1.51,3.26,4.79,8.09,11,8.09,8.06,0,13.23-11,4.7-21.5-6.64-8.18-13-15.14-15.73-18-2.7,2.89-9.14,9.84-15.82,18-8.59,10.49-3.39,21.5,4.74,21.5C17.27,338.2,20.57,333.47,22.09,330.22Z"/><path class="cls-3" d="M270.81,283l0,.1c-1.51-3.26-4.79-8.09-11-8.09-8.06,0-13.23,11-4.7,21.5,6.64,8.18,13,15.14,15.73,18,2.7-2.89,9.14-9.84,15.82-18C295.19,286,290,275,281.85,275,275.63,275,272.33,279.78,270.81,283Z"/><path class="cls-3" d="M225.48,283l0,.1c-1.51-3.26-4.79-8.09-11-8.09-8.06,0-13.23,11-4.7,21.5,6.64,8.18,13,15.14,15.73,18,2.7-2.89,9.14-9.84,15.82-18,8.59-10.49,3.39-21.5-4.74-21.5C230.3,275,227,279.78,225.48,283Z"/><path class="cls-3" d="M248.24,329.79l0-.1c1.51,3.26,4.79,8.09,11,8.09,8.06,0,13.23-11,4.7-21.5-6.64-8.18-13-15.14-15.73-18-2.7,2.89-9.14,9.84-15.82,18-8.59,10.49-3.39,21.5,4.74,21.5C243.42,337.78,246.72,333,248.24,329.79Z"/><path class="cls-3" d="M178.86,283.09l0,.1c-1.51-3.26-4.79-8.09-11-8.09-8.06,0-13.23,11-4.7,21.5,6.64,8.18,13,15.14,15.73,18,2.7-2.89,9.14-9.84,15.82-18,8.59-10.49,3.39-21.5-4.74-21.5C183.69,275.11,180.38,279.84,178.86,283.09Z"/><path class="cls-3" d="M133.48,283l0,.1c-1.51-3.26-4.79-8.09-11-8.09-8.06,0-13.23,11-4.7,21.5,6.64,8.18,13,15.14,15.73,18,2.7-2.89,9.14-9.84,15.82-18,8.59-10.49,3.39-21.5-4.74-21.5C138.3,275,135,279.78,133.48,283Z"/><path class="cls-3" d="M88.14,283l0,.1c-1.51-3.26-4.79-8.09-11-8.09-8.06,0-13.23,11-4.7,21.5,6.64,8.18,13,15.14,15.73,18,2.7-2.89,9.14-9.84,15.82-18,8.59-10.49,3.39-21.5-4.74-21.5C93,275,89.66,279.78,88.14,283Z"/><path class="cls-3" d="M43.86,283.09l0,.1c-1.51-3.26-4.79-8.09-11-8.09-8.06,0-13.23,11-4.7,21.5,6.64,8.18,13,15.14,15.73,18,2.7-2.89,9.14-9.84,15.82-18,8.59-10.49,3.39-21.5-4.74-21.5C48.69,275.11,45.38,279.84,43.86,283.09Z"/><path class="cls-3" d="M.16,314.6c2.7-2.89,9.14-9.84,15.82-18,8.59-10.49,3.39-21.5-4.74-21.5-6.22,0-9.52,4.73-11,8l0,.1"/><path class="cls-4" d="M202,330.16l0-.1c1.51,3.26,4.79,8.09,11,8.09,8.06,0,13.23-11,4.7-21.5-6.64-8.18-13-15.14-15.73-18-2.7,2.89-9.14,9.84-15.82,18-8.59,10.49-3.39,21.5,4.74,21.5C197.13,338.14,200.43,333.41,202,330.16Z"/><path class="cls-3" d="M155.33,330.18l0-.1c1.51,3.26,4.79,8.09,11,8.09,8.06,0,13.23-11,4.7-21.5-6.64-8.18-13-15.14-15.73-18-2.7,2.89-9.14,9.84-15.82,18-8.59,10.49-3.39,21.5,4.74,21.5C150.51,338.17,153.81,333.43,155.33,330.18Z"/><path class="cls-3" d="M66.08,263.93l0-.1c1.51,3.26,4.79,8.09,11,8.09,8.06,0,13.23-11,4.7-21.5-6.64-8.18-13-15.14-15.73-18-2.7,2.89-9.14,9.84-15.82,18-8.59,10.49-3.39,21.5,4.74,21.5C61.26,271.91,64.56,267.18,66.08,263.93Z"/><path class="cls-3" d="M110.75,263.93l0-.1c1.51,3.26,4.79,8.09,11,8.09,8.06,0,13.23-11,4.7-21.5-6.64-8.18-13-15.14-15.73-18-2.7,2.89-9.14,9.84-15.82,18-8.59,10.49-3.39,21.5,4.74,21.5C105.93,271.91,109.23,267.18,110.75,263.93Z"/><path class="cls-3" d="M22.09,262.88l0-.1c1.51,3.26,4.79,8.09,11,8.09,8.06,0,13.23-11,4.7-21.5-6.64-8.18-13-15.14-15.73-18-2.7,2.89-9.14,9.84-15.82,18-8.59,10.49-3.39,21.5,4.74,21.5C17.27,270.87,20.57,266.13,22.09,262.88Z"/><path class="cls-3" d="M248.24,262.46l0-.1c1.51,3.26,4.79,8.09,11,8.09,8.06,0,13.23-11,4.7-21.5-6.64-8.18-13-15.14-15.73-18-2.7,2.89-9.14,9.84-15.82,18-8.59,10.49-3.39,21.5,4.74,21.5C243.42,270.44,246.72,265.71,248.24,262.46Z"/><path class="cls-4" d="M202,262.82l0-.1c1.51,3.26,4.79,8.09,11,8.09,8.06,0,13.23-11,4.7-21.5-6.64-8.18-13-15.14-15.73-18-2.7,2.89-9.14,9.84-15.82,18-8.59,10.49-3.39,21.5,4.74,21.5C197.13,270.81,200.43,266.07,202,262.82Z"/><path class="cls-3" d="M155.33,262.85l0-.1c1.51,3.26,4.79,8.09,11,8.09,8.06,0,13.23-11,4.7-21.5-6.64-8.18-13-15.14-15.73-18-2.7,2.89-9.14,9.84-15.82,18-8.59,10.49-3.39,21.5,4.74,21.5C150.51,270.83,153.81,266.1,155.33,262.85Z"/><path class="cls-3" d="M66.08,195.26l0-.1c1.51,3.26,4.79,8.09,11,8.09,8.06,0,13.23-11,4.7-21.5-6.64-8.18-13-15.14-15.73-18-2.7,2.89-9.14,9.84-15.82,18-8.59,10.49-3.39,21.5,4.74,21.5C61.26,203.24,64.56,198.51,66.08,195.26Z"/><path class="cls-3" d="M110.75,195.26l0-.1c1.51,3.26,4.79,8.09,11,8.09,8.06,0,13.23-11,4.7-21.5-6.64-8.18-13-15.14-15.73-18-2.7,2.89-9.14,9.84-15.82,18-8.59,10.49-3.39,21.5,4.74,21.5C105.93,203.24,109.23,198.51,110.75,195.26Z"/><path class="cls-3" d="M22.09,194.22l0-.1c1.51,3.26,4.79,8.09,11,8.09,8.06,0,13.23-11,4.7-21.5-6.64-8.18-13-15.14-15.73-18-2.7,2.89-9.14,9.84-15.82,18-8.59,10.49-3.39,21.5,4.74,21.5C17.27,202.2,20.57,197.47,22.09,194.22Z"/><path class="cls-3" d="M248.24,193.79l0-.1c1.51,3.26,4.79,8.09,11,8.09,8.06,0,13.23-11,4.7-21.5-6.64-8.18-13-15.14-15.73-18-2.7,2.89-9.14,9.84-15.82,18-8.59,10.49-3.39,21.5,4.74,21.5C243.42,201.78,246.72,197,248.24,193.79Z"/><path class="cls-4" d="M202,194.16l0-.1c1.51,3.26,4.79,8.09,11,8.09,8.06,0,13.23-11,4.7-21.5-6.64-8.18-13-15.14-15.73-18-2.7,2.89-9.14,9.84-15.82,18-8.59,10.49-3.39,21.5,4.74,21.5C197.13,202.14,200.43,197.41,202,194.16Z"/><path class="cls-3" d="M155.33,194.18l0-.1c1.51,3.26,4.79,8.09,11,8.09,8.06,0,13.23-11,4.7-21.5-6.64-8.18-13-15.14-15.73-18-2.7,2.89-9.14,9.84-15.82,18-8.59,10.49-3.39,21.5,4.74,21.5C150.51,202.17,153.81,197.43,155.33,194.18Z"/><path class="cls-3" d="M133.53,418.09l0,.1c-1.51-3.26-4.79-8.09-11-8.09-8.06,0-13.23,11-4.7,21.5,6.64,8.18,13,15.14,15.73,18,2.7-2.89,9.14-9.84,15.82-18,8.59-10.49,3.39-21.5-4.74-21.5C138.36,410.11,135.05,414.84,133.53,418.09Z"/><path class="cls-3" d="M87.88,417l0,.1c-1.51-3.26-4.79-8.09-11-8.09-8.06,0-13.23,11-4.7,21.5,6.64,8.18,13,15.14,15.73,18,2.7-2.89,9.14-9.84,15.82-18,8.59-10.49,3.39-21.5-4.74-21.5C92.7,409,89.4,413.78,87.88,417Z"/><path class="cls-3" d="M109.85,464.22l0-.1c1.51,3.26,4.79,8.09,11,8.09,8.06,0,13.23-11,4.7-21.5-6.64-8.18-13-15.14-15.73-18-2.7,2.89-9.14,9.84-15.82,18-8.59,10.49-3.39,21.5,4.74,21.5C105,472.2,108.33,467.47,109.85,464.22Z"/><path class="cls-3" d="M66.52,464.22l0-.1c1.51,3.26,4.79,8.09,11,8.09,8.06,0,13.23-11,4.7-21.5-6.64-8.18-13-15.14-15.73-18-2.7,2.89-9.14,9.84-15.82,18-8.59,10.49-3.39,21.5,4.74,21.5C61.69,472.2,65,467.47,66.52,464.22Z"/><path class="cls-3" d="M22.52,464.22l0-.1c1.51,3.26,4.79,8.09,11,8.09,8.06,0,13.23-11,4.7-21.5-6.64-8.18-13-15.14-15.73-18-2.7,2.89-9.14,9.84-15.82,18-8.59,10.49-3.39,21.5,4.74,21.5C17.69,472.2,21,467.47,22.52,464.22Z"/><path class="cls-4" d="M0,448.54c2.7-2.89,9.14-9.84,15.82-18C24.42,420,19.21,409,11.09,409c-6.22,0-9.52,4.73-11,8l0,.1"/><path class="cls-3" d="M338.44,125.4l0-.1c1.51,3.26,4.79,8.09,11,8.09,8.06,0,13.23-11,4.7-21.5-6.64-8.18-13-15.14-15.73-18-2.7,2.89-9.14,9.84-15.82,18-8.59,10.49-3.39,21.5,4.74,21.5C333.62,133.38,336.92,128.65,338.44,125.4Z"/><path class="cls-3" d="M338.44,56.73l0-.1c1.51,3.26,4.79,8.09,11,8.09,8.06,0,13.23-11,4.7-21.5-6.64-8.18-13-15.14-15.73-18-2.7,2.89-9.14,9.84-15.82,18-8.59,10.49-3.39,21.5,4.74,21.5C333.62,64.71,336.92,60,338.44,56.73Z"/><path class="cls-3" d="M338.44,193.73l0-.1c1.51,3.26,4.79,8.09,11,8.09,8.06,0,13.23-11,4.7-21.5-6.64-8.18-13-15.14-15.73-18-2.7,2.89-9.14,9.84-15.82,18-8.59,10.49-3.39,21.5,4.74,21.5C333.62,201.71,336.92,197,338.44,193.73Z"/><path class="cls-3" d="M338.44,396.88l0-.1c1.51,3.26,4.79,8.09,11,8.09,8.06,0,13.23-11,4.7-21.5-6.64-8.18-13-15.14-15.73-18-2.7,2.89-9.14,9.84-15.82,18-8.59,10.49-3.39,21.5,4.74,21.5C333.62,404.87,336.92,400.13,338.44,396.88Z"/><path class="cls-3" d="M338.44,330.22l0-.1c1.51,3.26,4.79,8.09,11,8.09,8.06,0,13.23-11,4.7-21.5-6.64-8.18-13-15.14-15.73-18-2.7,2.89-9.14,9.84-15.82,18-8.59,10.49-3.39,21.5,4.74,21.5C333.62,338.2,336.92,333.47,338.44,330.22Z"/><path class="cls-3" d="M338.44,262.88l0-.1c1.51,3.26,4.79,8.09,11,8.09,8.06,0,13.23-11,4.7-21.5-6.64-8.18-13-15.14-15.73-18-2.7,2.89-9.14,9.84-15.82,18-8.59,10.49-3.39,21.5,4.74,21.5C333.62,270.87,336.92,266.13,338.44,262.88Z"/><path class="cls-3" d="M338.44,464.22l0-.1c1.51,3.26,4.79,8.09,11,8.09,8.06,0,13.23-11,4.7-21.5-6.64-8.18-13-15.14-15.73-18-2.7,2.89-9.14,9.84-15.82,18-8.59,10.49-3.39,21.5,4.74,21.5C333.62,472.2,336.92,467.47,338.44,464.22Z"/><path class="cls-3" d="M293.44,125.4l0-.1c1.51,3.26,4.79,8.09,11,8.09,8.06,0,13.23-11,4.7-21.5-6.64-8.18-13-15.14-15.73-18-2.7,2.89-9.14,9.84-15.82,18-8.59,10.49-3.39,21.5,4.74,21.5C288.62,133.38,291.92,128.65,293.44,125.4Z"/><path class="cls-3" d="M293.44,56.73l0-.1c1.51,3.26,4.79,8.09,11,8.09,8.06,0,13.23-11,4.7-21.5-6.64-8.18-13-15.14-15.73-18-2.7,2.89-9.14,9.84-15.82,18-8.59,10.49-3.39,21.5,4.74,21.5C288.62,64.71,291.92,60,293.44,56.73Z"/><path class="cls-3" d="M293.44,193.73l0-.1c1.51,3.26,4.79,8.09,11,8.09,8.06,0,13.23-11,4.7-21.5-6.64-8.18-13-15.14-15.73-18-2.7,2.89-9.14,9.84-15.82,18-8.59,10.49-3.39,21.5,4.74,21.5C288.62,201.71,291.92,197,293.44,193.73Z"/><path class="cls-3" d="M293.44,396.88l0-.1c1.51,3.26,4.79,8.09,11,8.09,8.06,0,13.23-11,4.7-21.5-6.64-8.18-13-15.14-15.73-18-2.7,2.89-9.14,9.84-15.82,18-8.59,10.49-3.39,21.5,4.74,21.5C288.62,404.87,291.92,400.13,293.44,396.88Z"/><path class="cls-3" d="M293.44,330.22l0-.1c1.51,3.26,4.79,8.09,11,8.09,8.06,0,13.23-11,4.7-21.5-6.64-8.18-13-15.14-15.73-18-2.7,2.89-9.14,9.84-15.82,18-8.59,10.49-3.39,21.5,4.74,21.5C288.62,338.2,291.92,333.47,293.44,330.22Z"/><path class="cls-3" d="M293.44,262.88l0-.1c1.51,3.26,4.79,8.09,11,8.09,8.06,0,13.23-11,4.7-21.5-6.64-8.18-13-15.14-15.73-18-2.7,2.89-9.14,9.84-15.82,18-8.59,10.49-3.39,21.5,4.74,21.5C288.62,270.87,291.92,266.13,293.44,262.88Z"/><path class="cls-3" d="M293.44,464.22l0-.1c1.51,3.26,4.79,8.09,11,8.09,8.06,0,13.23-11,4.7-21.5-6.64-8.18-13-15.14-15.73-18-2.7,2.89-9.14,9.84-15.82,18-8.59,10.49-3.39,21.5,4.74,21.5C288.62,472.2,291.92,467.47,293.44,464.22Z"/><path class="cls-3" d="M44.1,417l0,.1c-1.51-3.26-4.79-8.09-11-8.09-8.06,0-13.23,11-4.7,21.5,6.64,8.18,13,15.14,15.73,18,2.7-2.89,9.14-9.84,15.82-18C68.48,420,63.27,409,55.14,409,48.93,409,45.62,413.78,44.1,417Z"/><path class="cls-3" d="M270.81,417l0,.1c-1.51-3.26-4.79-8.09-11-8.09-8.06,0-13.23,11-4.7,21.5,6.64,8.18,13,15.14,15.73,18,2.7-2.89,9.14-9.84,15.82-18C295.19,420,290,409,281.85,409,275.63,409,272.33,413.78,270.81,417Z"/><path class="cls-3" d="M314.81,77.21l0,.1c-1.51-3.26-4.79-8.09-11-8.09-8.06,0-13.23,11-4.7,21.5,6.64,8.18,13,15.14,15.73,18,2.7-2.89,9.14-9.84,15.82-18,8.59-10.49,3.39-21.5-4.74-21.5C319.63,69.22,316.33,74,314.81,77.21Z"/><path class="cls-3" d="M314.81,9.54l0,.1c-1.51-3.26-4.79-8.09-11-8.09-8.06,0-13.23,11-4.7,21.5,6.64,8.18,13,15.14,15.73,18,2.7-2.89,9.14-9.84,15.82-18,8.59-10.49,3.39-21.5-4.74-21.5C319.63,1.56,316.33,6.29,314.81,9.54Z"/><path class="cls-3" d="M363.13,77.21l0,.1c-1.51-3.26-4.79-8.09-11-8.09-8.06,0-13.23,11-4.7,21.5,6.64,8.18,13,15.14,15.73,18"/><path class="cls-3" d="M363.13,9.54l0,.1c-1.51-3.26-4.79-8.09-11-8.09-8.06,0-13.23,11-4.7,21.5,6.64,8.18,13,15.14,15.73,18"/><path class="cls-4" d="M363.13,215.21l0,.1c-1.51-3.26-4.79-8.09-11-8.09-8.06,0-13.23,11-4.7,21.5,6.64,8.18,13,15.14,15.73,18"/><path class="cls-3" d="M363.13,146.54s-4.83-8-11.06-8c-8.06,0-13.23,11-4.7,21.5,6.64,8.18,13,15.14,15.73,18"/><path class="cls-3" d="M363.13,350.69l0,.1c-1.51-3.26-4.79-8.09-11-8.09-8.06,0-13.23,11-4.7,21.5,6.64,8.18,13,15.14,15.73,18"/><path class="cls-3" d="M363.28,283.09l0,.1c-1.51-3.26-4.79-8.09-11-8.09-8.06,0-13.23,11-4.7,21.5,6.64,8.18,13,15.14,15.73,18"/><path class="cls-4" d="M363.13,417l0,.1c-1.51-3.26-4.79-8.09-11-8.09-8.06,0-13.23,11-4.7,21.5,6.64,8.18,13,15.14,15.73,18"/><path class="cls-3" d="M314.81,215.21l0,.1c-1.51-3.26-4.79-8.09-11-8.09-8.06,0-13.23,11-4.7,21.5,6.64,8.18,13,15.14,15.73,18,2.7-2.89,9.14-9.84,15.82-18,8.59-10.49,3.39-21.5-4.74-21.5C319.63,207.22,316.33,212,314.81,215.21Z"/><path class="cls-3" d="M314.81,146.54l0,.1c-1.51-3.26-4.79-8.09-11-8.09-8.06,0-13.23,11-4.7,21.5,6.64,8.18,13,15.14,15.73,18,2.7-2.89,9.14-9.84,15.82-18,8.59-10.49,3.39-21.5-4.74-21.5C319.63,138.56,316.33,143.29,314.81,146.54Z"/><path class="cls-3" d="M316,350.68l0,.1c-1.51-3.26-4.79-8.09-11-8.09-8.06,0-13.23,11-4.7,21.5,6.64,8.18,13,15.14,15.73,18,2.7-2.89,9.14-9.84,15.82-18,8.59-10.49,3.39-21.5-4.74-21.5C320.87,342.69,317.56,347.43,316,350.68Z"/><path class="cls-3" d="M314.81,283l0,.1c-1.51-3.26-4.79-8.09-11-8.09-8.06,0-13.23,11-4.7,21.5,6.64,8.18,13,15.14,15.73,18,2.7-2.89,9.14-9.84,15.82-18C339.19,286,334,275,325.85,275,319.63,275,316.33,279.78,314.81,283Z"/><path class="cls-3" d="M314.81,417l0,.1c-1.51-3.26-4.79-8.09-11-8.09-8.06,0-13.23,11-4.7,21.5,6.64,8.18,13,15.14,15.73,18,2.7-2.89,9.14-9.84,15.82-18C339.19,420,334,409,325.85,409,319.63,409,316.33,413.78,314.81,417Z"/><path class="cls-3" d="M248.24,463.79l0-.1c1.51,3.26,4.79,8.09,11,8.09,8.06,0,13.23-11,4.7-21.5-6.64-8.18-13-15.14-15.73-18-2.7,2.89-9.14,9.84-15.82,18-8.59,10.49-3.39,21.5,4.74,21.5C243.42,471.78,246.72,467,248.24,463.79Z"/><path class="cls-3" d="M178.86,417.09l0,.1c-1.51-3.26-4.79-8.09-11-8.09-8.06,0-13.23,11-4.7,21.5,6.64,8.18,13,15.14,15.73,18,2.7-2.89,9.14-9.84,15.82-18,8.59-10.49,3.39-21.5-4.74-21.5C183.69,409.11,180.38,413.84,178.86,417.09Z"/><path class="cls-3" d="M202,464.16l0-.1c1.51,3.26,4.79,8.09,11,8.09,8.06,0,13.23-11,4.7-21.5-6.64-8.18-13-15.14-15.73-18-2.7,2.89-9.14,9.84-15.82,18-8.59,10.49-3.39,21.5,4.74,21.5C197.13,472.14,200.43,467.41,202,464.16Z"/><path class="cls-3" d="M155.33,464.18l0-.1c1.51,3.26,4.79,8.09,11,8.09,8.06,0,13.23-11,4.7-21.5-6.64-8.18-13-15.14-15.73-18-2.7,2.89-9.14,9.84-15.82,18-8.59,10.49-3.39,21.5,4.74,21.5C150.51,472.17,153.81,467.43,155.33,464.18Z"/><path class="cls-4" d="M225.38,417l0,.1c-1.51-3.26-4.79-8.09-11-8.09-8.06,0-13.23,11-4.7,21.5,6.64,8.18,13,15.14,15.73,18,2.7-2.89,9.14-9.84,15.82-18,8.59-10.49,3.39-21.5-4.74-21.5C230.2,409,226.9,413.76,225.38,417Z"/></g></svg>