<svg xmlns="http://www.w3.org/2000/svg" viewBox="0 0 119.18 149"><defs><style>.cls-1,.cls-10,.cls-5,.cls-6,.cls-7{fill:none;}.cls-1,.cls-10{stroke:#fed632;}.cls-1,.cls-10,.cls-5,.cls-6,.cls-9{stroke-miterlimit:10;}.cls-1{stroke-width:8px;}.cls-2{fill:#e5f2f0;}.cls-3{fill:#f2929a;}.cls-4,.cls-9{fill:#07222e;}.cls-5,.cls-6,.cls-7,.cls-9{stroke:#07222e;}.cls-10,.cls-6{stroke-linecap:round;}.cls-7{stroke-linejoin:round;}.cls-8{fill:#f29299;}.cls-9{stroke-width:0.75px;}.cls-10{stroke-width:6px;}</style></defs><title>Player</title><g id="Ebene_3_Kopie" data-name="Ebene 3 Kopie"><path class="cls-1" d="M27.21,137.63l1.67-37.37S34.67,96,38.58,95.5c0,0-1.5-3.62-2.83-7.37A45.69,45.69,0,0,1,34,82l6.06-.5-.15-11.25a7.13,7.13,0,0,1-5.21-4c-2-3.75-2.24-6.76-1.62-9.58.29-1.33.5-2.08.5-2.08a53.59,53.59,0,0,1-8.71-.35c-2.94-.56-10.31-4.44-10.31-4.44s8.12-2.69,11.69-4.12,13.56-5.81,13.56-5.81l2.31-10.15h1a106.85,106.85,0,0,1,3-11.29c.21-.58,2.08-1.62,3.21-1.71a20.29,20.29,0,0,0,3-.21,11.46,11.46,0,0,0,4-2.37,10.37,10.37,0,0,1,5.46-2.21A16.25,16.25,0,0,1,69.42,13c3.38,1.46,4.92,2.58,6.08,2.58a11.23,11.23,0,0,0,5.75-1.83c.22-.12.75-.69,1,.44S84.58,24,84.63,30.54h1l2.13,13.77s7,4.19,16.13,15.69L93.06,57.25s1.56,4.56.69,8.25a7.54,7.54,0,0,1-3.94,5.38,22.83,22.83,0,0,1-3.12,1l.06,9.38,6.13.72a76.87,76.87,0,0,0-4.62,15.75,18.16,18.16,0,0,1,7.83,2.58l1.54,37.26"/></g><g id="Ebene_2_Kopie_2" data-name="Ebene 2 Kopie 2"><path class="cls-2" d="M38.79,95.75c.33-.08-3.5-9.22-4.37-13.58a57.94,57.94,0,0,1,5.84-.55l3.06-.21v.17l.17,3.17,6,1.08-.42,6.84-3.58.41.17,6.34-7.17,1.66L39,96l-1.62.17v0C37.82,96,38.3,95.87,38.79,95.75Z"/><path class="cls-3" d="M28.11,121.17l.6-12.39h.17l2.37,1.5,5-5-3.75-2.62L35,99.42l-2.12-1.5a27.28,27.28,0,0,1,4.49-1.77v0L39,96l-.5,5.08,7.17-1.66-.17-6.34,3.58-.41.42-6.84-6-1.08-.17-3.17v-.17c8-.54,18.64-1.16,18.64-1.16V99.46l-3-6.54-6.38,4.87L56,104.42l-7.88,2.12v2h-.37l-5.5-2.75-4.63,5.13,1.26,7.25L44.75,123l-5,5.38L37.4,129l-1.28-5.32-2.74,1.25L33,119.67l-4.88,1.5Z"/><path class="cls-2" d="M40.05,70.48l0-2.56h0A22.1,22.1,0,0,0,47.46,69,20.84,20.84,0,0,0,57,66.42c1.66-.75,4.91-2.75,7.5-2.75s6.42,2.41,7.83,3.16,4.67,4.09,8.92,4.09,5.5-1.25,5.5-1.25h.05l0,2.36.1,9.49c-6.6-.15-14.88.14-20,.36-2.91.13-4.8.24-4.8.24H62V80.25s-10.59.62-18.64,1.16l-3.06.21v-.08Z"/><path class="cls-4" d="M33.79,54.65a41.93,41.93,0,0,1-9.67-.48c-3.19-.76-9.66-4.34-9.66-4.34A189.81,189.81,0,0,0,40,40s40.35,1.35,47.66,4.33l.11.05c4.58,2,16.56,16.12,16.56,16.12s-5-1.34-11-3.13c-2.13-.64-4.38-1.34-6.57-2A95.06,95.06,0,0,1,77,51.67C69.13,48,66.79,49.83,56.46,52a141.59,141.59,0,0,1-16.72,2.3C37.68,54.47,35.67,54.59,33.79,54.65Z"/><polygon class="cls-2" points="97.33 127.53 97.75 137.83 74.44 137.83 74.44 137.79 76.75 130.04 84.5 130.67 83.25 125.92 83.13 125.53 89.5 123.54 89.62 128.67 94.62 128.92 97.12 127.54 97.33 127.53"/><polygon class="cls-4" points="96.59 109.04 97.33 127.53 97.12 127.54 94.62 128.92 89.62 128.67 89.5 123.54 83.13 125.53 79.12 126.79 76.38 117.79 85.5 114.79 82.5 111.92 85 110.04 84.88 107.67 90.75 102.92 93 109.17 96.59 109.04"/><path class="cls-3" d="M86.88,81.52c1.81,0,3.49.11,5,.23.26,0-2.71,10.42-3.45,16.17a21.9,21.9,0,0,1,7.87,2.5l.34,8.62-3.59.13-2.25-6.25-5.87,4.75L85,110l-2.5,1.88,3,2.87-9.12,3,2.74,9,4-1.26.12.39,1.25,4.75L76.75,130l-2.31,7.75v0H62v-4h0l2.69-1.39,1.81-.61,4.62-1.25-1.5-4.25,5.13-2-2.87-7.62-4,1.75L65.12,116,62,120.17h0V86.67h0l2.5,1.25,3.25-2.75-1-1.5.13-1.75v0C72,81.66,80.28,81.37,86.88,81.52Zm-1.59,20.06,3.09-7.5-6.26-1.91L83,86.33l-9.34-1.5-.83,7-5.91,0-.82,1.38-1,9.16,4.5.34-.16,6.16,11-.33L80,102l2.16,1.25Z"/><path class="cls-4" d="M93.25,57.42c1.37,3.62,1,8.66-.5,11.12C91,71.33,87.17,72,86.78,72l0-2.36-.14-14.13.07-.22c2.19.71,4.44,1.41,6.57,2Z"/><polygon class="cls-2" points="88.38 94.08 85.29 101.58 82.12 103.25 79.96 102 80.38 108.5 69.38 108.83 69.54 102.67 65.04 102.33 66.06 93.17 66.88 91.79 72.79 91.83 73.62 84.83 82.96 86.33 82.12 92.17 88.38 94.08"/><path class="cls-3" d="M84.79,30.9l1,0,2.08,13.25-.1.21-.11-.05C80.31,41.35,40,40,40,40l2.29-10.21.94,0Z"/><path class="cls-4" d="M86.62,55.54l.14,14.13h-.05s-1.25,1.25-5.5,1.25-7.5-3.34-8.92-4.09S67,63.67,64.46,63.67s-5.84,2-7.5,2.75A20.84,20.84,0,0,1,47.46,69,22.1,22.1,0,0,1,40,67.92h0l-.25-13.5V54.3A141.59,141.59,0,0,0,56.46,52c10.33-2.17,12.67-4,20.5-.33a95.06,95.06,0,0,0,9.73,3.65Z"/><path class="cls-4" d="M82.21,13.58c2.57,10.93,2.58,16.9,2.58,17.32l-41.6-1.09v0C44.75,22.92,46.38,18.1,46.62,18c3.58-1.79,3.19-.75,6.19-1.44S56.75,12.23,63,12s9.94,3.44,12.81,3.69S82.12,13.23,82.21,13.58Z"/><polygon class="cls-4" points="61.96 130.64 61.96 120.17 62 120.17 65.12 116.04 67.88 118.42 71.88 116.67 74.75 124.29 69.62 126.29 71.12 130.54 66.5 131.79 64.69 132.4 62 133.79 61.96 133.79 61.96 130.64"/><path class="cls-4" d="M66.75,83.67l1,1.5L64.5,87.92,62,86.67h0V82.12h.12s1.89-.11,4.8-.24v0Z"/><polygon class="cls-4" points="61.96 133.79 61.96 137.83 48.88 137.83 48.88 137.79 51 132.42 55.25 132.67 58.75 128.17 61.96 130.64 61.96 133.79"/><polygon class="cls-3" points="61.96 120.17 61.96 130.64 58.75 128.17 55.25 132.67 51 132.42 50.5 130.04 52.25 122.04 58 124.17 60.12 118.54 58.25 116.67 58.25 116.58 59.12 116.54 61.75 114.04 61.96 114.04 61.96 120.17"/><polygon class="cls-4" points="61.96 99.46 61.96 114.04 61.75 114.04 59.12 116.54 58.25 116.58 54.12 116.79 52.62 113.92 48.12 113.67 48.12 108.54 48.12 106.54 56 104.42 52.62 97.79 59 92.92 61.96 99.46"/><polygon class="cls-2" points="60.12 118.54 58 124.17 52.25 122.04 50.5 130.04 39.75 128.42 44.75 123.04 38.88 118.17 37.62 110.92 42.25 105.79 47.75 108.54 48.12 108.54 48.12 113.67 52.62 113.92 54.12 116.79 58.25 116.58 58.25 116.67 60.12 118.54"/><polygon class="cls-3" points="50.5 130.04 51 132.42 48.88 137.79 48.88 137.83 38 137.83 38 137.67 39.25 135.29 34.12 132.04 37.75 130.42 37.4 128.99 39.75 128.42 50.5 130.04"/><path class="cls-4" d="M40,67.92l0,2.56c-.12,0-3.11,0-5.74-5.25a13.78,13.78,0,0,1-.52-10.58c1.88-.06,3.89-.18,6-.35v.12Z"/><polygon class="cls-2" points="39.25 135.29 38 137.67 38 137.83 27.31 137.83 27.31 137.67 28.11 121.17 28.12 121.17 33 119.67 33.38 124.92 36.12 123.67 37.4 128.99 37.75 130.42 34.12 132.04 39.25 135.29"/><path class="cls-4" d="M36.25,105.29l-5,5-2.37-1.5h-.17l.41-8.45a18.1,18.1,0,0,1,3.76-2.41L35,99.42l-2.5,3.25Z"/><path class="cls-5" d="M40,40a189.81,189.81,0,0,1-25.5,9.83s6.47,3.58,9.66,4.34a41.93,41.93,0,0,0,9.67.48c1.88-.06,3.89-.18,6-.35A141.59,141.59,0,0,0,56.46,52c10.33-2.17,12.67-4,20.5-.33a95.06,95.06,0,0,0,9.73,3.65c2.19.71,4.44,1.41,6.57,2,6,1.79,11,3.13,11,3.13s-12-14.11-16.56-16.12l-.11-.05C80.31,41.35,40,40,40,40Z"/><polyline class="cls-5" points="87.83 44.17 85.75 30.92 84.79 30.9 43.19 29.81 42.25 29.79 39.96 40"/><path class="cls-5" d="M84.79,30.92v0c0-.42,0-6.39-2.58-17.32-.09-.35-3.52,2.4-6.4,2.15S69.25,11.85,63,12s-7.19,3.81-10.19,4.5S50.2,16.19,46.62,18c-.24.12-1.87,4.94-3.43,11.81"/><polyline class="cls-5" points="39.75 54.42 40 67.92 40.05 70.48 40.25 81.54"/><polyline class="cls-5" points="86.62 55.54 86.76 69.67 86.78 72.03 86.88 81.52 86.88 81.79"/><polyline class="cls-6" points="17.79 137.83 27.31 137.83 38 137.83 48.88 137.83 61.96 137.83 74.44 137.83 97.75 137.83 107.12 137.83"/><path class="cls-5" d="M27.31,137.67l.8-16.5.6-12.39.41-8.45a18.1,18.1,0,0,1,3.76-2.41,27.28,27.28,0,0,1,4.49-1.77c.45-.14.93-.28,1.42-.4.33-.08-3.5-9.22-4.37-13.58a57.94,57.94,0,0,1,5.84-.55l3.06-.21c8-.54,18.64-1.16,18.64-1.16v57.58"/><path class="cls-5" d="M62.08,82.12s1.89-.11,4.8-.24c5.12-.22,13.4-.51,20-.36,1.81,0,3.49.11,5,.23.26,0-2.71,10.42-3.45,16.17a21.9,21.9,0,0,1,7.87,2.5l.34,8.62.74,18.49.42,10.3v.09"/><path class="cls-5" d="M40,67.92A22.1,22.1,0,0,0,47.46,69,20.84,20.84,0,0,0,57,66.42c1.66-.75,4.91-2.75,7.5-2.75s6.42,2.41,7.83,3.16,4.67,4.09,8.92,4.09,5.5-1.25,5.5-1.25"/><path class="cls-5" d="M40.06,70.48h0c-.12,0-3.11,0-5.74-5.25a13.78,13.78,0,0,1-.52-10.58l0,0"/><path class="cls-5" d="M86.75,72h0c.39,0,4.22-.7,6-3.49,1.54-2.46,1.87-7.5.5-11.12"/><polyline class="cls-7" points="37.38 96.17 39 96 38.5 101.08 45.67 99.42 45.5 93.08 49.08 92.67 49.5 85.83 43.5 84.75 43.33 81.58"/><polyline class="cls-7" points="61.96 99.46 59 92.92 52.62 97.79 56 104.42 48.12 106.54 48.12 108.54 48.12 113.67 52.62 113.92 54.12 116.79 58.25 116.58 59.12 116.54 61.75 114.04"/><polyline class="cls-7" points="47.75 108.54 42.25 105.79 37.62 110.92 38.88 118.17 44.75 123.04 39.75 128.42 50.5 130.04 52.25 122.04 58 124.17 60.12 118.54 58.25 116.67"/><polyline class="cls-7" points="28.12 121.17 33 119.67 33.38 124.92 36.12 123.67 37.4 128.99 37.75 130.42 34.12 132.04 39.25 135.29 38 137.67"/><polyline class="cls-7" points="28.88 108.79 31.25 110.29 36.25 105.29 32.5 102.67 35 99.42 32.88 97.92"/><polyline class="cls-7" points="62 130.67 61.96 130.64 58.75 128.17 55.25 132.67 51 132.42 48.88 137.79"/><polyline class="cls-7" points="66.06 93.17 65.04 102.33 69.54 102.67 69.38 108.83 80.38 108.5 79.96 102 82.12 103.25 85.29 101.58 88.38 94.08 82.12 92.17 82.96 86.33 73.62 84.83 72.79 91.83 66.88 91.79"/><polyline class="cls-7" points="96.62 109.04 96.59 109.04 93 109.17 90.75 102.92 84.88 107.67 85 110.04 82.5 111.92 85.5 114.79 76.38 117.79 79.12 126.79 83.13 125.53 89.5 123.54 89.62 128.67 94.62 128.92 97.12 127.54"/><polyline class="cls-7" points="83.25 125.92 84.5 130.67 76.75 130.04 74.44 137.79"/><polyline class="cls-7" points="62 120.17 65.12 116.04 67.88 118.42 71.88 116.67 74.75 124.29 69.62 126.29 71.12 130.54 66.5 131.79"/><line class="cls-5" x1="64.69" y1="132.4" x2="62" y2="133.79"/><polyline class="cls-7" points="62 86.67 64.5 87.92 67.75 85.17 66.75 83.67 66.88 81.92"/><path class="cls-8" d="M59.08,102.31q-.51-.7-.95-1.43a2.09,2.09,0,0,1-.41-.74,1.68,1.68,0,0,1,.11-.95.07.07,0,0,1,.09,0h0a1.68,1.68,0,0,1,.73.61,2.09,2.09,0,0,1,.22.82q.19.83.3,1.69a.05.05,0,0,1-.09,0Z"/><path class="cls-8" d="M57.39,107.71q-.67.48-1.38.89a1.9,1.9,0,0,1-.71.37,1.57,1.57,0,0,1-.91-.14.07.07,0,0,1,0-.09,1.57,1.57,0,0,1,.59-.7,1.9,1.9,0,0,1,.79-.19q.8-.16,1.62-.23a.05.05,0,0,1,0,.09Z"/><path class="cls-8" d="M59.17,110.32q-.25.8-.58,1.56a2,2,0,0,1-.35.74,1.61,1.61,0,0,1-.82.45.07.07,0,0,1-.08-.05,1.61,1.61,0,0,1,.06-.93c.08-.27.34-.43.52-.63q.55-.62,1.17-1.19a.05.05,0,0,1,.08.05Z"/><path class="cls-4" d="M40.42,90.9q.43.72.77,1.47a1.94,1.94,0,0,1,.32.75,1.6,1.6,0,0,1-.21.9.07.07,0,0,1-.1,0,1.6,1.6,0,0,1-.65-.66,1.94,1.94,0,0,1-.12-.81q-.09-.82-.1-1.66a.05.05,0,0,1,.1,0Z"/><path class="cls-4" d="M38.62,88.41a9.8,9.8,0,0,1-1.1.59c-.19.08-.36.25-.57.22a1.14,1.14,0,0,1-.68-.31.09.09,0,0,1,0-.1,1.14,1.14,0,0,1,.49-.57c.18-.11.4,0,.61,0a9.8,9.8,0,0,1,1.25.09.05.05,0,0,1,0,.1Z"/><path class="cls-4" d="M42.56,88.66a10.59,10.59,0,0,1,1.28.25c.21.05.45,0,.61.19a1.19,1.19,0,0,1,.36.68.08.08,0,0,1,0,.09A1.19,1.19,0,0,1,44,90c-.22,0-.35-.24-.52-.37a10.6,10.6,0,0,1-1-.88.05.05,0,0,1,0-.07Z"/><path class="cls-4" d="M41.53,87.12a11.32,11.32,0,0,1,1.15-.71c.2-.1.37-.29.6-.28a1.24,1.24,0,0,1,.75.24.08.08,0,0,1,0,.1,1.24,1.24,0,0,1-.5.62c-.19.13-.43.07-.65.09a11.32,11.32,0,0,1-1.35,0,.05.05,0,0,1,0-.1Z"/><path class="cls-4" d="M39.32,85.93a11.31,11.31,0,0,1-.43-1.28c-.06-.21-.2-.42-.14-.65a1.24,1.24,0,0,1,.41-.68.08.08,0,0,1,.1,0,1.24,1.24,0,0,1,.49.62c.09.21,0,.44-.06.66a11.31,11.31,0,0,1-.27,1.32.05.05,0,0,1-.1,0Z"/><path class="cls-4" d="M49.55,119.67a13.52,13.52,0,0,1,.29,1.45,1.54,1.54,0,0,1,.07.72,1.38,1.38,0,0,1-.48.7.08.08,0,0,1-.1,0,1.38,1.38,0,0,1-.42-.74c-.06-.24.08-.48.13-.71a13.51,13.51,0,0,1,.41-1.42.05.05,0,0,1,.07,0A.05.05,0,0,1,49.55,119.67Z"/><path class="cls-4" d="M47.8,119.56a9.55,9.55,0,0,1,0,1.24c0,.2,0,.43-.09.59a1.13,1.13,0,0,1-.61.42.09.09,0,0,1-.09,0,1.13,1.13,0,0,1-.24-.7c0-.21.18-.36.28-.53a9.55,9.55,0,0,1,.71-1,.05.05,0,0,1,.09,0Z"/><path class="cls-4" d="M52.15,117.75a10.71,10.71,0,0,1,1.25.39c.2.08.45.08.59.26a1.2,1.2,0,0,1,.29.72.08.08,0,0,1-.05.08,1.2,1.2,0,0,1-.78,0c-.22-.05-.32-.28-.48-.43a10.72,10.72,0,0,1-.87-1,.05.05,0,0,1,0-.07Z"/><path class="cls-4" d="M46,115.84a13.58,13.58,0,0,1-1.41.47c-.24.06-.46.21-.71.16a1.38,1.38,0,0,1-.76-.39.08.08,0,0,1,0-.1,1.38,1.38,0,0,1,.68-.51,1.55,1.55,0,0,1,.73,0,13.58,13.58,0,0,1,1.47.22.05.05,0,0,1,0,.06A.05.05,0,0,1,46,115.84Z"/><path class="cls-4" d="M45.73,113.59a15.81,15.81,0,0,1-1.54-.44,1.82,1.82,0,0,1-.74-.29,1.53,1.53,0,0,1-.47-.77.07.07,0,0,1,0-.09,1.53,1.53,0,0,1,.9,0c.26.06.43.3.64.46a15.79,15.79,0,0,1,1.21,1.06.05.05,0,0,1,0,.07Z"/><path class="cls-4" d="M46.58,112.07a11.53,11.53,0,0,1-1-.94c-.15-.16-.38-.28-.43-.51a1.25,1.25,0,0,1,0-.8.08.08,0,0,1,.09-.05,1.25,1.25,0,0,1,.73.33c.18.15.18.4.26.61a11.53,11.53,0,0,1,.39,1.31.05.05,0,0,1,0,.06Z"/><path class="cls-4" d="M31.63,135.62a11.53,11.53,0,0,1,1.35-.22c.22,0,.45-.13.67,0a1.25,1.25,0,0,1,.61.51.08.08,0,0,1,0,.1,1.25,1.25,0,0,1-.7.39c-.23.05-.43-.1-.65-.16a11.52,11.52,0,0,1-1.28-.47.05.05,0,0,1,0-.07A.05.05,0,0,1,31.63,135.62Z"/><path class="cls-4" d="M31.23,131a13.94,13.94,0,0,1,1.26-.83c.21-.12.4-.33.65-.34A1.41,1.41,0,0,1,34,130a.08.08,0,0,1,0,.09,1.41,1.41,0,0,1-.53.67,1.59,1.59,0,0,1-.72.16,13.93,13.93,0,0,1-1.49.17.05.05,0,0,1,0-.09Z"/><path class="cls-4" d="M30.84,129.25a13.29,13.29,0,0,1,.91-1.15c.16-.18.27-.43.5-.52a1.36,1.36,0,0,1,.84-.08.08.08,0,0,1,.06.08,1.36,1.36,0,0,1-.29.79c-.14.2-.41.25-.62.36a13.29,13.29,0,0,1-1.34.6.05.05,0,0,1-.07,0A.05.05,0,0,1,30.84,129.25Z"/><path class="cls-8" d="M59.45,134.92a8.92,8.92,0,0,1-.53-1.07c-.07-.18-.23-.35-.19-.55a1.09,1.09,0,0,1,.35-.64.09.09,0,0,1,.1,0,1.09,1.09,0,0,1,.54.49c.1.18,0,.38,0,.58a8.92,8.92,0,0,1-.16,1.18.05.05,0,0,1-.06,0Z"/><path class="cls-8" d="M57.85,136.34a8.62,8.62,0,0,1-1.16-.19c-.19,0-.41,0-.54-.16a1.07,1.07,0,0,1-.3-.65.09.09,0,0,1,0-.09,1.07,1.07,0,0,1,.7-.15c.2,0,.31.22.46.34a8.61,8.61,0,0,1,.84.81.05.05,0,0,1,0,.08Z"/><path class="cls-8" d="M30.28,104.12a7.62,7.62,0,0,1,1.06.27c.17.06.39,0,.49.2a1,1,0,0,1,.19.66.09.09,0,0,1-.05.08,1,1,0,0,1-.68.1c-.19,0-.26-.24-.38-.37a7.61,7.61,0,0,1-.69-.86.05.05,0,0,1,0-.08Z"/><path class="cls-4" d="M76.42,98.42q.22.81.35,1.63a2,2,0,0,1,.1.81,1.6,1.6,0,0,1-.45.81.07.07,0,0,1-.1,0,1.6,1.6,0,0,1-.45-.81A2,2,0,0,1,76,100q.13-.81.35-1.63a.05.05,0,0,1,.1,0Z"/><path class="cls-4" d="M74,98.31a15.38,15.38,0,0,1-.24,1.57,1.76,1.76,0,0,1-.19.76,1.5,1.5,0,0,1-.7.55.07.07,0,0,1-.09,0,1.5,1.5,0,0,1-.14-.88c0-.27.24-.46.37-.68A15.38,15.38,0,0,1,74,98.27a.05.05,0,0,1,.09,0Z"/><path class="cls-4" d="M73.12,96.09a11.46,11.46,0,0,1-1.33.29c-.22,0-.45.15-.66.07A1.25,1.25,0,0,1,70.5,96a.08.08,0,0,1,0-.1,1.25,1.25,0,0,1,.68-.42c.22-.06.43.08.65.13a11.46,11.46,0,0,1,1.3.41.05.05,0,0,1,0,.1Z"/><path class="cls-4" d="M78.51,96a11.06,11.06,0,0,1,1.33,0c.22,0,.46-.06.65.06a1.22,1.22,0,0,1,.52.59.08.08,0,0,1,0,.1,1.22,1.22,0,0,1-.73.28c-.23,0-.4-.16-.6-.25a11.06,11.06,0,0,1-1.17-.65.05.05,0,0,1,0-.07Z"/><path class="cls-4" d="M77.83,94.14a13.51,13.51,0,0,1,.52-1.39c.1-.22.13-.49.32-.65a1.38,1.38,0,0,1,.78-.34.08.08,0,0,1,.08.06,1.38,1.38,0,0,1,0,.85c-.07.24-.32.36-.49.54a13.52,13.52,0,0,1-1.1,1,.05.05,0,0,1-.08-.06Z"/><path class="cls-4" d="M74.58,93.67a15.72,15.72,0,0,1-.35-1.56,1.81,1.81,0,0,1-.1-.78,1.52,1.52,0,0,1,.45-.78.07.07,0,0,1,.1,0,1.52,1.52,0,0,1,.45.78,1.81,1.81,0,0,1-.1.78,15.72,15.72,0,0,1-.35,1.56.05.05,0,0,1-.1,0Z"/><path class="cls-4" d="M85.12,135.47q-1,0-2,0a2.84,2.84,0,0,1-1-.09,2.1,2.1,0,0,1-.88-.63.07.07,0,0,1,0-.09h0a2.1,2.1,0,0,1,1.05-.25,2.84,2.84,0,0,1,.95.29q.94.32,1.87.72a.05.05,0,0,1,0,.1Z"/><path class="cls-4" d="M90,133.06a13.58,13.58,0,0,1-.77-1.27c-.11-.22-.31-.41-.31-.66a1.38,1.38,0,0,1,.21-.82.08.08,0,0,1,.1,0,1.38,1.38,0,0,1,.65.55,1.55,1.55,0,0,1,.12.72A13.58,13.58,0,0,1,90,133a.05.05,0,0,1-.05.05Z"/><path class="cls-4" d="M93.08,133.65q0-.84.1-1.66a1.94,1.94,0,0,1,.12-.81,1.6,1.6,0,0,1,.65-.66.07.07,0,0,1,.1,0,1.6,1.6,0,0,1,.21.9,1.94,1.94,0,0,1-.32.75q-.35.75-.77,1.47a.05.05,0,0,1-.1,0Z"/><path class="cls-8" d="M93.67,119.79q.28.83.47,1.66a2.11,2.11,0,0,1,.16.84,1.69,1.69,0,0,1-.39.88.07.07,0,0,1-.1,0h0a1.69,1.69,0,0,1-.51-.81,2.11,2.11,0,0,1,0-.85q.07-.85.22-1.71a.05.05,0,0,1,.1,0Z"/><path class="cls-8" d="M89,117.84a11.06,11.06,0,0,1-1.17.65c-.2.09-.37.27-.6.25a1.22,1.22,0,0,1-.73-.28.08.08,0,0,1,0-.1,1.22,1.22,0,0,1,.52-.59c.19-.12.43,0,.65-.06a11.06,11.06,0,0,1,1.33,0,.05.05,0,0,1,0,.1Z"/><path class="cls-8" d="M89.47,115.08a11,11,0,0,1-1.18-.62c-.19-.11-.43-.16-.54-.36a1.22,1.22,0,0,1-.16-.77.08.08,0,0,1,.07-.07,1.22,1.22,0,0,1,.78.11c.21.09.27.33.4.51a11,11,0,0,1,.7,1.13.05.05,0,0,1,0,.07Z"/><path class="cls-8" d="M91.83,113.44a12,12,0,0,1-.82-1.12c-.12-.19-.33-.35-.34-.59a1.28,1.28,0,0,1,.17-.79.08.08,0,0,1,.09,0,1.28,1.28,0,0,1,.67.46c.15.18.11.44.16.66a12,12,0,0,1,.18,1.38.05.05,0,0,1,0,.06Z"/><path class="cls-8" d="M94.61,115.87a8.47,8.47,0,0,1,1-.65c.16-.09.31-.27.5-.25a1.06,1.06,0,0,1,.66.28.09.09,0,0,1,0,.1,1.06,1.06,0,0,1-.4.59c-.16.12-.37,0-.56.06a8.48,8.48,0,0,1-1.16,0,.05.05,0,0,1,0-.1Z"/><path class="cls-8" d="M67,122.38a14.82,14.82,0,0,1,1-1.21c.17-.19.29-.45.53-.55a1.46,1.46,0,0,1,.87-.12.07.07,0,0,1,.06.08,1.46,1.46,0,0,1-.31.82c-.15.21-.43.27-.66.39a14.82,14.82,0,0,1-1.4.66.05.05,0,0,1-.06-.08Z"/><path class="cls-8" d="M65.92,125.77a6.86,6.86,0,0,1,.75.72c.11.13.3.21.31.39a1,1,0,0,1-.18.64.1.1,0,0,1-.09,0,1,1,0,0,1-.62-.24c-.14-.11-.1-.32-.13-.48a6.86,6.86,0,0,1-.12-1,.05.05,0,0,1,.05-.06Z"/><path class="cls-8" d="M63.67,126.16a7.92,7.92,0,0,1,.41,1c.05.17.19.34.13.53a1,1,0,0,1-.42.56.09.09,0,0,1-.1,0,1,1,0,0,1-.48-.5c-.08-.17,0-.36.07-.54a7.92,7.92,0,0,1,.29-1.08.05.05,0,0,1,.07,0Z"/><path class="cls-8" d="M64.45,121.67a8.71,8.71,0,0,1-.35-1.12c0-.19-.17-.37-.1-.56a1.08,1.08,0,0,1,.45-.56.09.09,0,0,1,.1,0A1.08,1.08,0,0,1,65,120c.07.19-.06.38-.1.56a8.71,8.71,0,0,1-.35,1.13.05.05,0,0,1-.07,0Z"/><path class="cls-4" d="M61,59.17c-.13,2.44-.23,4.89-.38,7.33l-.41,7.33-.43-.55c1.25.17,2.5.39,3.74.65.62.12,1.24.28,1.85.43s1.23.32,1.84.5V75c-.64,0-1.28,0-1.91-.06s-1.27-.07-1.9-.14c-1.26-.11-2.52-.26-3.76-.47l-.49-.08.05-.47.84-7.29c.26-2.43.58-4.86.87-7.29Z"/><circle class="cls-9" cx="66.06" cy="92.23" r="0.94"/><circle class="cls-9" cx="65.69" cy="111.23" r="0.94"/><circle class="cls-9" cx="65.62" cy="132.4" r="0.94"/></g><g id="Ebene_9" data-name="Ebene 9"><line class="cls-10" x1="16" y1="138.83" x2="108.83" y2="138.83"/></g><g id="Ebene_11" data-name="Ebene 11"><ellipse class="cls-2" cx="50" cy="61.25" rx="3" ry="2.75"/><ellipse class="cls-2" cx="78.25" cy="61.25" rx="3" ry="2.75"/><polygon class="cls-4" points="38.88 95.15 50.83 97.9 38.7 96.14 38.88 95.15"/><polygon class="cls-4" points="88.47 98.41 77.5 100 88.28 97.43 88.47 98.41"/></g></svg>