<?xml version="1.0" standalone="no"?>
<!DOCTYPE svg PUBLIC "-//W3C//DTD SVG 20010904//EN"
 "http://www.w3.org/TR/2001/REC-SVG-20010904/DTD/svg10.dtd">
<svg version="1.0" xmlns="http://www.w3.org/2000/svg"
 width="1500.000000pt" height="1500.000000pt" viewBox="0 0 1500.000000 1500.000000"
 preserveAspectRatio="xMidYMid meet">
<metadata>
Created by potrace 1.11, written by Peter Selinger 2001-2013
</metadata>
<g transform="translate(0.000000,1500.000000) scale(0.100000,-0.100000)"
fill="#000000" stroke="none">
<path d="M7040 14589 c-1481 -87 -2808 -590 -3255 -1232 l-60 -86 -1062 0
-1063 -1 0 -1322 c0 -780 -4 -1389 -10 -1483 -46 -724 -218 -1304 -510 -1718
-83 -117 -232 -267 -335 -336 -44 -29 -78 -56 -76 -60 3 -3 34 -28 70 -56 402
-304 691 -903 806 -1675 50 -335 49 -283 55 -1710 6 -1338 6 -1345 28 -1426
101 -382 394 -690 773 -814 173 -57 215 -60 786 -60 l521 0 4 -332 c4 -331 4
-333 30 -407 68 -189 223 -331 443 -408 l80 -27 555 -7 c625 -7 799 -21 1150
-90 689 -136 1186 -394 1478 -768 58 -73 67 -82 77 -66 38 66 140 192 210 260
358 348 947 563 1770 646 61 6 378 14 705 18 l595 7 80 27 c220 76 375 219
443 408 26 74 26 76 30 406 l4 333 521 0 c425 0 538 3 610 15 462 81 824 407
948 855 l24 85 3 1333 c1 857 6 1332 12 1332 6 0 10 17 10 38 0 61 38 348 65
499 131 706 413 1252 790 1529 36 26 65 51 65 54 0 3 -15 14 -32 24 -68 40
-198 148 -267 223 -282 305 -488 811 -580 1424 -56 370 -55 325 -58 1842 l-3
1407 -1063 1 -1062 0 -59 85 c-419 602 -1619 1088 -2996 1214 -328 29 -918 39
-1250 19z m327 -1730 c85 -26 138 -160 99 -252 -18 -44 -85 -100 -138 -117
l-43 -14 48 -7 c85 -13 110 -39 162 -170 32 -81 56 -119 75 -119 6 0 19 13 28
30 19 33 21 34 40 21 33 -20 -45 -122 -104 -137 -45 -12 -123 2 -148 25 -12
12 -39 64 -60 115 -49 125 -87 183 -132 202 -19 8 -45 12 -56 8 -20 -6 -20
-11 -14 -136 4 -72 10 -136 12 -143 7 -16 49 -35 79 -35 20 0 25 -5 25 -25 0
-19 -5 -25 -22 -26 -13 0 -99 -6 -191 -12 l-168 -13 3 24 c2 18 13 28 37 36
19 6 39 18 44 27 7 11 4 110 -10 313 -23 333 -23 336 -95 336 -31 0 -38 3 -38
20 0 24 4 25 190 41 80 7 174 15 210 19 70 7 116 4 167 -11z m845 -28 c26 -13
52 -29 58 -36 9 -11 18 -9 47 11 20 13 41 23 47 21 15 -5 25 -67 25 -164 1
-106 -2 -113 -50 -113 -34 0 -39 3 -39 23 0 13 -7 48 -16 77 -42 142 -200 194
-295 99 -63 -63 -84 -148 -84 -339 0 -147 1 -158 26 -205 30 -59 72 -90 133
-99 90 -14 176 35 232 130 23 39 27 42 49 32 l24 -11 -20 -39 c-32 -62 -94
-124 -150 -147 -67 -29 -170 -30 -263 -1 -58 18 -79 31 -126 78 -72 73 -94
136 -93 267 2 210 73 362 198 422 45 22 60 24 150 20 77 -3 111 -9 147 -26z
m-1605 -149 l31 -103 -25 -10 c-37 -14 -40 -12 -65 33 -13 23 -39 53 -58 66
-30 21 -43 23 -92 18 -69 -7 -126 -29 -135 -52 -6 -17 31 -193 49 -226 11 -22
28 -23 72 -1 37 17 53 46 58 102 2 28 8 36 30 42 31 8 24 27 76 -183 20 -78
26 -118 18 -118 -6 0 -21 -3 -33 -6 -16 -4 -23 0 -28 15 -13 41 -55 81 -85 81
-48 0 -80 -17 -80 -42 1 -42 58 -251 72 -259 37 -24 163 12 214 62 33 32 54
90 54 148 0 29 3 31 35 31 21 0 35 -5 35 -12 1 -7 7 -61 14 -120 l12 -107
-314 -77 c-256 -62 -316 -74 -323 -63 -13 21 -11 39 5 39 24 0 66 41 66 64 0
27 -115 508 -131 548 -12 30 -58 53 -94 46 -20 -4 -26 -1 -31 19 -4 13 -5 25
-3 27 11 9 615 152 620 147 4 -3 20 -52 36 -109z m2348 14 c86 -22 143 -53
199 -106 98 -92 135 -224 102 -363 -58 -248 -241 -380 -463 -333 -147 30 -242
96 -295 203 -30 61 -32 74 -32 157 1 153 68 310 166 389 76 61 211 83 323 53z
m641 -232 c87 -41 160 -77 162 -79 2 -2 1 -13 -3 -24 l-6 -21 -41 21 c-47 24
-54 19 -63 -46 -13 -96 -54 -519 -51 -522 4 -4 357 362 369 384 14 24 0 57
-33 76 -32 19 -35 24 -21 46 7 10 35 0 135 -47 119 -57 126 -62 114 -81 -9
-15 -16 -17 -29 -10 -42 22 -60 8 -305 -228 -135 -131 -265 -255 -288 -275
l-44 -38 -47 27 c-46 26 -47 27 -42 67 17 132 59 705 54 728 -4 15 -16 36 -27
46 -19 18 -19 52 0 52 4 0 79 -34 166 -76z m-3891 -9 c67 -32 128 -103 179
-206 112 -228 90 -376 -72 -482 -37 -24 -158 -85 -268 -134 l-202 -91 -11 24
c-6 13 -7 24 -2 24 18 0 71 52 71 68 0 10 -55 141 -123 292 l-122 275 -55 -2
c-40 -1 -57 3 -66 15 -15 20 -9 32 14 32 9 0 100 41 203 91 102 50 208 97 235
104 65 19 169 14 219 -10z m-815 -326 c0 -5 -10 -19 -21 -30 -17 -17 -20 -30
-17 -64 4 -34 37 -88 181 -298 97 -141 178 -261 181 -265 3 -5 0 -16 -7 -25
-11 -14 -28 -12 -172 23 -88 22 -242 59 -341 83 l-182 44 92 -135 c121 -180
143 -202 192 -202 22 0 46 4 54 10 16 10 40 -5 40 -24 -1 -6 -52 -45 -114 -87
-107 -72 -114 -76 -129 -59 -14 17 -14 20 4 36 13 12 19 30 19 59 0 38 -16 66
-161 278 -177 259 -178 261 -244 217 l-30 -19 -11 21 c-11 20 -6 26 75 81 l86
60 215 -54 c118 -29 256 -62 306 -74 l91 -22 -89 131 c-107 156 -130 178 -178
173 -19 -2 -43 -7 -52 -11 -11 -5 -20 -1 -27 12 -9 17 2 28 101 95 86 59 114
74 125 66 7 -6 13 -15 13 -20z m5675 -212 c127 -87 236 -165 243 -172 12 -10
4 -28 -42 -101 -31 -49 -60 -89 -64 -88 -4 0 -19 4 -34 8 -26 8 -27 9 -14 40
40 97 26 153 -56 214 -70 53 -97 60 -124 30 -34 -37 -124 -173 -124 -186 0
-17 60 -52 88 -52 27 0 73 22 91 44 12 14 16 14 43 -5 16 -12 26 -24 21 -28
-8 -6 -26 -30 -127 -174 l-47 -67 -28 16 c-26 15 -27 19 -15 43 31 63 29 78
-15 122 -22 22 -46 39 -53 37 -21 -7 -158 -209 -158 -234 0 -26 57 -79 114
-105 66 -30 122 -25 191 16 l59 36 22 -23 22 -23 -82 -88 -83 -88 -234 162
c-316 218 -301 206 -289 228 9 18 12 18 55 2 44 -16 45 -16 69 9 14 14 92 123
175 244 101 147 151 227 151 245 0 32 -25 71 -46 71 -12 0 -13 4 -2 23 7 12
11 26 10 31 -4 12 11 2 283 -187z m-6429 -338 c-36 -52 -27 -68 149 -250 179
-186 215 -240 215 -318 -1 -64 -30 -122 -97 -193 -72 -75 -137 -109 -220 -116
-106 -8 -128 6 -317 198 -91 93 -174 174 -185 180 -22 11 -43 6 -81 -20 -24
-17 -26 -17 -41 4 -15 20 -12 25 123 156 138 134 139 135 158 115 18 -20 18
-21 -1 -44 -41 -51 -31 -70 131 -237 82 -86 166 -169 185 -184 98 -78 199 -60
261 46 21 36 26 54 21 90 -7 66 -53 126 -225 297 -159 158 -171 164 -227 127
-27 -18 -31 -18 -48 -3 -17 16 -13 21 80 115 96 96 98 98 117 79 17 -18 17
-21 2 -42z m7112 -202 c177 -149 208 -237 123 -354 -56 -78 -154 -95 -253 -45
l-54 27 28 -44 c42 -67 38 -109 -22 -228 -27 -54 -50 -108 -50 -121 0 -28 23
-38 54 -24 20 9 25 7 34 -13 10 -22 8 -24 -34 -34 -73 -19 -137 6 -184 71 -17
23 -30 54 -30 71 0 16 25 82 55 147 33 70 58 138 62 167 5 46 3 53 -26 84
l-31 34 -95 -97 c-103 -105 -112 -126 -75 -178 19 -27 19 -27 -1 -46 -20 -18
-22 -16 -154 116 -132 132 -134 135 -116 153 18 19 19 19 49 -3 20 -15 38 -21
54 -17 13 4 116 103 231 221 222 231 230 244 184 290 -18 17 -21 27 -13 39 9
14 23 5 91 -61 44 -42 122 -112 173 -155z m-1639 -543 c112 -83 317 -294 384
-395 76 -114 140 -253 172 -369 30 -111 43 -295 27 -380 -6 -30 -9 -56 -8 -57
1 -1 42 5 91 13 125 21 338 21 450 -1 343 -64 590 -304 719 -697 19 -58 44
-153 55 -211 20 -103 46 -375 37 -384 -2 -3 -28 14 -57 37 -29 23 -93 62 -142
87 -88 44 -305 123 -339 123 -16 0 -16 -3 2 -32 32 -52 69 -181 76 -265 19
-232 -109 -545 -308 -755 l-59 -63 6 36 c8 50 -12 169 -42 254 -36 99 -121
263 -196 376 -61 92 -160 229 -163 226 -1 -1 3 -49 8 -107 12 -134 -4 -319
-38 -438 -80 -277 -266 -466 -551 -561 -86 -29 -213 -51 -213 -38 0 4 13 39
29 79 44 112 116 341 146 462 84 346 88 708 10 954 -30 96 -72 192 -83 192 -4
0 -26 -18 -47 -40 -21 -22 -47 -40 -56 -40 -10 0 -56 9 -104 20 -47 12 -125
27 -172 33 l-86 13 -13 63 c-8 35 -25 99 -39 142 -15 43 -24 83 -20 88 3 6 35
28 72 50 l66 39 -70 35 c-89 45 -245 100 -353 123 -120 27 -457 27 -580 1
-125 -26 -271 -73 -368 -118 -47 -22 -89 -38 -93 -37 -11 4 42 162 76 228 134
264 382 443 709 510 48 11 90 21 93 24 16 15 -105 135 -235 234 -84 64 -309
215 -409 276 -35 21 -63 41 -63 46 0 13 118 48 204 61 103 17 299 5 426 -25
256 -60 548 -189 817 -362 l82 -53 15 47 c8 26 20 76 26 112 13 82 32 463 24
484 -10 26 5 19 85 -40z m-4245 -126 c9 -161 41 -383 68 -464 19 -58 23 -63
39 -52 282 204 548 348 789 427 146 48 223 62 372 68 119 5 151 3 233 -16 52
-12 97 -26 99 -30 3 -4 -48 -44 -112 -89 -247 -172 -460 -351 -533 -447 -21
-28 -39 -54 -39 -57 0 -3 36 -11 80 -17 425 -63 732 -309 841 -675 10 -33 23
-35 -139 23 -331 119 -685 126 -1007 20 -94 -31 -296 -128 -302 -145 -1 -5 27
-25 63 -44 36 -19 68 -38 70 -42 2 -4 -7 -49 -20 -102 -14 -52 -28 -118 -32
-146 -4 -27 -9 -50 -11 -50 -22 0 -214 -45 -277 -64 l-80 -25 -53 45 -53 46
-19 -46 c-66 -153 -95 -333 -88 -546 11 -301 90 -614 248 -975 27 -63 49 -116
49 -119 0 -14 -106 -4 -192 18 -307 78 -511 266 -606 556 -36 107 -44 167 -51
347 l-6 172 -55 -82 c-121 -184 -212 -362 -265 -528 -23 -68 -28 -104 -29
-186 -1 -57 -4 -103 -8 -103 -4 0 -37 33 -73 73 -273 302 -378 621 -293 895
11 37 27 79 34 95 8 15 10 27 5 27 -5 0 -49 -14 -98 -31 -128 -45 -288 -130
-366 -194 l-67 -55 0 122 c0 413 114 756 324 977 191 200 429 282 774 268 81
-4 157 -9 168 -13 22 -6 22 -6 7 58 -21 89 -13 315 15 420 59 220 177 422 351
602 79 81 218 206 230 206 4 0 11 -55 15 -122z m3660 -1575 c8 -31 35 -176 41
-228 4 -27 8 -61 11 -75 l5 -25 182 0 c100 0 190 -4 200 -8 16 -6 6 -21 -66
-99 -47 -51 -97 -108 -113 -125 l-29 -33 -115 30 c-63 17 -151 35 -196 42
l-81 12 -12 60 c-7 34 -28 110 -48 169 -24 72 -32 112 -26 118 19 19 228 178
235 178 4 1 9 -7 12 -16z m-2936 -95 c110 -74 123 -86 119 -108 -3 -14 -19
-78 -36 -144 -17 -65 -31 -131 -31 -147 0 -16 -6 -31 -12 -33 -7 -2 -49 -11
-93 -21 -44 -10 -127 -33 -184 -51 l-104 -33 -113 117 c-63 64 -114 120 -114
123 0 12 186 34 287 34 l102 0 6 65 c17 180 33 280 43 280 4 0 62 -37 130 -82z
m2646 -199 c9 -39 24 -126 33 -192 l18 -120 77 6 c109 9 358 -13 358 -31 0 -4
-33 -48 -73 -97 -39 -50 -83 -105 -97 -123 l-26 -33 -44 16 c-74 26 -169 46
-280 59 l-104 12 -9 44 c-10 58 -63 220 -93 287 l-23 52 112 95 c62 52 117 95
123 95 7 1 19 -31 28 -70z m-2335 -26 c64 -47 117 -87 119 -88 1 -1 -16 -56
-37 -122 -22 -66 -45 -156 -53 -201 l-12 -82 -44 0 c-59 0 -179 -26 -289 -62
l-91 -30 -35 39 c-143 160 -175 199 -169 204 15 15 223 42 324 43 l106 0 7 76
c7 84 33 278 40 298 2 6 7 12 11 12 4 0 59 -39 123 -87z m316 -244 c77 -60
146 -116 153 -123 12 -12 6 -27 -36 -97 -52 -86 -111 -212 -133 -285 l-13 -41
-151 4 c-96 3 -187 0 -253 -9 l-103 -14 -70 82 c-64 77 -80 104 -61 104 4 0
61 9 127 20 66 11 166 20 221 20 l102 0 6 78 c14 158 51 372 64 372 4 0 70
-50 147 -111z m1743 15 c17 -69 29 -135 58 -321 l5 -33 87 6 c126 9 376 -18
369 -39 -2 -6 -30 -47 -62 -91 l-59 -81 -201 0 c-110 0 -226 -4 -257 -9 -47
-7 -58 -6 -58 5 0 26 -101 223 -157 307 l-56 84 24 23 c73 72 275 243 280 237
4 -4 16 -43 27 -88z m-1472 -246 c45 -48 140 -157 172 -199 11 -14 2 -31 -58
-110 -40 -53 -99 -151 -136 -225 l-65 -130 -77 14 c-56 10 -115 12 -212 7 -74
-4 -151 -8 -171 -8 -36 -2 -37 -1 -132 141 l-95 142 72 0 c91 0 313 -26 389
-45 32 -8 62 -15 67 -15 4 0 14 24 20 53 34 141 146 427 168 427 4 0 30 -24
58 -52z m1130 -13 c37 -64 106 -225 139 -325 16 -47 31 -89 35 -93 4 -4 51 4
106 17 123 31 424 75 424 62 0 -3 -17 -32 -37 -64 -21 -32 -60 -98 -87 -147
l-50 -90 -190 0 c-148 -1 -205 -4 -251 -17 -32 -10 -59 -16 -60 -15 0 1 -17
36 -39 77 -52 101 -133 223 -195 292 -28 31 -51 61 -51 66 0 18 207 282 222
282 4 0 19 -20 34 -45z m-834 -350 c63 -88 168 -250 168 -259 0 -3 -23 -27
-51 -53 -28 -26 -79 -90 -114 -143 -63 -95 -145 -252 -145 -278 0 -8 -7 -11
-17 -8 -67 20 -172 28 -298 23 -77 -3 -147 -8 -155 -11 -11 -5 -42 42 -125
186 -61 106 -112 197 -114 202 -9 21 358 -22 462 -54 34 -11 62 -18 64 -17 1
2 16 43 33 92 61 175 200 440 220 418 4 -4 37 -48 72 -98z m643 -75 c47 -80
133 -259 156 -323 9 -27 18 -37 29 -33 139 47 285 78 438 92 l73 7 -100 -202
-101 -201 -149 0 c-132 0 -230 -11 -316 -35 -17 -5 -24 4 -44 51 -38 87 -151
252 -225 327 -37 37 -71 67 -77 67 -5 0 -9 7 -9 15 0 17 89 174 168 295 l55
85 29 -35 c16 -19 49 -69 73 -110z m-420 -275 c17 -30 33 -55 36 -55 4 0 12
14 19 30 16 38 25 38 63 -2 63 -68 160 -246 224 -413 19 -49 37 -93 39 -96 2
-4 30 4 63 17 32 13 97 33 143 44 94 22 290 52 297 45 2 -3 -14 -44 -36 -92
-23 -49 -39 -89 -38 -91 2 -2 70 27 151 63 192 86 223 99 228 94 21 -22 409
-772 417 -807 6 -26 11 -111 11 -190 -1 -165 -7 -156 117 -178 319 -57 1169
49 1419 176 102 52 218 64 300 32 l44 -17 239 -450 c131 -247 239 -454 239
-459 0 -12 -78 -370 -86 -399 -13 -42 -220 -113 -416 -144 -154 -24 -531 -24
-668 0 -118 21 -264 21 -490 2 -297 -27 -453 -51 -521 -81 -121 -54 -179 -163
-179 -333 0 -147 12 -186 87 -275 l64 -76 -6 -54 c-11 -82 -10 -81 -107 -67
-131 20 -288 32 -343 25 -34 -4 -94 -29 -185 -75 -98 -51 -141 -68 -158 -63
-18 5 -102 166 -448 858 -234 468 -427 852 -428 853 -1 1 -18 -35 -38 -80 -20
-45 -126 -287 -236 -537 -109 -250 -268 -615 -352 -810 -84 -195 -157 -361
-163 -367 -19 -25 -72 -12 -191 45 l-121 57 -117 -2 c-84 -1 -149 -9 -232 -27
-63 -14 -122 -26 -130 -26 -17 0 -24 18 -32 84 -6 52 -6 53 50 125 31 41 60
85 64 100 4 14 7 80 7 146 0 93 -4 131 -19 170 -39 103 -111 172 -210 200 -81
22 -331 39 -606 39 -212 1 -269 -2 -340 -17 -280 -61 -600 -69 -850 -21 -97
18 -227 58 -253 76 -12 9 -37 81 -72 208 -30 107 -55 200 -55 207 0 7 96 218
213 470 l213 458 45 23 c39 20 55 23 139 20 81 -3 108 -9 186 -40 318 -128
1234 -172 1486 -71 36 14 39 19 34 44 -12 64 -17 238 -8 294 7 43 61 169 192
450 100 214 183 391 185 393 2 2 65 -21 142 -51 171 -68 313 -118 313 -111 0
3 -36 71 -80 151 -44 81 -80 150 -80 153 0 19 306 -21 423 -55 45 -13 85 -21
88 -17 3 4 25 62 48 130 52 154 133 320 184 378 21 24 42 44 46 44 4 0 20 -25
36 -55z"/>
<path d="M7110 12801 c-12 -8 -14 -29 -12 -103 2 -52 6 -116 10 -143 l7 -50
45 3 c98 6 130 40 130 137 0 62 -17 111 -49 139 -24 22 -108 32 -131 17z"/>
<path d="M8822 12633 c-113 -55 -222 -426 -167 -568 20 -53 62 -89 126 -106
130 -35 230 67 289 297 55 211 26 329 -92 378 -48 20 -114 20 -156 -1z"/>
<path d="M5418 12366 c-53 -19 -88 -44 -88 -62 0 -17 221 -514 245 -550 20
-31 39 -30 104 2 129 65 142 198 41 409 -83 173 -187 242 -302 201z"/>
<path d="M11063 11263 c-51 -54 -93 -103 -93 -110 0 -21 91 -83 122 -83 81 0
185 118 171 195 -7 34 -61 95 -86 95 -14 0 -53 -34 -114 -97z"/>
<path d="M8445 6804 c-77 -35 -173 -76 -214 -91 -71 -27 -74 -30 -102 -85 -16
-32 -29 -63 -29 -70 0 -15 308 -597 329 -622 39 -45 91 -61 201 -61 90 0 116
4 187 29 l82 29 7 75 c4 42 4 119 1 171 l-5 96 -157 295 c-86 162 -158 295
-158 296 -1 0 -65 -28 -142 -62z"/>
<path d="M6365 6462 l-140 -297 1 -110 c0 -60 4 -140 8 -177 l8 -68 66 -21
c40 -12 106 -23 162 -26 80 -4 104 -2 151 16 31 12 66 32 79 46 12 13 93 176
180 362 185 395 182 375 60 412 -55 17 -300 107 -420 155 -12 4 -47 -62 -155
-292z"/>
</g>
</svg>
