<svg id="Ebene_17" data-name="Ebene 17" xmlns="http://www.w3.org/2000/svg" viewBox="0 0 66.98 94"><defs><style>.cls-1{fill:#600000;}.cls-2{fill:#380000;}</style></defs><title>Blut_02</title><g id="Ebene_15" data-name="Ebene 15"><path class="cls-1" d="M49,72.1C48,64.21,40.48,54.49,46,48.46s12.07-8,13.08-16.6-1.51-13.58-6.54-16.1-14.59-5-16.1,3.52S19,18.6,13.65,24.67c-6,6.79-.33,12.85-4.85,20.9s1.51,26.53,6,33.07,7.55,8,16.6,9.05S50,79.64,49,72.1Z"/><path class="cls-1" d="M25.11,18.5c6.06,3.63,8.93-5.17,6.58-8S25.11,3,21.83,6.29,20.42,15.69,25.11,18.5Z"/><path class="cls-2" d="M15.23,79.25s6.18,5.39,11.12,5.5c3.83.08,7.21-1.41,10.29-4.5s3.9-5.26,4-11.44S38.4,60.5,37.9,56.67,38,47.5,41.15,44.83s8.76-6.7,10.92-9.67c4.17-5.75,4-12,2.58-15.33-.92-2.21-1-3-1.92-4a13.24,13.24,0,0,1,5.65,5.33c2.56,4.13,2,7.52,1.69,9.94a15.58,15.58,0,0,1-4.31,9.31c-2.87,3.06-9.56,7.44-10.62,10.44s-1.37,4.25.13,8.44S48.07,66.46,49,70.71A12.19,12.19,0,0,1,46.19,81.4c-2.19,2.31-5.94,6.88-12.62,6.69s-12.93-1.56-16.25-5.75C16.52,81.33,15.23,79.25,15.23,79.25Z"/><path class="cls-2" d="M23.62,17.45s2.67,3.41,5.73,2.23A5.77,5.77,0,0,0,33,14c0-1.64,0-3.44-3.61-6.14,0,0,1.67,4.61.29,7S26.26,18.36,23.62,17.45Z"/></g></svg>