<svg id="Ebene_17" data-name="Ebene 17" xmlns="http://www.w3.org/2000/svg" viewBox="0 0 98.5 88"><defs><style>.cls-1{fill:#600000;}.cls-2{fill:#380000;}</style></defs><title>Blut_01</title><g id="Ebene_14" data-name="Ebene 14"><path class="cls-1" d="M84.33,26.5c-2.83-5.1-9.33-3-11.33,1s-1.67,9.67,2.67,10,7-4,9-5.67S86,29.5,84.33,26.5Z"/><path class="cls-1" d="M44.5,12c-1.39-.62-4.25.25-4.5,2.25s-.5,3.75,2.25,4.5S48.75,17.25,48,16,46.75,13,44.5,12Z"/><path class="cls-1" d="M70,40.5c-2-10-2-9.33-.33-16.33s-.67-8.33-3.33-8-4,.33-7,4.33-4.67,5-6.67,4-3.33-5.33-9-1.67-15,5.33-15.67,9.33-1.67,2.67,1.67,11.67S35,58.5,31.67,63.5s-4.55,6.57,0,10.67c3.33,3,7,4,14.33-4s8.33-12,15.67-12.67S71,45.5,70,40.5Z"/><path class="cls-1" d="M26.25,56.75c2.42-6.65-.25-10-2.5-13.25s-2.5-1.75-6-2-7.5,1.75-9.25,7.25-1.25,4.75.5,8.5,4.25,2.25,7.5,3.5S25.25,59.5,26.25,56.75Z"/><path class="cls-2" d="M30.5,65.17S26.67,68.33,28,71s1.17,3.33,4,5,6.33,3.83,9.33.5,7.83-9.83,11-12.83,4.17-4.33,7-5,8.5-2.5,9.33-6,3.67-5.67,1.83-14-2-8.34-1.53-11.51a18.26,18.26,0,0,0-1.8,11c.83,6.67-1.17,11.17-4.5,13s-7.5.5-12.83,3.5a37.06,37.06,0,0,0-10.5,8.83C37,66.17,34.67,68.83,30.5,65.17Z"/><path class="cls-2" d="M71.88,31.5s-.31,3,.94,4.44a4.8,4.8,0,0,0,6.88.81,31.86,31.86,0,0,0,4.25-3.81c.88-.75,2.5-2.19,2.25-3.06A17.85,17.85,0,0,0,84.1,26.1c-.44-.46.9,4-1.23,5.08s-6.25,2.56-8,1.81S72.75,32.56,71.88,31.5Z"/><path class="cls-2" d="M10.46,59.25a9.34,9.34,0,0,0,2.81,1.5c1.11.39,1.63.58,2.42.78a5.72,5.72,0,0,0,4.06-.11c2.33-.75,6.13-1.33,6.88-4.42s1.13-4,.71-6.08a13.27,13.27,0,0,0-2-5.14s.45,7.3-4.09,10.18A18.11,18.11,0,0,1,10.46,59.25Z"/><path class="cls-2" d="M40.82,18.11s1,1.23,3.47.94a5.81,5.81,0,0,0,4-2,2.1,2.1,0,0,0-.42-1.62c-.54-.79-1.24-1.91-1.49-2.16a3.66,3.66,0,0,0-.67-.48s1.28,2.54.34,3.69A5.75,5.75,0,0,1,40.82,18.11Z"/></g></svg>