<svg xmlns="http://www.w3.org/2000/svg" viewBox="0 0 194 203.51"><defs><style>.cls-1,.cls-2{fill:#07222e;}.cls-1,.cls-2,.cls-3,.cls-5{stroke:#f29299;}.cls-1,.cls-3,.cls-5{stroke-miterlimit:10;}.cls-1,.cls-2,.cls-3{stroke-width:2px;}.cls-2{stroke-linejoin:round;}.cls-3{fill:none;}.cls-4,.cls-5{fill:#f29299;}</style></defs><title>Infobuch</title><g id="Ebene_24" data-name="Ebene 24"><polyline class="cls-1" points="53 31.11 153.5 31.11 153.5 173.51 53 173.51"/><path class="cls-2" d="M32,181V34.51S33.5,25,42.5,25,53,31.11,53,31.11l0,142.4s-2.33-3.83-10.54-3C34,171.38,32,181,32,181Z"/><path class="cls-3" d="M32,146.84a13.85,13.85,0,0,1,9.88-7.08A12.36,12.36,0,0,1,53,143.3"/><path class="cls-3" d="M32,132.26a13.47,13.47,0,0,1,9.88-7.08A13.32,13.32,0,0,1,53,128.72"/><path class="cls-3" d="M32,75.54a14.34,14.34,0,0,1,9.88-7.08C49.25,67.09,53,72,53,72"/><path class="cls-3" d="M32,61.88a13,13,0,0,1,9.88-7.08C49.17,53.93,53,58.34,53,58.34"/><polygon class="cls-4" points="152.33 178.84 53 177.84 152.33 176.84 152.33 178.84"/><polygon class="cls-4" points="149.31 182.96 46.51 180.07 149.34 180.96 149.31 182.96"/><polygon class="cls-4" points="147.26 186.89 40.74 182.13 147.34 184.89 147.26 186.89"/><g id="Ebene_9" data-name="Ebene 9"><path class="cls-5" d="M103.24,53.16c-5.25,0-9.55,4.6-9.55,10.28s4.25,10.28,9.55,10.28,9.55-4.6,9.55-10.28S108.49,53.16,103.24,53.16Zm-.39,19.18c-4.43,0-6.81-3.73-6.81-8.9s2.69-9,7.12-9,7.2,3.95,7.2,9.11S107.28,72.34,102.85,72.34Z"/><path class="cls-5" d="M108.71,140.08l2.43-49.43,9.11-.09.69-8.12-37.58.39,1,7.12L96,90.22l1,50-9.76,1.74,1.13,5.38,33.59,1.52.56-7Zm11.54,6.6-30.81-.74v-3l9.72-1.78L97.51,88.87l-11.59-.61-.09-4.08,33.72.61-.39,3.95-10,.74-2.52,52.34L120.3,143v3.65Z"/></g></g></svg>