<?xml version="1.0" encoding="utf-8"?>
<!-- Generator: Adobe Illustrator 22.1.0, SVG Export Plug-In . SVG Version: 6.00 Build 0)  -->
<svg version="1.1" id="Layer_1" xmlns="http://www.w3.org/2000/svg" xmlns:xlink="http://www.w3.org/1999/xlink" x="0px" y="0px"
	 viewBox="0 0 188.9 198" style="enable-background:new 0 0 188.9 198;" xml:space="preserve">
<style type="text/css">
	.st0{fill:#FDD632;}
	.st1{fill:#07212E;}
	.st2{fill:#F19198;}
	.st3{fill:#E5F2F0;}
	.st4{fill:none;}
</style>
<title>test</title>
<g id="Ebene_25">
	<g id="Ebene_8">
		<g>
			<circle class="st0" cx="95.3" cy="104.5" r="24.4"/>
		</g>
	</g>
	<g id="Ebene_5">
		<g>
			<path class="st1" d="M56.2,106.8c1.8-12,12.8-40.5,23.8-55.2s15.1-21,15.1-21s16.9,22.8,24.4,33s17.7,42.2,17.5,52.5
				s1.3,19.5-8.5,22.3s-27.5,5.2-40.2,4.5s-26.5,4.4-30.2-6.6S56.2,106.8,56.2,106.8z"/>
		</g>
	</g>
	<g id="Ebene_7">
		<g>
			<path class="st2" d="M97,138.3l-4-0.3c0-1.7-0.3-3.3-0.8-4.9c-0.6-1.3-1.7-2.3-3-2.9l-0.2-0.1c-1.7-1-4.2-0.8-7.2,0.4
				c-3.3,1.3-6.9,1.9-10.4,1.8c-4.6,0.2-8.8-2.4-10.7-6.7c-3.8-7.9,1.6-24,3.4-29.3c0.1-0.4,0.3-0.8,0.3-1
				c0.9-2.9,8.4-22.2,9.9-26.4c-0.5-1.4-1.1-3.9,0.1-5.7c0.8-1.1,2-1.2,3.2-1.2c1.1-0.1,2.1-0.2,2.3-0.6c0.3-0.6,0-1.3-0.4-2.3
				c-0.4-1.1-1-2.5-0.1-3.9c0.9-1.4,2.5-1.5,3.5-1.5c1.2,0,1.6-0.1,1.9-0.5c0.3-0.3,0.2-0.7-0.2-1.8c-0.3-1-0.9-2.5,0.2-3.8
				c1.1-1.4,2.6-1.1,3.3-1c0.1,0,0.3,0.1,0.4,0.1c0.1-0.1,0.2-0.2,0.4-0.5c0.4-0.8,0.3-1.3,0-1.9c-0.1-0.4-0.3-0.9-0.3-1.5
				c0.1-1,0.5-1.5,0.9-2.1c0.1-0.2,0.3-0.5,0.6-0.8c0.2-0.3,0.9-1.4,0.9-1.4l0.1-0.1L95,33l4.8,6.8c0.3,0.5,0.6,0.8,0.9,1
				c0.5,0.5,1.1,1.1,1.2,2.2c0.1,0.6-0.1,1.1-0.3,1.5c-0.2,0.6-0.4,1.1,0,1.9c0.2,0.3,0.3,0.5,0.4,0.5c0.1,0,0.3,0,0.4-0.1
				c0.7-0.1,2.2-0.4,3.3,1c1,1.3,0.5,2.8,0.2,3.8c-0.4,1.1-0.4,1.5-0.2,1.8c0.3,0.4,0.7,0.5,1.9,0.5c1,0,2.6,0.1,3.5,1.5
				c0.9,1.4,0.3,2.8-0.1,3.9c-0.4,1-0.6,1.7-0.4,2.3c0.2,0.4,1.2,0.5,2.3,0.6c1.2,0.1,2.4,0.2,3.1,1.2c1.3,1.8,0.7,4.3,0.1,5.8
				c1.6,4.1,9,23.5,10,26.4l0.2,0.6c4.5,13.9,5.5,23.7,2.9,29.2c-2.5,5.3-6.9,7.1-10.1,7.1c-3.5,0-7-0.6-10.3-1.7
				c-4.4-1.5-6.4-0.9-7.2-0.7c-1.7,0.8-3.2,2.2-4,3.9L97,138.3z M90.9,126.6c1.8,0.8,3.3,2.1,4.4,3.8c1.3-1.7,2.9-3,4.8-3.9l0.2-0.1
				c1.8-0.6,4.6-1.1,9.9,0.6c2.9,1,5.9,1.6,9,1.5c0.7,0,4.3-0.2,6.5-4.9c1.5-3.1,2.1-10.1-3.1-26.2l-0.2-0.6
				c-1-3-10.1-26.7-10.2-26.9l-0.3-0.8l0.4-0.8c0.3-0.7,0.5-1.5,0.6-2.1c-0.1,0-0.1,0-0.1,0c-1.6-0.1-4.5-0.3-5.7-3
				c-0.9-2.1-0.2-4,0.3-5.3c-1.3,0-3.3-0.2-4.8-2.1c-1.4-1.8-1-3.8-0.6-5c-1.1,0-2.7-0.5-3.9-2.7c-1-2-0.7-3.7-0.4-4.6
				c-0.4-0.3-0.8-0.8-1.3-1.6L95,39.8l-0.5,0.7c-0.1,0.2-0.7,1.2-0.9,1.4c-0.3,0.4-0.5,0.7-0.7,1c0,0,0,0.1-0.1,0.1
				c0.3,0.9,0.8,2.7-0.3,4.9c-1.1,2.2-2.7,2.7-3.8,2.7c0.4,1.2,0.8,3.2-0.6,5c-1.4,1.9-3.4,2.1-4.8,2.1c0.5,1.3,1.2,3.2,0.3,5.3
				c-1.2,2.7-4.1,2.9-5.7,3c0,0-0.1,0-0.1,0c0.1,0.6,0.3,1.4,0.6,2.1l0.3,0.8l-0.3,0.8c-0.1,0.2-9.2,23.9-10.2,26.9
				c-0.1,0.3-0.2,0.6-0.3,1c-4.4,13.1-5.6,22-3.6,26.3c1.3,2.8,4,4.5,7,4.3l0.1,0l0.1,0c3,0.2,6-0.3,8.8-1.5
				C84.6,125.2,88.1,125.1,90.9,126.6z M77.1,66.2L77.1,66.2L77.1,66.2z M102.1,46.9L102.1,46.9L102.1,46.9z M88.6,46.7L88.6,46.7
				L88.6,46.7z"/>
		</g>
	</g>
	<g id="Ebene_4">
		<g>
			<path class="st2" d="M95,183.7H73.4l3.2-5.3c0,0,2.3-3.8,6-10.8c2.4-4.4,3.9-9.2,4.4-14.2c0.1-1.3,0.2-2.2,0.2-2.9
				c-0.6,0.5-1.4,1.3-2.3,2.4c-2.5,3-4.4,4.9-11.4,7.6c-5.6,2.2-11.6,1.8-14.8,1.6c-0.6,0-1.4-0.1-1.7-0.1c-0.1,0-0.4,0.2-0.8,0.4
				c-0.8,0.5-2.1,1.3-3.9,1.4c-1.5,0.1-2.6-0.2-3.3-0.4c-0.3-0.1-0.5-0.1-0.7-0.2c-1.1,0.6-2.3,0.9-4.5,0.8
				c-1.7-0.1-3.4-0.6-4.8-1.4c-0.8,0.3-1.7,0.5-2.5,0.6c-2.5,0.2-4.8-0.6-6.7-2.3c-2.3-2.1-2.8-5.3-3.2-7.8
				c-0.1-0.4-0.1-0.9-0.2-1.3c-1.4,0.1-3.8-0.1-5.8-2.5c-2.2-2.7-1.4-6.4-0.9-8.8c0-0.2,0.1-0.5,0.2-0.7c-0.3-0.4-0.7-1-1-1.4
				c-0.7-0.8-1.3-1.6-1.7-2.5l-0.1-0.3c-0.5-1.2-0.8-2.5-1-3.8c-0.7-1.8-1.1-3.7-1.2-5.7c-0.1-0.8,0.1-2,0.4-4.1
				c0.1-0.5,0.1-1.1,0.2-1.7c-1.3-1-3.1-2.8-3.1-5.9c0-3.4,2.5-6.9,4.9-10.2c0.6-0.8,1.2-1.6,1.7-2.4c3.7-5.6,7.9-11.1,12.2-16.3
				c4.9-5.7,14.9-12.8,21.4-17.6c1.8-1.3,3.4-2.5,4.2-3.1C60.2,62.2,74,48.1,76.8,45c3.3-3.6,8.9-11.3,11.5-14.9
				c-1.1-1.7-2.6-4-3.1-5.1c-1-1.7-1.8-3.6-2.5-5.5L82.6,19c-0.6-3.5,1-5.1,2-5.8c1.6-1.1,4.3-1.2,7,1.7c0.6,0.7,2,2.9,3.5,5.4
				c0.3-0.5,0.6-0.9,0.7-1.1c0.3-0.5,0.6-1,0.9-1.5l0.5-0.9c1.1-1.7,3.5-5.6,7.3-4.1c1.9,0.8,3.8,3,2.9,6.7
				c-0.4,1.6-1.5,3.9-5.5,10.5l-0.1,0.2c2.8,3.6,9.7,12.6,11.6,14.9c2.5,2.9,16.5,17,19.9,19.7c0.8,0.6,2.4,1.8,4.2,3.1
				c6.2,4.5,16.5,11.9,21.5,17.5c4.4,5.2,8.5,10.7,12.3,16.4c0.5,0.8,1.1,1.7,1.8,2.6c2.4,3.3,4.8,6.6,4.8,10c0,3.1-1.8,4.9-3.1,5.9
				c0.1,0.5,0.1,1,0.2,1.5c0.3,2.2,0.4,3.4,0.4,4.3c-0.2,2-0.6,3.9-1.3,5.7c-0.2,1.3-0.5,2.6-0.9,3.8l-0.1,0.3
				c-0.4,0.8-1,1.6-1.7,2.4c-0.3,0.4-0.8,1-1.1,1.4c0,0.2,0.1,0.5,0.2,0.7c0.5,2.5,1.4,6.2-0.9,8.8c-2,2.4-4.4,2.6-5.8,2.5
				c-0.1,0.4-0.2,0.9-0.2,1.3c-0.4,2.5-0.9,5.7-3.2,7.8c-1.8,1.7-4.2,2.5-6.7,2.3c-0.9-0.1-1.8-0.3-2.6-0.6
				c-1.5,0.9-3.1,1.4-4.8,1.4c-2.2,0.1-3.5-0.2-4.5-0.8c-0.2,0-0.4,0.1-0.7,0.2c-0.7,0.2-1.8,0.4-3.3,0.4c-1.8-0.1-3.1-0.9-3.9-1.4
				c-0.3-0.2-0.6-0.4-0.8-0.4c-0.2,0-1,0-1.6,0.1c-3.2,0.2-9.2,0.5-14.8-1.6c-7-2.7-8.9-4.7-11.4-7.6c-0.9-1.1-1.7-1.9-2.3-2.4
				c0,0.7,0.1,1.6,0.2,2.8c0.5,5,2,9.8,4.3,14.1c3.7,7,6,10.8,6,10.8l3.2,5.3L95,183.7L95,183.7z M85.7,176.7H95v-0.1h9.3
				c-0.9-1.6-1.9-3.6-3.2-5.9c-2.8-5.2-4.5-10.8-5.1-16.7c-0.4-3.1-1-8.5,2.9-10.8c3.2-1.9,7.1-0.2,11.5,5.1
				c1.9,2.2,2.8,3.4,8.5,5.6c4.2,1.6,9,1.3,11.9,1.2c1.2-0.1,2-0.1,2.7,0c1.7,0.2,2.9,0.9,3.7,1.4c0.2,0.1,0.5,0.3,0.6,0.4
				c0.4,0,0.7,0,1.2-0.2c0.6-0.1,1.4-0.4,2.5-0.4c1.7-0.1,2.7,0.5,3.2,0.8l0,0c0.1,0,0.4,0,0.9,0l0.1,0c0.8,0,1.6-0.4,2.2-1l2.7-3.2
				l2.6,3.3c0.1,0,1,0.5,2-0.4c0.5-0.5,0.8-2.6,1-3.7c0.3-2,0.6-3.9,1.8-5.3c1.8-2.2,4.1-2,5.2-1.9c0.1,0,0.3,0,0.4,0
				c0-0.7-0.3-2.1-0.5-2.8c-0.2-1.1-0.4-2-0.4-2.9c0.1-1.9,1.4-3.5,2.7-5.1c0.3-0.3,0.6-0.8,0.8-1c0.3-0.7,0.4-1.5,0.5-2.2l0-0.5
				l0.2-0.5c0.5-1.3,0.8-2.6,1-4c0-0.5-0.2-2-0.3-3c-0.4-2.8-0.5-3.8-0.3-4.7c0.4-1.5,1.5-2.3,2.2-2.8c0.3-0.2,0.8-0.6,0.9-0.8
				c0-1.1-2.2-4.1-3.5-5.9c-0.7-0.9-1.4-1.9-2-2.8c-3.6-5.4-7.5-10.7-11.7-15.7c-4.4-5-14.3-12.2-20.3-16.4c-2-1.4-3.5-2.5-4.4-3.2
				c-3.8-3-18.1-17.5-20.8-20.6c-1.9-2.2-7.2-9-12.1-15.4c-0.3-0.3-0.5-0.7-0.7-0.9L94.9,34l-0.3-0.5c-2.3,3.3-8.7,12.1-12.6,16.3
				c-2.2,2.3-16.7,17.4-20.7,20.5c-0.9,0.7-2.5,1.9-4.5,3.3C50.8,77.9,40.9,85,36.5,90c-4.2,4.9-8.1,10.2-11.7,15.6
				c-0.6,0.9-1.2,1.7-1.9,2.6c-1.3,1.8-3.6,4.9-3.6,6.1c0.1,0.2,0.6,0.6,0.9,0.8c0.7,0.5,1.8,1.2,2.2,2.6c0.3,1,0.2,2.1-0.2,5.2
				c-0.1,0.9-0.3,2.4-0.3,2.8c0.1,1.3,0.4,2.7,0.9,3.9l0.2,0.5l0,0.5c0.1,0.8,0.2,1.5,0.5,2.3c0.1,0.2,0.5,0.7,0.8,1
				c1.2,1.5,2.5,3.1,2.7,5.1c0.1,0.9-0.1,1.8-0.4,2.9c-0.2,0.7-0.5,2.1-0.5,2.8c0.1,0,0.3,0,0.4,0c1.1-0.1,3.5-0.2,5.2,1.9
				c1.2,1.5,1.5,3.3,1.8,5.3c0.2,1.1,0.5,3.3,1,3.7c0.9,0.8,1.9,0.4,2,0.3l2.6-3.3l2.7,3.3c0.5,0.6,1.3,1,2.2,1l0.1,0
				c0.5,0,0.8,0,0.9,0l0,0c0.5-0.3,1.5-0.9,3.2-0.8c1.1,0,1.9,0.2,2.5,0.4c0.5,0.1,0.7,0.2,1.2,0.2c0.1,0,0.4-0.2,0.6-0.4
				c0.8-0.5,2-1.2,3.7-1.4c0.7-0.1,1.6,0,2.8,0c2.9,0.2,7.6,0.4,11.9-1.2c5.6-2.2,6.6-3.3,8.4-5.5c4.5-5.3,8.3-7,11.5-5.1
				c3.9,2.3,3.3,7.6,2.9,10.8c-0.6,5.9-2.3,11.5-5.2,16.7C87.6,173.2,86.6,175.1,85.7,176.7z M163.7,150.9L163.7,150.9L163.7,150.9
				L163.7,150.9z M26.3,145.1L26.3,145.1L26.3,145.1z M163.8,145.1L163.8,145.1L163.8,145.1z M86,19.3L86,19.3L86,19.3z M100.6,17.5
				L100.6,17.5L100.6,17.5z"/>
		</g>
		<g>
			<path class="st0" d="M95,180.1l14.9-0.2c-3.5-6.1-9.1-17.8-9.7-22.1s-1.9-11.3,1.4-11.8s6.7,5.4,8.9,7.4s15.2,5.4,19.1,4.8
				c4.9-0.8,6.7,2.4,9.5,1.9c2.6-0.5,4.5,1.3,6.8,0.3c3.3-1.4,6.7-1,9-0.8c4.8,0.4,3.8-5.8,5.9-10.9c0.9-2,5.3-0.4,5.9-2.3
				c1.1-3.7-0.4-4.7-0.1-8c0.3-4,1.6-2.1,2.8-5.2c1.1-3,1.8-6,2.1-9.2c0.2-3-1.3-4.2-0.6-5.4c0.9-1.5,5-2.3,3-5.8
				c-4.9-8.6-14.1-20.6-14.4-21.2c-4.5-7.5-15.7-14.6-22.2-19.6c-15.1-11.8-18.8-16.4-23.3-21.1c0,0-11.7-12.1-15.8-18.1
				s-10.1-16.6-11-16.2s-2.1,4.2,1.9,10.6s8.2,11.9,8.2,11.9c0.2,0.6,0.5,1.1,0.8,1.6c0.6,1.1,1.7,1.3,1.9,1.8s-1.7,2.2-0.1,4.3
				s3.5,0.7,4.1,1.3s-0.8,4.3,0.3,5.8s4.2,0.2,5.1,1.7s-1.4,4.6-0.3,6.2s4.8,0.4,5.7,2s-0.3,5.2-0.3,5.2s4.9,12.7,9.8,25.6
				c4.9,12.9,7.9,29,1.4,33.8c-6.5,4.8-14.6,1.5-15.8,1c-2.9-1.4-6.2-1.6-9.2-0.6c-2.9,1-5.9,4.2-5.6,13.5
				C95.2,149.9,95,180.1,95,180.1z"/>
			<path class="st1" d="M94.5,180.6l0-0.5c0-0.3,0.2-30.3,0-37.6c-0.2-7.8,1.8-12.6,6-14c3.2-1.1,6.6-0.8,9.6,0.6
				c1.4,0.6,9.1,3.5,15.2-1c6-4.4,3.5-19.8-1.6-33.2c-4.8-12.7-9.8-25.4-9.8-25.6l-0.1-0.2l0.1-0.2c0.3-1,1-3.7,0.4-4.8
				c-0.3-0.6-1.3-0.7-2.4-0.8c-1.3-0.1-2.6-0.2-3.3-1.2c-0.7-1-0.3-2.4,0.1-3.7c0.3-1,0.6-2,0.2-2.5c-0.3-0.5-1.2-0.6-2.1-0.6
				c-1.1,0-2.3-0.1-3-1c-0.7-1-0.5-2.8-0.4-4.1c0.1-0.6,0.2-1.5,0.1-1.7c-0.1,0-0.4,0-0.6,0c-0.8,0.1-2.2,0.2-3.5-1.4
				c-1.4-1.8-0.6-3.3-0.2-4.1c0.1-0.1,0.1-0.3,0.2-0.4c-0.1-0.1-0.3-0.2-0.4-0.3c-0.4-0.3-1-0.7-1.4-1.4c-0.3-0.5-0.6-1.1-0.8-1.6
				c-0.5-0.6-4.5-5.9-8.2-11.9c-3.5-5.6-2.9-9-2.6-9.9c0.2-0.7,0.6-1.2,1-1.4c0.8-0.4,1.7,0.7,6.5,8.4c1.7,2.8,3.5,5.6,5.1,7.9
				c4.1,5.9,15.7,17.9,15.8,18c0.6,0.6,1.2,1.3,1.8,1.9c3.9,4.2,8.4,9,21.5,19.2c1.4,1.1,3,2.3,4.7,3.5c6.2,4.6,14,10.3,17.6,16.2
				c0.1,0.1,0.5,0.7,1,1.4c2.6,3.5,9.4,12.8,13.4,19.8c1.6,2.8-0.4,4.2-1.7,5.2c-0.5,0.4-1.1,0.7-1.3,1.1c-0.2,0.4-0.1,0.8,0.1,1.6
				c0.3,0.8,0.6,2,0.5,3.6c-0.3,3.2-1,6.3-2.1,9.3c-0.6,1.5-1.2,2-1.7,2.3c-0.5,0.4-0.9,0.7-1.1,2.7c-0.1,1.3,0.1,2.2,0.3,3.1
				c0.3,1.3,0.5,2.7-0.1,5c-0.4,1.3-1.9,1.4-3.3,1.5c-1.2,0.1-2.3,0.2-2.7,0.9c-0.7,1.6-1,3.2-1.3,4.9c-0.7,3.4-1.4,6.6-5.1,6.3
				l-0.2,0c-2.2-0.2-5.5-0.5-8.5,0.8c-1.4,0.6-2.6,0.3-3.8,0c-1-0.2-2-0.5-3.1-0.3c-1.4,0.3-2.5-0.3-3.8-0.8
				c-1.5-0.7-3.2-1.5-5.8-1.1c-3.9,0.6-17-2.7-19.5-5c-0.7-0.6-1.4-1.5-2.2-2.5c-1.8-2.3-4.2-5.1-6.3-4.8c-0.4,0.1-0.8,0.3-1.1,0.6
				c-1.3,1.8-0.6,6.6-0.1,9.8l0.1,0.8c0.6,4.2,6.2,16,9.7,21.9l0.4,0.7L94.5,180.6z M104.5,128.9c-1.2,0-2.5,0.2-3.7,0.6
				c-3.7,1.3-5.5,5.7-5.3,13c0.2,6.8,0,33.1,0,37.1l13.6-0.2c-3.5-6.2-8.8-17.3-9.4-21.5l-0.1-0.8c-0.5-3.6-1.3-8.4,0.3-10.5
				c0.4-0.6,1-0.9,1.7-1c2.7-0.4,5.2,2.7,7.2,5.1c0.8,1,1.5,1.9,2.1,2.4c2,1.8,14.9,5.3,18.7,4.7c2.9-0.5,4.8,0.4,6.4,1.2
				c1.2,0.5,2.1,1,3.2,0.8c1.3-0.2,2.5,0,3.5,0.3c1.1,0.3,2.1,0.5,3.2,0.1c3.3-1.3,6.7-1.1,9-0.9l0.2,0c2.7,0.2,3.3-1.8,4-5.5
				c0.3-1.6,0.7-3.4,1.4-5c0.5-1.3,2.1-1.4,3.5-1.5c1.3-0.1,2.2-0.2,2.4-0.8c0.6-2.1,0.4-3.2,0.1-4.5c-0.2-0.9-0.4-2-0.3-3.4
				c0.2-2.3,0.7-2.9,1.5-3.5c0.4-0.3,0.9-0.7,1.4-1.9c1.1-2.9,1.7-6,2-9c0.1-1.4-0.2-2.4-0.4-3.2c-0.3-0.9-0.5-1.6,0-2.4
				c0.3-0.6,0.9-1,1.6-1.4c1.4-1,2.6-1.8,1.4-3.9c-4-6.9-10.8-16.2-13.4-19.7c-0.7-1-1-1.4-1.1-1.5c-3.5-5.8-11.2-11.4-17.3-16
				c-1.7-1.3-3.3-2.4-4.7-3.5c-13.2-10.2-17.6-15-21.6-19.3c-0.6-0.6-1.2-1.3-1.8-1.9c-0.1-0.1-11.8-12.2-15.9-18.1
				c-1.6-2.3-3.4-5.2-5.1-7.9c-2-3.3-4.5-7.3-5.4-8c-0.1,0.1-0.2,0.3-0.3,0.7c-0.2,0.8-0.8,3.8,2.5,9.1c3.9,6.2,8.2,11.8,8.2,11.8
				l0.1,0.1c0.2,0.5,0.5,1.1,0.8,1.6c0.3,0.5,0.7,0.8,1.1,1.1c0.3,0.2,0.6,0.4,0.8,0.8c0.2,0.4,0,0.7-0.2,1.2
				c-0.4,0.8-0.9,1.8,0.1,3.1c0.9,1.2,1.8,1.1,2.6,1c0.5-0.1,1.1-0.1,1.5,0.3c0.4,0.4,0.3,1.3,0.2,2.4c-0.1,1.2-0.3,2.7,0.2,3.4
				c0.4,0.6,1.3,0.6,2.2,0.6c1.1,0,2.3,0.1,2.9,1.1c0.6,0.9,0.2,2.1-0.1,3.3c-0.3,1.1-0.6,2.2-0.2,2.8c0.4,0.6,1.5,0.7,2.5,0.8
				c1.3,0.1,2.6,0.2,3.2,1.2c0.9,1.6,0,4.7-0.2,5.5c0.6,1.5,5.2,13.5,9.7,25.4c4.8,12.7,8,29.3,1.2,34.3c-6.6,4.8-14.7,1.7-16.2,1.1
				C108,129.3,106.3,128.9,104.5,128.9z"/>
		</g>
		<g>
			<path class="st1" d="M139.3,87.5c-1.3,0-3.1-0.8-4.6-2.1c-2-1.7-4.4-4.3-2.4-7.2l0.3-0.4l0.4,0.2c1.5,0.9,2.9,1.9,4.3,3l0,0
				c2.4,2.1,4.3,4,3.7,5.5c-0.2,0.4-0.5,0.7-1,0.9C139.7,87.5,139.5,87.5,139.3,87.5z M132.8,79.2c-0.8,1.6-0.1,3.4,2.5,5.5
				c1.7,1.4,3.5,2,4.4,1.8c0.2-0.1,0.3-0.2,0.4-0.3c0.4-1-2.1-3.2-3.4-4.4C135.4,80.9,134.2,80,132.8,79.2z"/>
		</g>
		<g>
			<path class="st1" d="M140,109.3l2.4,2.6l1.2,1.3c0.4,0.4,0.7,0.9,1.1,1.3c0.7,0.9,1.4,1.8,2.2,2.6c0.8,0.8,1.7,1.5,2.5,2.4
				c0.2,0.3,0.4,0.6,0.6,0.9c0.1,0.2,0.1,0.5,0,0.7c-0.1,0.2-0.2,0.4-0.3,0.5c-0.4,0.5-0.9,0.9-1.3,1.2c-0.4,0.3-0.9,0.8-0.8,0.9
				c0.1,0.5,0.3,1,0.3,1.7c0.2,0.8-0.2,1.6-0.9,1.9c-0.5,0.4-1,0.6-1.4,1c-0.2,0.1-0.3,0.3-0.4,0.5c-0.1,0.2-0.1,0.5-0.1,0.7
				c-0.1,0.6-0.2,1.1-0.3,1.7c-0.2,1.2-0.5,2.3-0.9,3.4c-0.3,0.6-0.7,1.2-1.2,1.6c-0.2,0.1-0.3,0.2-0.5,0.2c-0.3,0.1-0.6,0-0.8-0.2
				c-0.3-0.2-0.5-0.5-0.7-0.8c-0.6-1-1-2.1-1.4-3.3c-0.4-1.1-0.7-2.2-1-3.3c-0.7-2.2-1.1-4.5-1.6-6.8s-0.9-4.5-1.3-6.8l1.9,6.7
				c0.6,2.2,1.4,4.4,1.9,6.6c0.3,1.1,0.6,2.2,1,3.3c0.3,1.1,0.8,2.1,1.3,3.1c0.1,0.2,0.2,0.4,0.4,0.5c0.1,0.1,0,0,0,0
				c0.1,0,0.2-0.1,0.3-0.1c0.4-0.3,0.7-0.7,0.9-1.1c0.4-1,0.7-2.1,0.9-3.2c0.1-0.6,0.2-1.1,0.2-1.7c0-0.3,0.1-0.7,0.2-1
				c0.1-0.3,0.4-0.6,0.7-0.9c0.5-0.4,1-0.7,1.4-1c0.2-0.1,0.4-0.4,0.4-0.4c0-0.2,0-0.4,0-0.6c-0.1-0.5-0.2-1-0.4-1.7
				c0-0.2,0-0.5,0.1-0.7c0.1-0.2,0.2-0.3,0.3-0.5c0.2-0.2,0.4-0.4,0.7-0.6c0.4-0.3,0.8-0.7,1.2-1.1c0.1-0.1,0.1-0.1,0.1-0.2
				c0,0,0,0,0-0.1c-0.1-0.2-0.2-0.4-0.4-0.6c-0.7-0.8-1.6-1.5-2.5-2.4c-0.8-0.8-1.6-1.7-2.3-2.7c-0.4-0.5-0.8-0.9-1.1-1.4l-0.9-1.5
				C141.2,111.3,140.6,110.3,140,109.3z"/>
		</g>
	</g>
	<g id="Ebene_3">
		<g>
			<path class="st0" d="M95,180.1L80.1,180c3.5-6.1,9.1-17.8,9.7-22.1s1.9-11.3-1.4-11.8s-6.7,5.4-8.9,7.4s-15.2,5.4-19.1,4.8
				c-4.9-0.8-6.7,2.4-9.5,1.9c-2.6-0.5-4.5,1.3-6.8,0.3c-3.3-1.4-6.7-1-9-0.8c-4.8,0.4-3.8-5.8-5.9-10.9c-0.9-2-5.3-0.4-5.9-2.3
				c-1.1-3.7,0.4-4.7,0.1-8c-0.3-4-1.6-2.1-2.8-5.2c-1.1-3-1.8-6-2-9.2c-0.2-3,1.3-4.2,0.5-5.4c-0.9-1.5-5-2.3-3-5.8
				c4.9-8.6,14.1-20.6,14.4-21.2c4.5-7.5,15.7-14.6,22.2-19.6C67.8,60.4,71.5,55.8,76,51.1c0,0,11.7-12.1,15.8-18.1
				s10.1-16.6,11-16.2s2.1,4.1-1.9,10.4S93.2,39,93.2,39c-0.5,0.6-0.9,1.3-1.2,1.9c-0.6,1.1-1.7,1.3-1.9,1.8s1.7,2.2,0.1,4.3
				s-3.5,0.7-4.1,1.3s0.8,4.3-0.3,5.8s-4.2,0.2-5.1,1.7s1.4,4.6,0.3,6.2s-4.8,0.4-5.7,2s0.3,5.2,0.3,5.2S70.7,82,65.8,94.9
				s-7.9,29-1.4,33.8s14.6,1.5,15.8,1c2.9-1.4,6.2-1.6,9.2-0.6c2.9,1,5.9,4.2,5.6,13.5c-0.1,3.2,0,10.6,0,18.1
				C95,170.4,95,180.1,95,180.1z"/>
			<path class="st1" d="M95.5,180.6l-16.3-0.2l0.4-0.7c3.4-5.9,9-17.7,9.7-21.9l0.1-0.8c0.5-3.2,1.2-8-0.1-9.8
				c-0.3-0.4-0.6-0.6-1.1-0.6c-2.1-0.3-4.4,2.5-6.3,4.8c-0.8,1-1.6,1.9-2.2,2.5c-2.5,2.2-15.6,5.5-19.5,5c-2.6-0.4-4.3,0.4-5.8,1.1
				c-1.2,0.6-2.4,1.1-3.8,0.8c-1.1-0.2-2.1,0-3.1,0.3c-1.2,0.3-2.5,0.6-3.8,0c-3-1.3-6.2-1-8.5-0.8l-0.3,0c-3.7,0.3-4.4-2.9-5.1-6.3
				c-0.3-1.6-0.7-3.3-1.3-4.9c-0.3-0.7-1.5-0.8-2.7-0.9c-1.4-0.1-2.9-0.2-3.3-1.5c-0.7-2.3-0.4-3.7-0.1-5c0.2-0.9,0.4-1.8,0.3-3.1
				c-0.2-2-0.5-2.3-1.1-2.7c-0.5-0.4-1.1-0.9-1.7-2.3c-1.1-3-1.8-6.1-2.1-9.3c-0.1-1.6,0.2-2.8,0.5-3.6c0.3-0.8,0.4-1.2,0.1-1.6
				c-0.2-0.4-0.7-0.7-1.3-1.1c-1.3-0.9-3.4-2.3-1.7-5.2c4-7,10.8-16.3,13.4-19.8c0.5-0.7,1-1.3,1-1.4c3.6-6,11.3-11.7,17.6-16.2
				c1.7-1.3,3.3-2.4,4.7-3.5c13.1-10.2,17.6-15,21.5-19.2c0.6-0.6,1.2-1.3,1.8-1.9c0.1-0.1,11.7-12.1,15.8-18c1.5-2.2,3.3-5,5-7.8
				c4.9-7.8,5.8-9,6.6-8.6c0.4,0.2,0.8,0.7,1,1.4c0.3,0.9,0.9,4.2-2.7,9.8c-4,6.3-7.7,11.7-7.8,11.8c-0.5,0.6-0.9,1.2-1.2,1.9
				c-0.4,0.7-1,1.1-1.4,1.4c-0.1,0.1-0.3,0.2-0.4,0.3c0,0.1,0.1,0.2,0.2,0.4c0.4,0.8,1.2,2.3-0.2,4.1c-1.2,1.6-2.6,1.5-3.5,1.4
				c-0.2,0-0.5-0.1-0.6,0c-0.1,0.2,0,1,0.1,1.6c0.2,1.4,0.4,3.1-0.4,4.1c-0.7,0.9-1.9,1-3,1c-0.9,0-1.8,0.1-2.1,0.6
				c-0.3,0.5,0,1.5,0.2,2.5c0.4,1.3,0.8,2.6,0.1,3.7c-0.7,1-2,1.1-3.3,1.2c-1.1,0.1-2.1,0.2-2.4,0.8c-0.7,1.1,0,3.9,0.4,4.8l0.1,0.2
				L76,69.5c0,0.1-5,12.8-9.8,25.6c-7.5,19.8-5.5,30.3-1.5,33.2c6.1,4.5,13.8,1.6,15.3,0.9c3-1.5,6.4-1.7,9.6-0.7
				c4.2,1.5,6.2,6.2,6,14c-0.1,2,0,5.9,0,10.3c0,2.5,0,5.1,0,7.8c0,9.8,0,19.5,0,19.5V180.6z M81,179.5l13.5,0.1c0-2.1,0-10.6,0-19
				c0-2.7,0-5.3,0-7.8c0-4.4,0-8.2,0-10.3c0.2-7.4-1.6-11.8-5.3-13c-2.9-1-6.1-0.7-8.9,0.6c-1.6,0.7-9.7,3.8-16.3-1
				c-6.8-5-3.6-21.6,1.2-34.3c4.5-12,9.1-23.9,9.7-25.4c-0.3-0.8-1.1-3.9-0.2-5.5c0.6-1,1.9-1.1,3.2-1.2c1-0.1,2.1-0.2,2.5-0.8
				c0.4-0.6,0.1-1.7-0.2-2.8c-0.3-1.2-0.7-2.4-0.1-3.3c0.6-1,1.8-1,2.9-1.1c0.9,0,1.8-0.1,2.2-0.6c0.5-0.7,0.3-2.2,0.2-3.4
				c-0.1-1.2-0.2-2,0.2-2.4c0.4-0.4,0.9-0.4,1.5-0.3c0.8,0.1,1.7,0.2,2.6-1c1-1.3,0.5-2.3,0.1-3.1c-0.2-0.4-0.4-0.8-0.2-1.2
				c0.2-0.3,0.5-0.5,0.8-0.8c0.4-0.3,0.8-0.5,1.1-1.1c0.4-0.7,0.8-1.4,1.3-2c0,0,3.8-5.5,7.7-11.7c3.3-5.2,2.8-8.2,2.6-9
				c-0.1-0.3-0.2-0.5-0.3-0.6c-0.8,0.7-3.4,4.8-5.5,8.1c-1.7,2.7-3.5,5.6-5,7.8c-4.1,6-15.8,18-15.9,18.1c-0.6,0.6-1.2,1.2-1.7,1.9
				c-3.9,4.2-8.4,9-21.6,19.3c-1.4,1.1-3,2.3-4.7,3.5c-6.2,4.5-13.9,10.2-17.3,15.9c-0.1,0.1-0.4,0.5-1.1,1.5
				c-2.6,3.5-9.4,12.8-13.3,19.7c-1.2,2,0,2.9,1.4,3.9c0.6,0.4,1.2,0.9,1.6,1.4c0.5,0.8,0.2,1.6,0,2.4c-0.2,0.8-0.6,1.8-0.4,3.2
				c0.3,3.1,1,6.1,2,9c0.5,1.2,0.9,1.6,1.4,1.9c0.8,0.6,1.3,1.1,1.5,3.5c0.1,1.4-0.1,2.5-0.3,3.4c-0.3,1.3-0.5,2.4,0.1,4.5
				c0.2,0.6,1.1,0.7,2.4,0.8c1.4,0.1,3,0.2,3.5,1.5c0.7,1.7,1.1,3.5,1.4,5.1c0.8,3.7,1.3,5.8,4,5.5l0.3,0c2.3-0.2,5.7-0.5,9,0.9
				c1.1,0.4,2.1,0.2,3.2-0.1c1-0.2,2.2-0.5,3.5-0.3c1.1,0.2,2-0.2,3.2-0.8c1.5-0.7,3.5-1.6,6.4-1.2c3.8,0.6,16.6-2.9,18.7-4.7
				c0.6-0.5,1.4-1.5,2.1-2.4c2-2.5,4.5-5.5,7.2-5.1c0.7,0.1,1.3,0.5,1.7,1c1.5,2.1,0.8,7,0.3,10.5l-0.1,0.8
				C89.7,162.2,84.5,173.3,81,179.5z"/>
		</g>
		<g>
			<path class="st0" d="M53.1,81.5c-2.1,1.8-4.1,3.7-3.6,4.9s3.3,0.5,5.5-1.4c2-1.7,4.1-4,2.3-6.6C55.9,79.4,54.4,80.4,53.1,81.5z"
				/>
			<path class="st1" d="M50.7,87.5c-0.2,0-0.4,0-0.6-0.1c-0.5-0.1-0.9-0.4-1.1-0.9c-0.7-1.6,1.4-3.5,3.7-5.5l0,0
				c1.4-1.1,2.8-2.1,4.3-3l0.4-0.2l0.3,0.4c2,3-0.4,5.5-2.4,7.2C53.8,86.7,52,87.5,50.7,87.5z M53.4,81.8c-1.3,1.1-3.9,3.3-3.4,4.4
				c0,0.1,0.1,0.2,0.4,0.3c0.8,0.2,2.7-0.4,4.3-1.8c2.5-2.1,3.3-3.8,2.5-5.5C55.9,80,54.6,80.9,53.4,81.8z"/>
		</g>
		<g>
			<path class="st0" d="M50,109.3c0,0-4.1,5.5-5.8,7.4s-4,3.3-3.6,4.2s2.3,1.9,2.4,2.6s-0.8,2.3-0.2,3s2.2,1.3,2.4,2.2
				s0.6,6.8,2.7,7.3c2,0.5,6-19.1,6.6-21.5"/>
		</g>
		<g>
			<path class="st1" d="M50,109.3c-0.6,1-1.2,2-1.8,3l-1,1.5c-0.3,0.5-0.7,0.9-1.1,1.4c-0.7,0.9-1.5,1.8-2.3,2.7
				c-0.8,0.8-1.8,1.6-2.5,2.4c-0.1,0.1-0.2,0.3-0.3,0.5c0.1,0.2,0.1,0.3,0.3,0.4c0.4,0.4,0.8,0.8,1.3,1.1c0.3,0.2,0.5,0.4,0.7,0.7
				c0.1,0.1,0.1,0.2,0.2,0.3c0,0.1,0.1,0.3,0.1,0.4c0,0.2,0,0.4-0.1,0.5c-0.1,0.5-0.3,1.1-0.3,1.6c0,0.2,0,0.4,0.1,0.4
				c0.2,0.2,0.4,0.3,0.6,0.5c0.5,0.3,1,0.7,1.5,1.1c0.1,0.1,0.2,0.3,0.3,0.5c0.1,0.2,0.1,0.4,0.2,0.6l0.1,0.9
				c0.1,0.6,0.2,1.1,0.3,1.7c0.2,1.1,0.5,2.2,1,3.2c0.2,0.4,0.5,0.7,0.9,0.9c-0.1,0-0.1,0,0,0c0.1-0.1,0.1-0.2,0.2-0.2
				c0.1-0.2,0.3-0.5,0.4-0.7c0.9-2.1,1.6-4.3,2.2-6.6c0.3-1.1,0.6-2.2,0.9-3.4l1-3.4l1.8-6.8c-0.4,2.3-0.8,4.6-1.2,6.9l-0.7,3.4
				c-0.2,1.2-0.5,2.3-0.8,3.4c-0.6,2.3-1.3,4.5-2.3,6.7c-0.1,0.3-0.3,0.6-0.5,0.8c-0.1,0.2-0.2,0.3-0.4,0.4
				c-0.2,0.2-0.5,0.3-0.8,0.3c-0.7-0.2-1.3-0.7-1.6-1.4c-0.5-1.1-0.9-2.3-1.1-3.5c-0.1-0.6-0.2-1.2-0.3-1.8l-0.1-0.9
				c0-0.1,0-0.2-0.1-0.3c0-0.1-0.1-0.2-0.2-0.2c-0.4-0.4-0.8-0.7-1.3-1c-0.3-0.2-0.5-0.4-0.8-0.6c-0.2-0.2-0.3-0.4-0.3-0.6
				c0-0.2-0.1-0.4-0.1-0.6c0.1-0.6,0.2-1.2,0.3-1.8c0-0.1,0-0.2,0-0.3l0,0c0,0,0,0-0.1-0.1c-0.2-0.2-0.3-0.4-0.5-0.5
				c-0.5-0.4-0.9-0.8-1.4-1.2c-0.1-0.1-0.2-0.3-0.3-0.4c-0.1-0.2-0.2-0.5-0.2-0.7c0.1-0.4,0.2-0.8,0.5-1.1c0.8-1,1.7-1.7,2.6-2.5
				c0.8-0.8,1.6-1.7,2.3-2.6c0.4-0.4,0.7-0.9,1.1-1.4l1.2-1.3L50,109.3z"/>
		</g>
		<g>
			<path class="st1" d="M53.8,157.1c-5.1-1.4-9.8-3.8-13.8-7.2c-4-3.4-7.3-7.6-9.6-12.2c-1.2-2.3-2.3-4.7-3.2-7.2
				c-0.9-2.5-1.5-5-1.8-7.6c-0.6-5.2-0.7-10.4-0.4-15.7l0.7,0.3c-0.8,1-1.5,2-2.1,3.1c-0.6,1.1-1.1,2.3-1.6,3.5
				c-0.5,1.2-1,2.4-1.4,3.6s-0.8,2.4-1.2,3.6l-1-0.3c0.4-1.2,0.8-2.5,1.2-3.7s0.9-2.4,1.5-3.6c0.5-1.2,1.1-2.4,1.8-3.5
				c0.6-1.2,1.4-2.2,2.2-3.2l0.7-0.8v1.1c-0.4,5.2-0.3,10.4,0.2,15.6c0.7,5.2,2.3,10.1,4.7,14.7c2.3,4.7,5.5,8.8,9.4,12.3
				C44.1,153.2,48.8,155.7,53.8,157.1z"/>
		</g>
		<g>
			<path class="st1" d="M19.3,131c0.1-0.9,0.4-1.8,0.7-2.6c0.3-0.8,0.6-1.7,1-2.5c0.8-1.6,1.8-3.1,2.9-4.4c-0.5,0.7-1,1.5-1.4,2.2
				c-0.4,0.8-0.8,1.6-1.1,2.4c-0.3,0.8-0.6,1.6-0.8,2.5c-0.2,0.8-0.3,1.7-0.4,2.5L19.3,131z"/>
		</g>
		<g>
			<path class="st1" d="M22.8,140.7c0.1-0.9,0.3-1.8,0.6-2.7c0.3-0.8,0.6-1.6,1-2.4c0.8-1.6,1.6-3.1,2.6-4.5
				c-0.8,1.5-1.5,3.1-2.1,4.7c-0.3,0.8-0.6,1.6-0.8,2.5c-0.2,0.8-0.3,1.6-0.4,2.4L22.8,140.7z"/>
		</g>
		<g>
			<path class="st1" d="M30,153.9c-0.2-1.1-0.3-2.2-0.2-3.3c0-1.1,0.1-2.1,0.2-3.2c0.2-2.1,0.6-4.2,1-6.3c-0.3,2.1-0.5,4.2-0.5,6.3
				c0,1.1,0,2.1,0,3.1c0,1,0.2,2,0.4,3L30,153.9z"/>
		</g>
		<g>
			<path class="st1" d="M39.3,160.1c-0.5-0.8-1-1.6-1.3-2.5c-0.3-0.9-0.6-1.8-0.7-2.7c-0.1-0.9-0.2-1.8-0.1-2.7
				c0.1-0.9,0.2-1.8,0.5-2.7c-0.2,0.9-0.2,1.8-0.2,2.7c0,0.9,0.1,1.8,0.4,2.6c0.2,0.9,0.5,1.7,0.9,2.5c0.4,0.8,0.8,1.5,1.4,2.2
				L39.3,160.1z"/>
		</g>
		<g>
			<path class="st1" d="M49,160.7c-0.4-0.3-0.8-0.6-1.1-0.9c-0.3-0.3-0.6-0.6-0.9-1c-0.5-0.7-0.8-1.6-1-2.4c0.3,0.8,0.8,1.5,1.4,2.1
				c0.3,0.3,0.6,0.6,1,0.8c0.3,0.2,0.6,0.4,1,0.6L49,160.7z"/>
		</g>
		<g>
			<path class="st1" d="M136,156.1c5-1.4,9.7-3.9,13.6-7.4c3.9-3.4,7.1-7.6,9.4-12.3c2.5-4.6,4.1-9.6,4.7-14.7
				c0.5-5.2,0.6-10.4,0.2-15.6v-1.1l0.7,0.8c0.9,1,1.6,2.1,2.2,3.2c0.6,1.1,1.2,2.3,1.8,3.5c0.5,1.2,1,2.4,1.5,3.6s0.9,2.4,1.2,3.7
				l-1,0.3c-0.4-1.2-0.8-2.4-1.2-3.6s-0.9-2.4-1.4-3.6c-0.5-1.2-1-2.3-1.7-3.4c-0.6-1.1-1.3-2.1-2.1-3.1l0.7-0.3
				c0.3,5.2,0.2,10.5-0.4,15.7c-0.4,2.6-1,5.2-1.8,7.6c-0.9,2.5-1.9,4.9-3.2,7.2c-2.4,4.7-5.7,8.8-9.6,12.2
				C145.7,152.3,141,154.8,136,156.1z"/>
		</g>
		<g>
			<path class="st1" d="M169.6,131.3c-0.1-0.8-0.2-1.7-0.4-2.5c-0.2-0.8-0.5-1.7-0.8-2.5c-0.3-0.8-0.7-1.6-1.1-2.4
				c-0.4-0.8-0.9-1.5-1.4-2.2c1.1,1.4,2.1,2.8,2.9,4.4c0.4,0.8,0.7,1.6,1,2.5c0.3,0.9,0.5,1.7,0.7,2.6L169.6,131.3z"/>
		</g>
		<g>
			<path class="st1" d="M166.2,140.8c0-0.8-0.1-1.6-0.4-2.4c-0.2-0.8-0.5-1.7-0.8-2.5c-0.6-1.6-1.3-3.2-2.1-4.7c1,1.5,1.8,3,2.6,4.5
				c0.4,0.8,0.7,1.6,1,2.4c0.3,0.9,0.5,1.8,0.6,2.7L166.2,140.8z"/>
		</g>
		<g>
			<path class="st1" d="M159.1,153.5c0.2-1,0.4-2,0.4-2.9c0-1,0-2.1,0-3.1c-0.1-2.1-0.3-4.1-0.5-6.2c0.4,2,0.8,4.1,1,6.2
				c0.1,1,0.2,2.1,0.2,3.1c0.1,1.1,0,2.2-0.2,3.2L159.1,153.5z"/>
		</g>
		<g>
			<path class="st1" d="M149.9,159.3c0.5-0.6,1-1.4,1.4-2.1c0.4-0.8,0.7-1.6,0.9-2.4c0.2-0.8,0.3-1.7,0.3-2.6c0-0.9-0.1-1.8-0.2-2.6
				c0.2,0.9,0.4,1.7,0.5,2.6c0.1,0.9,0,1.8-0.1,2.7c-0.1,0.9-0.4,1.8-0.7,2.6c-0.3,0.9-0.8,1.7-1.3,2.5L149.9,159.3z"/>
		</g>
		<g>
			<path class="st1" d="M140.5,159.8c0.4-0.2,0.7-0.3,1-0.6c0.4-0.2,0.7-0.5,1-0.8c0.6-0.6,1.1-1.3,1.4-2.1c-0.2,0.9-0.5,1.7-1,2.4
				c-0.3,0.4-0.5,0.7-0.9,1c-0.3,0.3-0.7,0.6-1.1,0.9L140.5,159.8z"/>
		</g>
	</g>
	<g id="Ebene_6">
		<g>
			<path class="st3" d="M116.1,91.2c-0.7,0-1.5,0.1-2.2,0.2c-0.5,0.1-0.9,0.3-1.3,0.5c-0.3,0.2-0.5,0.5-0.6,0.8
				c-0.1,0.3-0.1,0.6-0.2,0.9l0.5,20.7c0.1,2.2,1.4,3.3,4.1,3.3v1.9h-14.5v-1.9c2.7,0,4-1,4-3l-0.3-19.1l-9.1,24.1h-4.2l-9.8-23.9
				L82.4,114c0,2.4,1.5,3.7,4.5,3.7v1.9H75.5v-1.9c1.1,0.1,2.3-0.3,3.2-1c0.8-0.8,1.2-1.9,1.1-3l0.3-20c0-0.3,0-0.7-0.1-1
				c-0.1-0.3-0.3-0.6-0.5-0.8c-0.4-0.3-0.9-0.4-1.3-0.5c-0.8-0.1-1.7-0.2-2.5-0.2v-1.9h12.2l8.9,22.2l8.5-22.2h10.8V91.2z"/>
		</g>
	</g>
</g>
<g id="Ebene_24">
	<g id="Ebene_23">
		<g>
			<line class="st4" x1="74.5" y1="119.1" x2="91.2" y2="119.1"/>
		</g>
	</g>
</g>
</svg>
