<?xml version="1.0" encoding="utf-8"?>
<!-- Generator: Adobe Illustrator 22.1.0, SVG Export Plug-In . SVG Version: 6.00 Build 0)  -->
<svg version="1.1" id="Layer_1" xmlns="http://www.w3.org/2000/svg" xmlns:xlink="http://www.w3.org/1999/xlink" x="0px" y="0px"
	 viewBox="0 0 32 32" style="enable-background:new 0 0 32 32;" xml:space="preserve">
<style type="text/css">
	.st0{fill:#EE9297;}
</style>
<title>office</title>
<path class="st0" d="M0,32h16V0H0V32z M10,4h4v4h-4V4z M10,12h4v4h-4V12z M10,20h4v4h-4V20z M2,4h4v4H2V4z M2,12h4v4H2V12z M2,20h4
	v4H2V20z M18,10h14v2H18V10z M18,32h4v-8h6v8h4V14H18V32z"/>
</svg>
