<?xml version="1.0" encoding="utf-8"?>
<!-- Generator: Adobe Illustrator 22.1.0, SVG Export Plug-In . SVG Version: 6.00 Build 0)  -->
<svg version="1.1" id="Layer_1" xmlns="http://www.w3.org/2000/svg" xmlns:xlink="http://www.w3.org/1999/xlink" x="0px" y="0px"
	 viewBox="0 0 188.9 198" style="enable-background:new 0 0 188.9 198;" xml:space="preserve">
<style type="text/css">
	.st0{fill:#07212E;}
	.st1{fill:#E5F2F0;}
	.st2{fill:#F1929A;}
	.st3{fill:#F19199;}
	.st4{fill:#FDD632;}
</style>
<title>Town</title>
<g id="Ebene_11">
	<g id="Ebene_13">
		<g>
			<path class="st0" d="M92.7,60.1c-5.3-0.2-22.2,2.8-26.7,10.7s-11.6,22.7-6.7,38.7c3.8,12.5,11.3,23.4,21.6,31.5
				c7,5.6,13.7,16.9,13.4,20.4s2.6,2.8,4.4-2.1s3.7-8.6,7.7-12.6s24.1-18.7,25.9-31s4.4-27.6,0-37.1s-6.7-13-12.7-14.8
				S92.7,60.1,92.7,60.1z"/>
		</g>
		<g>
			<path class="st1" d="M111.5,99.6l-2.8,0.2c0-2-0.6-3.9-1.6-5.6c-0.9-1.3-2.5-1.9-4.7-1.9c-1.3,0-2,0.4-2,1.3v21.6
				c0,2.7,1.7,4,5,4v2H87.5v-2c3.3,0,5-1.3,5-4V93.6c0-1-0.7-1.4-2-1.4c-0.9,0-1.8,0.2-2.6,0.5c-0.7,0.3-1.4,0.9-1.8,1.5
				c-0.6,0.8-1,1.6-1.3,2.5c-0.4,1.2-0.7,2.3-1,3.5l-2.9-0.4l1.3-10.6c0.9,0.2,1.8,0.3,2.7,0.3c1,0.1,1.8,0.1,2.4,0.1h18.9
				c0.7,0,1.5,0,2.6-0.1c0.9,0,1.9-0.1,2.8-0.3V99.6z"/>
			<path class="st1" d="M105.9,121.7H87v-3h0.5c4,0,4.5-2,4.5-3.5V93.5c0-0.3,0-0.9-1.5-0.9c-0.8,0-1.6,0.1-2.4,0.5
				c-0.6,0.3-1.2,0.8-1.6,1.3c-0.5,0.7-1,1.5-1.3,2.4c-0.4,1.1-0.7,2.3-1,3.5l-0.1,0.5l-3.9-0.6l1.4-11.6l0.5,0.1
				c0.9,0.2,1.8,0.3,2.7,0.3c1,0.1,1.7,0.1,2.3,0.1h18.9c0.7,0,1.5,0,2.6-0.1c0.9,0,1.8-0.1,2.7-0.3l0.6-0.1V100l-3.7,0.3l0-0.5
				c0-1.9-0.6-3.8-1.6-5.4c-0.8-1.1-2.2-1.7-4.3-1.7c-1.5,0-1.5,0.6-1.5,0.8v21.6c0,1.5,0.5,3.5,4.5,3.5h0.5V121.7z M88,120.7h16.9
				v-1c-4.1-0.2-5-2.5-5-4.5V93.6c0-0.7,0.3-1.8,2.5-1.8c2.4,0,4.1,0.7,5.1,2.1c1,1.6,1.6,3.5,1.7,5.4l1.8-0.1v-9.4
				c-0.7,0.1-1.5,0.2-2.2,0.2c-1.1,0.1-1.9,0.1-2.6,0.1H87.2c-0.6,0-1.4,0-2.4-0.1c-0.8,0-1.5-0.1-2.3-0.2l-1.2,9.6l2,0.3
				c0.2-1.1,0.5-2.1,0.9-3.1c0.3-0.9,0.8-1.8,1.4-2.6c0.5-0.7,1.2-1.3,2-1.7c0.9-0.4,1.8-0.6,2.8-0.5c2.2,0,2.5,1.2,2.5,1.9v21.7
				c0,2-0.9,4.3-5,4.5V120.7z"/>
		</g>
	</g>
	<g id="Ebene_15">
		<g>
			<path class="st2" d="M95.8,162.3l-2.3-6.6c-1.3-3.8-3.5-7.2-6.5-10c-2.4-2.3-5.2-4.7-7.9-7c-3.5-3-6.7-5.8-8.6-7.9
				c-3.3-3.8-9.8-16.7-10.3-26.4c-0.1-1.2-0.1-2.3-0.2-3.3c-0.4-6.1-0.8-10.9,1.6-18.6c3-9.8,6.8-13.3,8.8-14.5l0.2-0.1
				c2.8-1.4,5.8-1.9,8.9-1.5c0.9,0.1,1.8,0.3,2.7,0.5c1.9,0.4,3.7,0.8,5.8,0.3c3-0.7,5.5-3.1,5.4-4.5l5-0.5c0.4,1.9,1.7,3.5,3.5,4.1
				c3,1,3.7,1,6.4,0.7c0.7-0.1,1.5-0.2,2.3-0.3c3.3-0.4,5.3-0.7,6.8-0.4c3.5,0.7,6.5,2.8,8.3,5.9l0.3,0.5c2,3.4,5,8.6,6,15.5
				c0.8,6.2,0.7,12.5-0.3,18.7l0,0.1c-0.1,0.5-2.7,12.9-7.1,19.2l-0.9,1.3c-2.8,4-2.9,4.1-6,7.1c-1.5,1.4-3.5,3.1-5.5,4.9
				c-2.7,2.3-5.4,4.6-7.1,6.4l-0.6,0.6c-2.7,2.8-4.5,4.7-6.3,9.4L95.8,162.3z M72.9,72.3c-0.8,0.5-3.9,3-6.6,11.7
				c-2.1,6.8-1.8,10.9-1.4,16.7c0.1,1.1,0.2,2.2,0.2,3.4c0.5,8.1,6.2,20,9.1,23.4c1.6,1.9,4.7,4.5,8.1,7.4c2.7,2.4,5.6,4.8,8.1,7.2
				c2.1,2,4,4.3,5.5,6.9c1.5-2.5,3.1-4.2,4.9-6.1l0.6-0.6c1.8-1.9,4.7-4.4,7.5-6.7c2-1.7,3.9-3.3,5.3-4.6c2.9-2.7,2.9-2.7,5.4-6.3
				l0.9-1.3c3.1-4.5,5.6-14,6.2-17.3c0.9-5.7,1-11.4,0.3-17.1c-0.9-5.9-3.5-10.4-5.4-13.6l-0.3-0.5c-1.1-1.8-2.9-3.1-4.9-3.5
				c-0.8-0.1-3.4,0.2-5.2,0.4c-0.8,0.1-1.6,0.2-2.4,0.3c-3.4,0.4-4.8,0.2-8.6-1c-1.7-0.6-3.2-1.6-4.3-2.9c-1.8,1.9-4.3,3.3-6.9,3.9
				c-3.3,0.8-5.9,0.2-8.1-0.3c-0.8-0.2-1.5-0.3-2.2-0.4C76.7,71.1,74.7,71.4,72.9,72.3z"/>
		</g>
	</g>
	<g id="Ebene_14">
		<g>
			<path class="st3" d="M65,176.9l5.5-6.5c6.4-7.5,7.3-11.4,8.1-14.5l0.2-0.8c0.5-1.9-0.4-4.3-0.9-4.9c-4.4-3.7-12.7-8.9-25.8-17
				c-11.2-6.9-13.1-9-16.7-13.4c-0.7-0.9-1.5-1.9-2.6-3.1c-4.2-4.7-6.8-10.7-8.2-14.2c-1.4,0.1-3,0.3-3.9,0.4
				c-4.2,0.6-5.8-3.1-6.5-4.9c-0.1-0.3-0.2-0.5-0.3-0.8c-0.9-2-2.6-8,0.1-20.2c2.1-9.7,5.1-14.4,6.3-16.2l0.2-0.3
				c0.7-1.1,1.4-2.2,1.8-2.8c0.9-2.6,5.4-14.3,18.4-22.7c8.5-5.4,14.5-7.4,21.3-7.1c0.5,0,1,0,1.6,0.1c5.9,0.2,14.9,0.4,21.2,8.3
				c4.7,5.9,5.5,8,6.2,10.5c0.1,0.4,0.2,0.7,0.3,1.1c0.4,1,0.6,1.8,0.8,2.5c0.3,1.1,0.4,1.4,0.6,1.6c1.4,1.3,3.1,2.3,3.7,2.4l-0.8,7
				c-3.5-0.4-7.3-3.9-7.7-4.3c-1.7-1.6-2.2-3.3-2.6-4.9c-0.2-0.6-0.3-1.2-0.6-1.9c-0.3-0.7-0.4-1.3-0.6-1.8
				c-0.3-1.3-0.7-2.7-4.8-7.8c-4.3-5.4-10.8-5.6-16-5.7c-0.6,0-1.1,0-1.7-0.1c-4.5-0.2-8.9,0.8-17.2,6.1
				c-12.1,7.7-15.6,19.1-15.6,19.2l-0.1,0.5l-0.3,0.4c0,0-1.1,1.7-2,3.1l-0.2,0.3c-1,1.6-3.5,5.5-5.3,13.9
				c-2.4,11-0.7,15.4-0.5,15.9c0.1,0.3,0.3,0.6,0.4,0.9c0.1,0.2,0.2,0.4,0.2,0.5c2.2-0.3,5.6-0.6,5.7-0.6l2.9-0.3l0.8,2.8
				c0,0.1,2.6,8.6,7.7,14.3c1.1,1.3,2,2.3,2.7,3.2c3,3.7,4.4,5.4,15,11.9c14.7,9.1,22.1,13.8,26.7,17.6c2.4,2,4.2,7.4,3.1,11.9
				l-0.2,0.7c-0.6,2.4-1.4,5.7-4.5,10.6c0.9-0.2,1.6-0.2,3-0.1c1.1,0.1,2.4,0.4,3.6,0.6c1,0.2,2.3,0.5,3,0.5c1.5-0.2,2.9-0.5,4.3-1
				l2.2,6.6c-1.9,0.6-3.9,1.1-5.9,1.3l-0.3,0c-1.6,0.1-3.3-0.3-4.9-0.7c-0.9-0.2-1.9-0.4-2.5-0.5c-0.8-0.1-0.8-0.1-1.6,0.1
				c-0.5,0.1-1.3,0.2-2.5,0.4c-3.2,0.4-5.8,0.7-6,0.7L65,176.9z"/>
		</g>
		<g>
			<path class="st3" d="M127.1,176.4l-8.5-0.7c-0.1,0-2.8-0.2-6-0.7c-1.2-0.2-1.9-0.3-2.5-0.4c-0.8-0.1-0.8-0.1-1.6-0.1
				c-0.7,0-1.8,0.3-2.8,0.6c-1.6,0.4-3.2,0.7-4.6,0.8l-0.2,0l-0.2,0c-2-0.1-4.1-0.4-6-1l2-6.7c1.4,0.4,2.8,0.7,4.2,0.7
				c0.8-0.1,2.1-0.4,3.2-0.6c1.4-0.3,2.7-0.6,3.9-0.7c1.5-0.1,2.1,0,3,0.1c-3.1-4.9-3.9-8.2-4.5-10.6l-0.2-0.7
				c-1.1-4.5,0.7-9.9,3.1-11.9c4.8-4,13.3-9.3,26.7-17.6c10.6-6.6,12-8.2,15-11.9c0.8-0.9,1.6-2,2.7-3.2c5-5.7,7.7-14.2,7.7-14.3
				l0.8-2.8l2.9,0.3c0.2,0,3.5,0.4,5.7,0.6c0.1-0.2,0.2-0.4,0.2-0.5c0.1-0.3,0.2-0.6,0.4-0.9c0.2-0.5,1.9-4.9-0.5-15.8
				c-1.8-8.5-4.3-12.3-5.3-13.9l-0.2-0.3c-0.9-1.5-2-3.1-2-3.1l-0.3-0.4l-0.1-0.5c0-0.1-3.5-11.5-15.6-19.2
				c-8.3-5.3-12.8-6.2-17.2-6.1c-0.5,0-1.1,0-1.7,0.1c-5.2,0.2-11.7,0.3-16,5.7c-4.3,5.4-5.3,8.7-6,11.2c-0.2,0.7-0.4,1.3-0.6,1.9
				c-1.2,3.3-3.2,6.5-9.5,7.9l-1.5-6.8c3.4-0.8,3.9-1.9,4.5-3.5c0.2-0.4,0.3-0.9,0.4-1.4c0.8-2.7,2.1-7.2,7.3-13.7
				c6.3-7.9,15.3-8.1,21.2-8.3c0.6,0,1.1,0,1.6-0.1c6.8-0.3,12.8,1.7,21.3,7.1c13.1,8.3,17.6,20,18.4,22.7c0.4,0.6,1.1,1.7,1.8,2.8
				l0.2,0.3c1.1,1.8,4.2,6.5,6.3,16.2c2.7,12.2,0.9,18.1,0.1,20.1c-0.1,0.3-0.2,0.5-0.3,0.8c-0.7,1.8-2.3,5.5-6.5,4.9
				c-0.9-0.1-2.4-0.3-3.8-0.4c-1.3,3.4-4,9.4-8.2,14.2c-1,1.2-1.8,2.2-2.6,3.1c-3.7,4.5-5.6,6.5-16.7,13.4
				c-13.1,8.1-21.4,13.3-25.8,17c-0.5,0.6-1.3,3-0.9,4.9l0.2,0.8c0.7,3.1,1.7,7,8.1,14.5L127.1,176.4z"/>
		</g>
	</g>
	<g>
		<path class="st4" d="M82.3,146.7h-3c0,0-8.7-6.6-14.5-10.1s-17.6-10-21.8-14s-12.7-11.7-17.5-26.6"/>
	</g>
	<g>
		<path class="st4" d="M80.7,148.1c6.1,9.9-7.6,24.6-7.6,24.6c3.1,0.1,7-1.2,10.5-1.2s3.6,1,7.1,1.2c1.8,0.2,3.6-0.2,5.2-1.2
			c0,0,0.1-11.6,0-13.7C95.5,147.1,82,139.6,73.6,131s-12.4-25.2-12.2-35.6s4.2-19.7,8.3-24s9.6-2.7,12.5-2.2
			c3.2,0.5,6.4,0.1,9.3-1.3c1.8-1.1,3.2-2.6,4-4.5c0.3-1.8,0.5-3.5,0.4-5.3c0,0-4.2-1.4-5.7-3.4s-3.4-10.9-8.2-16
			c-4.5-4.8-8.9-7.2-21.2-7.1S34.2,42.7,29,51.7c-1.6,2.5-2.9,5.2-3.8,8.1c0,0-10.9,14.3-8.6,33.7c0.2,2,1.5,6.4,3.7,6
			s6.7-0.7,6.7-0.7"/>
		<path class="st0" d="M91.5,173.2c-0.3,0-0.6,0-0.9,0c-1.7-0.1-2.6-0.4-3.5-0.6c-0.9-0.3-1.8-0.5-3.5-0.5c-1.7,0-3.5,0.3-5.2,0.6
			c-1.9,0.3-3.7,0.6-5.3,0.6l-1.1,0l0.7-0.8c0.1-0.1,13.4-14.6,7.6-24l0.9-0.5c5.5,8.8-4.1,21-6.9,24.4c1.3-0.1,2.6-0.3,4-0.5
			c1.8-0.3,3.6-0.6,5.4-0.6c1.9,0,2.9,0.3,3.8,0.6c0.8,0.2,1.7,0.5,3.3,0.6c1.6,0.1,3.3-0.2,4.7-1c0-1.8,0.1-11.5,0-13.4
			c-0.3-7.6-7.5-13.6-14.4-19.5c-2.7-2.3-5.5-4.6-7.8-7c-8.3-8.5-12.5-24.9-12.3-36c0.2-10.8,4.4-20,8.4-24.3
			c3.8-4.1,9-3.1,12.1-2.6c0.3,0.1,0.6,0.1,0.9,0.2c3.1,0.5,6.2,0.1,9-1.2c1.6-1,2.9-2.5,3.7-4.2c0.3-1.6,0.4-3.2,0.4-4.8
			c-1.1-0.4-4.3-1.7-5.6-3.4c-0.5-0.7-1.1-2.1-1.7-4c-1.4-3.7-3.3-8.7-6.4-12c-4.5-4.8-8.8-7-20.8-6.9C49.1,32.2,34.9,42.6,29.4,52
			c-1.6,2.5-2.9,5.2-3.8,8l-0.1,0.1c-0.1,0.1-10.7,14.4-8.5,33.4c0.2,1.6,1,4.4,2.2,5.3c0.3,0.2,0.6,0.3,0.9,0.3
			c2.2-0.4,6.6-0.7,6.8-0.7l0.1,1c0,0-4.5,0.3-6.7,0.7c-0.6,0.1-1.2-0.1-1.7-0.4c-1.5-1.2-2.4-4.3-2.6-6c-2.2-18.7,7.8-32.9,8.6-34
			c1-2.9,2.2-5.6,3.9-8.1c5.6-9.5,20.2-20.3,32.2-20.4c12.3-0.1,16.9,2.3,21.6,7.2c3.3,3.5,5.2,8.6,6.7,12.3
			c0.6,1.7,1.2,3.1,1.6,3.7c1.3,1.8,5.4,3.2,5.4,3.2l0.3,0.1l0,0.4c0,1.8-0.1,3.6-0.4,5.4l0,0.1c-0.9,2-2.3,3.6-4.2,4.8
			c-3.1,1.4-6.4,1.9-9.6,1.3c-0.3,0-0.6-0.1-0.9-0.2c-3.1-0.6-7.7-1.5-11.2,2.3c-3.8,4.1-7.9,13.2-8.1,23.7
			c-0.2,10.9,3.9,26.9,12,35.2c2.3,2.4,5.1,4.7,7.7,7c7.1,6,14.4,12.2,14.8,20.2c0.1,2,0,13.2,0,13.7l0,0.3l-0.2,0.1
			C94.8,172.8,93.2,173.2,91.5,173.2z"/>
	</g>
	<g>
		<path class="st0" d="M22.9,76.7c0,4.9,0.7,9.8,2,14.5c1.2,4.7,2.9,9.3,5.1,13.7c1.1,2.2,2.3,4.3,3.7,6.3c1.3,2,2.8,4,4.4,5.8
			c3.2,3.7,6.9,6.9,11,9.6c2,1.4,4.1,2.6,6.3,3.8s4.2,2.5,6.4,3.8c4.2,2.6,8.4,5.2,12.4,8.1c4.1,2.8,7.9,6,11.4,9.4
			c1.7,1.8,3.2,3.8,4.4,6c0.6,1.1,1,2.3,1.3,3.5c0.2,1.2,0.1,2.5-0.3,3.7c0.3-1.2,0.3-2.4,0-3.6c-0.3-1.2-0.8-2.3-1.4-3.3
			c-1.3-2.1-2.9-3.9-4.7-5.6c-3.5-3.4-7.3-6.5-11.3-9.3c-4-2.8-8.1-5.5-12.3-8c-2.1-1.3-4.2-2.5-6.3-3.8s-4.3-2.5-6.3-3.9
			c-4.2-2.7-7.9-6-11.2-9.8c-1.6-1.9-3.1-3.9-4.5-5.9c-1.3-2.1-2.6-4.2-3.7-6.4c-2.3-4.4-4-9.1-5.2-13.9c-0.5-2.4-0.9-4.9-1.1-7.3
			C22.7,81.7,22.7,79.2,22.9,76.7z"/>
	</g>
	<g>
		<path class="st0" d="M63.2,48.6c1.8,0.3,3.6,0.5,5.5,0.5c1.8,0,3.6-0.4,5.3-1.2c-0.7,0.7-1.5,1.3-2.4,1.6
			c-0.9,0.3-1.9,0.5-2.9,0.5c-1,0-1.9-0.1-2.9-0.4C64.9,49.5,64,49.2,63.2,48.6z"/>
	</g>
	<g>
		<path class="st0" d="M55.3,87.3c-0.7-0.8-1.6-1.5-2.6-1.9c-1-0.4-2-0.6-3.1-0.5c-1-0.1-2,0.2-2.9,0.7c-0.9,0.5-1.7,1.2-2.2,2
			l0.1-0.3c0.1,3.2,0.2,6.5,0.4,9.7c0.1,1.6,0.2,3.2,0.3,4.8c0.1,0.8,0.1,1.6,0.2,2.4c0.1,0.8,0.2,1.5,0.4,2.3
			c0.1,0.3,0.2,0.4,0.4,0.4c0.3-0.1,0.6-0.2,0.8-0.4c0.6-0.5,1.1-1.1,1.5-1.7c0.9-1.3,1.8-2.6,2.5-4c1.4-2.9,3-5.7,4.3-8.7
			c-0.4,1.6-0.9,3.1-1.4,4.7c-0.5,1.5-1.2,3-2,4.5c-0.8,1.5-1.6,2.9-2.6,4.2c-0.5,0.7-1.1,1.3-1.7,1.9c-0.4,0.3-0.9,0.6-1.4,0.6
			c-0.3,0-0.7-0.1-0.9-0.4c-0.2-0.2-0.3-0.4-0.4-0.7c-0.2-0.8-0.3-1.7-0.4-2.5c-0.1-0.8-0.2-1.6-0.2-2.4c-0.1-1.6-0.2-3.2-0.3-4.9
			c-0.2-3.2-0.3-6.5-0.4-9.7v-0.2l0.1-0.1c0.7-1,1.6-1.8,2.6-2.4c1.1-0.6,2.2-0.9,3.4-0.8C52,84.1,54.1,85.3,55.3,87.3z"/>
	</g>
	<g>
		<path class="st4" d="M111.1,148c-6.1,9.9,7.6,24.6,7.6,24.6c-3.1,0.1-7-1.2-10.5-1.2s-3.6,1-7.1,1.2c-1.8,0.2-3.6-0.2-5.2-1.2
			c0,0-0.1-11.6,0-13.7c0.5-10.8,13.9-18.2,22.4-26.9s12.4-25.1,12.2-35.6s-4.2-19.7-8.3-24s-9.6-2.7-12.5-2.2
			c-3.2,0.5-6.4,0.1-9.3-1.3c-1.8-1.1-3.2-2.6-4-4.5c-0.3-1.7-0.5-3.5-0.4-5.3c0,0,4.2-1.4,5.7-3.4s3.4-10.9,8.2-16
			c4.5-4.8,8.9-7.2,21.2-7.1s26.6,11.2,31.9,20.1c1.6,2.5,2.9,5.2,3.8,8.1c0,0,10.9,14.3,8.6,33.7c-0.2,2-1.5,6.4-3.7,6
			s-6.7-0.7-6.7-0.7"/>
		<path class="st0" d="M100.3,173.1c-1.6,0-3.2-0.4-4.7-1.3l-0.2-0.1l0-0.3c0-0.5-0.1-11.7,0-13.7c0.3-8,7.7-14.2,14.8-20.2
			c2.7-2.3,5.4-4.6,7.7-7c8.1-8.4,12.3-24.4,12-35.2c-0.2-10.5-4.4-19.6-8.1-23.7c-3.4-3.7-8.1-2.8-11.2-2.3
			c-0.3,0.1-0.6,0.1-0.9,0.2c-3.3,0.5-6.6,0.1-9.6-1.3c-1.9-1.1-3.4-2.8-4.2-4.8l0-0.1c-0.3-1.8-0.5-3.6-0.4-5.4l0-0.4l0.3-0.1
			c0,0,4.1-1.4,5.4-3.2c0.4-0.6,1-2,1.6-3.7c1.4-3.7,3.3-8.8,6.7-12.3c4.6-4.9,9.3-7.3,21.6-7.2c12,0.1,26.7,10.8,32.3,20.4
			c1.6,2.5,2.9,5.3,3.8,8.1c0.8,1.1,10.8,15.3,8.6,34c-0.2,1.7-1.1,4.8-2.6,6c-0.5,0.4-1.1,0.6-1.7,0.4c-2.2-0.4-6.6-0.7-6.6-0.7
			l0.1-1c0.2,0,4.5,0.4,6.7,0.7c0.3,0.1,0.6,0,0.9-0.3c1.2-0.9,2-3.7,2.2-5.3c2.2-19-8.4-33.2-8.5-33.4l-0.1-0.1
			c-0.9-2.8-2.2-5.5-3.8-8c-5.5-9.3-19.7-19.8-31.4-19.9c-12-0.1-16.3,2.1-20.8,6.9c-3.2,3.3-5.1,8.3-6.4,12c-0.7,1.8-1.2,3.3-1.8,4
			c-1.3,1.8-4.5,3-5.6,3.4c0,1.6,0.1,3.2,0.4,4.8c0.8,1.8,2.1,3.3,3.8,4.3c2.8,1.3,5.9,1.7,9,1.2c0.3,0,0.6-0.1,0.9-0.2
			c3.1-0.6,8.3-1.6,12.1,2.6c4,4.3,8.1,13.5,8.4,24.3c0.3,11-4,27.4-12.3,35.9c-2.4,2.4-5.1,4.8-7.8,7c-6.9,5.9-14.1,11.9-14.4,19.5
			c-0.1,1.8,0,11.5,0,13.4c1.4,0.8,3,1.1,4.7,1c1.6-0.1,2.5-0.3,3.3-0.6c0.9-0.3,1.9-0.6,3.8-0.6c1.8,0,3.6,0.3,5.4,0.6
			c1.4,0.2,2.8,0.5,4,0.5c-2.9-3.3-12.4-15.5-6.9-24.4l0.8,0.5c-5.8,9.4,7.4,23.9,7.6,24l0.7,0.8l-1.1,0c-1.7,0.1-3.4-0.2-5.3-0.6
			c-1.7-0.3-3.5-0.6-5.2-0.6c-1.8,0-2.6,0.3-3.5,0.5c-0.9,0.3-1.8,0.5-3.5,0.6C100.9,173.1,100.6,173.1,100.3,173.1z"/>
	</g>
	<g id="Ebene_12">
		<g>
			<path class="st4" d="M109.1,147.2h3c0,0,8.7-6.6,14.5-10.1c5.7-3.5,17.6-10,21.8-14s12.7-11.7,17.5-26.7"/>
		</g>
	</g>
	<g>
		<path class="st0" d="M129.1,48.1c-0.8,0.5-1.7,0.9-2.6,1.2c-0.9,0.3-1.9,0.4-2.9,0.4c-1,0-2-0.2-2.9-0.5c-0.9-0.3-1.7-0.9-2.4-1.6
			c1.6,0.8,3.4,1.2,5.3,1.2C125.5,48.6,127.3,48.5,129.1,48.1z"/>
	</g>
	<g>
		<path class="st0" d="M168.9,76.7c0.2,2.5,0.2,4.9,0,7.4c-0.2,2.5-0.6,4.9-1.1,7.3c-1.2,4.8-2.9,9.5-5.2,13.9
			c-1.1,2.2-2.4,4.3-3.7,6.4c-1.4,2.1-2.9,4.1-4.5,5.9c-3.2,3.8-7,7.1-11.2,9.8c-2.1,1.4-4.2,2.6-6.3,3.9s-4.2,2.5-6.3,3.8
			c-4.2,2.5-8.3,5.2-12.3,8c-4,2.8-7.8,5.9-11.2,9.3c-1.8,1.6-3.4,3.5-4.7,5.6c-0.6,1-1.1,2.1-1.4,3.3c-0.3,1.2-0.3,2.4,0.1,3.6
			c-0.4-1.2-0.5-2.4-0.3-3.7c0.2-1.2,0.7-2.4,1.3-3.5c1.2-2.2,2.7-4.2,4.4-6c3.5-3.5,7.4-6.6,11.4-9.4c4-2.9,8.2-5.5,12.4-8.1
			c2.1-1.3,4.2-2.5,6.4-3.8s4.2-2.5,6.3-3.8c4.1-2.7,7.8-5.9,11-9.6c1.6-1.9,3-3.8,4.4-5.8c1.3-2.1,2.6-4.2,3.7-6.3
			c2.2-4.3,4-8.9,5.1-13.7C168.3,86.5,168.9,81.6,168.9,76.7z"/>
	</g>
	<g>
		<path class="st0" d="M136.5,87.3c1.2-2,3.3-3.3,5.6-3.4c1.2,0,2.4,0.2,3.4,0.8c1,0.6,1.9,1.4,2.6,2.3l0.1,0.1v0.2
			c-0.1,3.3-0.2,6.5-0.3,9.7c-0.1,1.6-0.2,3.2-0.3,4.9c-0.1,0.8-0.1,1.6-0.2,2.4c-0.1,0.8-0.2,1.7-0.4,2.5c-0.1,0.3-0.2,0.5-0.4,0.7
			c-0.2,0.2-0.6,0.4-0.9,0.4c-0.5,0-1-0.3-1.4-0.6c-0.7-0.5-1.2-1.2-1.7-1.9c-1-1.3-1.8-2.7-2.6-4.2c-0.8-1.4-1.5-2.9-2-4.5
			c-0.5-1.5-1-3.1-1.4-4.7c1.3,3,2.9,5.8,4.3,8.7c0.7,1.4,1.6,2.8,2.5,4.1c0.4,0.6,1,1.2,1.6,1.7c0.2,0.2,0.5,0.3,0.8,0.4
			c0.1,0,0.2-0.1,0.4-0.4c0.2-0.8,0.3-1.5,0.4-2.3c0.1-0.8,0.2-1.6,0.2-2.4c0.1-1.6,0.2-3.2,0.3-4.8c0.2-3.2,0.3-6.5,0.4-9.7
			l0.1,0.3c-0.6-0.8-1.4-1.5-2.2-2c-0.9-0.5-1.9-0.7-2.9-0.7c-1.1,0-2.1,0.1-3.1,0.5C138.2,85.8,137.3,86.5,136.5,87.3z"/>
	</g>
</g>
</svg>
