<?xml version="1.0" encoding="utf-8"?>
<!-- Generator: Adobe Illustrator 22.0.1, SVG Export Plug-In . SVG Version: 6.00 Build 0)  -->
<svg version="1.1" xmlns="http://www.w3.org/2000/svg" xmlns:xlink="http://www.w3.org/1999/xlink" x="0px" y="0px"
	 viewBox="0 0 322.5 274.5" style="enable-background:new 0 0 322.5 274.5;" xml:space="preserve">
<style type="text/css">
	.st0{fill:#5D5755;}
	.st1{fill:#C0BE70;}
	.st2{fill:none;stroke:#DDDEDF;stroke-width:2;stroke-miterlimit:10;}
	.st3{fill:none;stroke:#C0BE70;stroke-width:2;stroke-miterlimit:10;}
	.st4{fill:#7B3B3C;}
	.st5{fill:#4F515E;}
	.st6{fill:#DDDEDF;}
	.st7{fill:#0C0C0B;}
	.st8{fill:#AEA365;}
	.st9{fill:#483642;}
	.st10{fill:#020202;}
	.st11{fill:#4B3D48;}
	.st12{fill:#493945;}
	.st13{fill:none;stroke:#493744;stroke-width:2;stroke-miterlimit:10;}
	.st14{fill:none;stroke:#020202;stroke-miterlimit:10;}
	.st15{display:none;}
	.st16{fill:#1D1D1B;}
	.st17{fill:none;stroke:#1D1D1B;stroke-miterlimit:10;}
	.st18{fill:none;}
</style>
<g id="Ebene_1">
</g>
<g id="Ebene_2">
</g>
<g id="Ebene_3">
</g>
<g id="Ebene_4">
</g>
<g id="Ebene_5">
	<g>
		<g>
			<path class="st10" d="M90.3,232.9c-0.8,0-1.5-0.2-2.1-0.8c-2-1.6-1.2-4.8-0.9-5.8l0.1-0.5l0.3-0.4c3.9-4.2,12.5-17.5,9.8-51.8
				l-0.8-0.4C74,162.5,52.6,152.3,46,132.5c-1.2-3.6-0.5-9.9,0.1-15.5c0.3-2.6,0.5-5.1,0.5-6.7c0-15,1-33.7,9.2-44.4
				c3.1-4,12.1-8.4,20.8-12.7c5.4-2.6,10.5-5.1,13-7c17.9-13.3,28-16.6,51.6-17.1c2.1,0,5.8-0.6,9.8-1.3c4.7-0.8,9.5-1.5,12.7-1.5
				c4.7,0,10.8,1.1,17.3,2.3c6.1,1.1,12.4,2.2,17,2.3l0.9,0c14.1,0.1,22.6,0.2,33.4,5c6.6,2.9,13.6,12.1,19.8,20.2
				c3.7,4.9,7.2,9.5,9.9,11.8l0,0c15.5,13.2,22.3,20.9,22.3,40.3c0,18.5-9.5,45.9-27.1,60.3c-6,4.9-12.7,6.1-19.8,7.4
				c-3.2,0.6-6.5,1.2-9.9,2.1c-3.7,1-8.1,3.3-12.7,5.7c-7,3.6-14.3,7.4-21.1,8c-5.3,0.4-10.9-0.6-16.3-1.5c-4.4-0.8-9-1.6-13.3-1.6
				c-11.3,0-22.4-1.1-33.1-3.3c-14.4,35.2-36.7,46.5-37.7,47C92.2,232.6,91.2,232.9,90.3,232.9z M89.4,228.5c0,0-0.3,0.5-0.2,0.6
				c0.4,0.7,0.7,1.3,1.3,1.8c0.3,0.3,1.1,0.2,1.2,0.2c0.3-0.1,26.1-14.8,36.1-49.4l0.9,0.1l1.8,0.4c10.9,2.4,22.4,3.6,33.9,3.6
				c4.7,0,9.4,0.8,14,1.7c5.4,1,10.2,0.1,15-0.3c6-0.5,12.9-4.1,19.5-7.5c4.8-2.5,9.4-4.9,13.5-6c3.6-1,6-3.2,9.3-3.7
				c6.8-1.2,12.7-2.3,17.8-6.5c16-13.1,25.6-39.3,25.6-57c0-17.7-4.2-24.7-19.3-37.6c-3.1-2.6-6.7-7.4-10.5-12.4
				c-5.9-7.7-12.5-16.4-18.1-18.9c-10-4.5-18.7-2.4-32.2-2.5l-0.9,0c-5,0-11.5-1.2-17.7-2.3c-6-1.1-12.2-2.2-16.5-2.2
				c-2.8,0-7.5,0.8-12,1.5c-4.1,0.7-7.9,1.3-10.4,1.3c-22.8,0.5-30.1,0.4-47.4,13.2c-2.8,2.1-10.6,6.6-16.1,9.3
				c-7.5,3.7-16.6,6.5-19.1,9.7c-7.4,9.7-7.8,28.6-7.8,43c0,1.9-0.3,4.5-0.6,7.2c-0.5,4.9-1.2,10.9-0.3,13.7
				c6,18.1,26.7,27.9,48.5,38.4l3,1.4l-0.1,2.9C102.9,187.3,101.5,215,89.4,228.5z"/>
		</g>
		<circle class="st10" cx="123.1" cy="98.8" r="6.7"/>
		<circle class="st10" cx="154.3" cy="104.7" r="5.8"/>
		<circle class="st10" cx="182.9" cy="104.7" r="5.8"/>
	</g>
</g>
<g id="Ebene_6" class="st15">
</g>
<g id="Ebene_8">
</g>
<g id="Ebene_7">
</g>
<g id="Ebene_9">
</g>
<g id="Ebene_12" class="st15">
</g>
<g id="Ebene_13">
</g>
<g id="Ebene_10" class="st15">
</g>
<g id="Ebene_11">
</g>
</svg>
