<?xml version="1.0" encoding="utf-8"?>
<!-- Generator: Adobe Illustrator 22.0.1, SVG Export Plug-In . SVG Version: 6.00 Build 0)  -->
<svg version="1.1" xmlns="http://www.w3.org/2000/svg" xmlns:xlink="http://www.w3.org/1999/xlink" x="0px" y="0px"
	 viewBox="0 0 292.5 265.5" style="enable-background:new 0 0 292.5 265.5;" xml:space="preserve">
<style type="text/css">
	.st0{fill:#5D5755;}
	.st1{fill:#C0BE70;}
	.st2{fill:none;stroke:#DDDEDF;stroke-width:2;stroke-miterlimit:10;}
	.st3{fill:none;stroke:#C0BE70;stroke-width:2;stroke-miterlimit:10;}
	.st4{fill:#7B3B3C;}
	.st5{fill:#4F515E;}
	.st6{fill:#DDDEDF;}
	.st7{fill:#0C0C0B;}
	.st8{fill:#AEA365;}
	.st9{fill:#483642;}
	.st10{fill:#020202;}
	.st11{fill:#4B3D48;}
	.st12{fill:#493945;}
	.st13{fill:none;stroke:#493744;stroke-width:2;stroke-miterlimit:10;}
	.st14{fill:none;stroke:#020202;stroke-miterlimit:10;}
	.st15{display:none;}
	.st16{fill:#1D1D1B;}
	.st17{fill:none;stroke:#1D1D1B;stroke-miterlimit:10;}
	.st18{fill:none;}
</style>
<g id="Ebene_1">
</g>
<g id="Ebene_2">
</g>
<g id="Ebene_3">
</g>
<g id="Ebene_4">
</g>
<g id="Ebene_5">
	<g>
		<g>
			<path class="st7" d="M143.4,80c10.3-7.3,20.5-7.2,30.9,0c1.5-1.7,3-3.3,4.4-5.1c0.3-0.4,0.1-1.2-0.1-1.8
				c-2.6-9.6,0.6-19.2,8.5-25.1c13.1-9.9,32.5-2.7,35.8,13.4c0.4,1.9,1.1,3.3,2.7,4.5c4.2,3.2,6.9,7.7,8.4,12.6
				c2.8,8.9,5.3,17.8,7.7,26.7c4,15.1,8.2,30.2,11.8,45.5c5.1,21.6-10.4,43.2-32.4,46c-21.5,2.7-40.7-12.4-43.1-34.1
				c-0.1-0.7-0.1-1.4-0.1-2.3c-12.8,8-25.6,8.1-38.4,0.1c-0.5,2.8-0.9,5.6-1.7,8.4c-3.9,14.8-16.7,25.9-31.9,27.8
				c-23.8,3-44.3-15.8-43.3-39.8c0.2-4.3,1.4-8.3,2.7-12.3c1.8-5.6,3.2-11.4,4.8-17.2c4.4-16.1,8.7-32.2,13.3-48.2
				c1.6-5.6,4.4-10.5,9.3-14.1c0.6-0.4,0.9-1.5,1-2.3c1.8-10,8.5-16.9,18.3-18.8c14.2-2.9,27.8,8.6,27.2,23.1c-0.1,2-0.5,4-0.8,6
				c-0.1,0.5-0.2,1.2,0.1,1.5C140.1,76.4,141.7,78.2,143.4,80z M76.8,129.4c0.8-0.5,2.3-2.3,2.8-2.6c5.6-3.7,11.7-5.9,18.4-6.4
				c17.5-1.3,33.2,9,39.2,25.6c1,2.9,2.7,5.3,5.1,7.2c8.1,6.3,19,9.6,28.4,6.2c5.2-1.9,8.8-6.8,10.1-13.5c6.8-23,37-33.3,57.8-18.4
				c0.4,0.3,3.4,2.6,3.9,3c0-0.5,0.1,0.2,0,0c-2.5-9.4-10.1-44.3-12.3-50.7c-2.1-8.5-6.7-12-11.9-14.8c-7.2-4.2-19.5-2.2-26.8,3.4
				c-1.9,1.5-9.3,8.4-15.8,20.8c-0.2,0.5-1,0.5-1.2,0c-1.5-3.8-4.4-7.1-4.5-7.1c-5.3-6.1-20.4-5.5-27.6,7.3
				c-0.3,0.5-1.1,0.5-1.2-0.1c-1.2-4.3-2.3-8.3-10.2-16.6c-5.3-5.6-14.5-10-22.5-9.3c-3.9,0.4-8.7,1.4-12,3.6
				c-4.2,2.7-8.7,6.7-10,11.3C83.4,89.3,78,125,76.8,129.4z M248.1,156.7C248,139.8,231,125,214,125c-17,0-31.2,16.5-31.1,33.6
				c0.1,16.8,17.4,32.3,34.3,32.2C234.2,190.7,248.2,173.7,248.1,156.7z M66.1,158.8c0,15.9,15.3,30.6,31.3,32.2
				c20.8,2,37.3-14.3,34.8-37.8c-3.2-17.5-20.3-29.3-34.5-29C74,125.6,64.2,152.7,66.1,158.8z M185.7,67.9c8.3-7.6,18-9.8,28.9-7.3
				c-0.3-7.3-9.6-16-18.9-13.2C188.4,49.3,183.7,57.8,185.7,67.9z M102.3,60.7c10.9-2.5,20.7-0.8,29.1,6.8
				c1.9-6.1,0.8-17.1-10.2-19.6C110.1,45.3,103.3,53.1,102.3,60.7z"/>
			<path class="st7" d="M158.5,154.3c-4.9,0-9.6-1.9-13.1-5.5c-3.6-3.6-5.5-8.3-5.5-13.3c0-5,2-9.6,5.5-13.1
				c3.5-3.5,8.2-5.4,13.2-5.4c0,0,0,0,0,0c5,0,9.6,2,13.2,5.6c3.5,3.6,5.5,8.3,5.4,13.2C177.1,146,168.8,154.3,158.5,154.3
				C158.5,154.3,158.5,154.3,158.5,154.3z M157.4,121.7c-3.2,0-7.1,1.2-9.4,3.5c-2.3,2.3-3.6,6.2-3.6,9.4c0,3.2,2,7.1,4.3,9.4
				c2.3,2.3,6.8,3.7,9.9,3.7c0,0,0,0,0,0c6.6,0,12-5.4,12.1-11.9c0-3.2-1.1-5.9-2.8-8.6C164.3,121.7,157.4,121.7,157.4,121.7z"/>
			<path class="st7" d="M79.2,157.3l5.7,0.7c0.9,0.1,1.5,0.9,1.5,1.8c-0.2,2.4-0.1,5,0.5,7.1c2.6,7.6,8.3,11.6,14.1,11.9l-0.1,2.9
				c-10.5,0.3-20.7-8.1-22.5-18.6c-0.1-0.9-0.3-3.4-0.2-4.8C78.2,157.7,78.7,157.3,79.2,157.3z"/>
			<path class="st7" d="M196,157.4l5.6,0.7c0.7,0.1,1.1,0.7,1.1,1.4c-0.2,2.5-0.2,5.2,0.4,7.4c2.6,7.6,8.3,11.6,14.1,11.9l-0.1,2.9
				c-10.5,0.3-20.7-8.1-22.5-18.6c-0.1-0.8-0.3-2.8-0.2-4.3C194.4,157.9,195.2,157.3,196,157.4z"/>
		</g>
	</g>
</g>
<g id="Ebene_6" class="st15">
</g>
<g id="Ebene_8">
</g>
<g id="Ebene_7">
</g>
<g id="Ebene_9">
</g>
<g id="Ebene_12" class="st15">
</g>
<g id="Ebene_13">
</g>
<g id="Ebene_10" class="st15">
</g>
<g id="Ebene_11">
</g>
</svg>
