<?xml version="1.0" encoding="utf-8"?>
<!-- Generator: Adobe Illustrator 22.0.1, SVG Export Plug-In . SVG Version: 6.00 Build 0)  -->
<svg version="1.1" xmlns="http://www.w3.org/2000/svg" xmlns:xlink="http://www.w3.org/1999/xlink" x="0px" y="0px"
	 viewBox="0 0 291 304.5" style="enable-background:new 0 0 291 304.5;" xml:space="preserve">
<style type="text/css">
	.st0{fill:#5D5755;}
	.st1{fill:#C0BE70;}
	.st2{fill:none;stroke:#DDDEDF;stroke-width:2;stroke-miterlimit:10;}
	.st3{fill:none;stroke:#C0BE70;stroke-width:2;stroke-miterlimit:10;}
	.st4{fill:#7B3B3C;}
	.st5{fill:#4F515E;}
	.st6{fill:#DDDEDF;}
	.st7{fill:#0C0C0B;}
	.st8{fill:#AEA365;}
	.st9{fill:#483642;}
	.st10{fill:#020202;}
	.st11{fill:#4B3D48;}
	.st12{fill:#493945;}
	.st13{fill:none;stroke:#493744;stroke-width:2;stroke-miterlimit:10;}
	.st14{fill:none;stroke:#020202;stroke-miterlimit:10;}
	.st15{display:none;}
	.st16{fill:#1D1D1B;}
	.st17{fill:none;stroke:#1D1D1B;stroke-miterlimit:10;}
	.st18{fill:none;}
</style>
<g id="Ebene_1">
</g>
<g id="Ebene_2">
</g>
<g id="Ebene_3">
</g>
<g id="Ebene_4">
</g>
<g id="Ebene_5">
</g>
<g id="Ebene_6" class="st15">
</g>
<g id="Ebene_8">
</g>
<g id="Ebene_7">
</g>
<g id="Ebene_9">
	<path class="st16" d="M148.2,39.6c-12.1,0-22,10.6-22,23.7c0,13.1,9.8,23.7,22,23.7s22-10.6,22-23.7
		C170.1,50.2,160.3,39.6,148.2,39.6z M147.3,83.8c-10.2,0-15.7-8.6-15.7-20.5c0-11.9,6.2-20.7,16.4-20.7c10.2,0,16.6,9.1,16.6,21
		C164.5,75.5,157.5,83.8,147.3,83.8z"/>
	<path class="st16" d="M160.8,239.9l5.6-113.9l21-0.2l1.6-18.7l-86.6,0.9l2.2,16.4l26.9,0.6l2.2,115.2l-22.5,4l2.6,12.4l77.4,3.5
		l1.3-16.1L160.8,239.9z M187.4,255.1l-71-1.7v-6.8l22.4-4.1L135,121.9l-26.7-1.4l-0.2-9.4l77.7,1.4l-0.9,9.1l-23,1.7l-5.8,120.6
		l31.4,2.8V255.1z"/>
</g>
<g id="Ebene_12" class="st15">
</g>
<g id="Ebene_13">
</g>
<g id="Ebene_10" class="st15">
</g>
<g id="Ebene_11">
</g>
</svg>
