<?xml version="1.0" encoding="utf-8"?>
<!-- Generator: Adobe Illustrator 22.0.1, SVG Export Plug-In . SVG Version: 6.00 Build 0)  -->
<svg version="1.1" xmlns="http://www.w3.org/2000/svg" xmlns:xlink="http://www.w3.org/1999/xlink" x="0px" y="0px"
	 viewBox="0 0 286.5 273" style="enable-background:new 0 0 286.5 273;" xml:space="preserve">
<style type="text/css">
	.st0{fill:#5D5755;}
	.st1{fill:#C0BE70;}
	.st2{fill:none;stroke:#DDDEDF;stroke-width:2;stroke-miterlimit:10;}
	.st3{fill:none;stroke:#C0BE70;stroke-width:2;stroke-miterlimit:10;}
	.st4{fill:#7B3B3C;}
	.st5{fill:#4F515E;}
	.st6{fill:#DDDEDF;}
	.st7{fill:#0C0C0B;}
	.st8{fill:#AEA365;}
	.st9{fill:#483642;}
	.st10{fill:#020202;}
	.st11{fill:#4B3D48;}
	.st12{fill:#493945;}
	.st13{fill:none;stroke:#493744;stroke-width:2;stroke-miterlimit:10;}
	.st14{fill:none;stroke:#020202;stroke-miterlimit:10;}
	.st15{display:none;}
	.st16{fill:#1D1D1B;}
	.st17{fill:none;stroke:#1D1D1B;stroke-miterlimit:10;}
	.st18{fill:none;}
</style>
<g id="Ebene_1">
</g>
<g id="Ebene_2">
</g>
<g id="Ebene_3">
</g>
<g id="Ebene_4">
</g>
<g id="Ebene_5">
</g>
<g id="Ebene_6" class="st15">
</g>
<g id="Ebene_8">
</g>
<g id="Ebene_7">
</g>
<g id="Ebene_9">
	<g>
		<path class="st16" d="M149.5,189c-39.9,0-72.4-32.4-72.4-72.2s27.6-73.5,72.4-72.2c39.9,1.2,71.1,25.6,72.4,72.2
			C223.1,156.6,189.5,189,149.5,189z M152.8,49c-43.3-2.7-68.2,28.6-68.2,67c0,38.3,26.5,68.3,64.9,67.1c48.6-1.5,70-39.4,68.5-66.3
			C215.9,78.5,191.3,49,152.8,49z"/>
	</g>
	<g>
		<path class="st16" d="M148.4,232.4l-2.3-0.2c-0.1-0.3-6.8-27.5-29-39.3c-13.8-7.3-29.8-8.7-50.3,0.4l-1.4-1.7l0,0
			c0.2-0.2,12.8-23.5,5.5-46.7c-4.2-13.5-11.6-25.4-29.6-32.5l0-2.2l0,0C41.6,110,64.8,103,71,83.8c4.1-12.9-0.6-28.9-12.6-45.7
			l1.6-1.7l0,0c0.3,0.2,28.1,14.4,50.6,4.8c12.3-5.2,21.3-14.7,25.6-33.4l2.2-0.3l0,0c0.1,0.3,16.8,23.8,41.9,28.7
			c14.2,2.7,27.6,1.5,42.5-10.8l0,0l1.9,1.3c-0.1,0.4-9.3,33.5,5.8,56.1c7.5,11.2,18,19.7,35.8,21l0,0l0.3,2.3
			c-0.3,0.1-26.9,12.1-33.6,36.1c-4.2,14.8-1.6,30.7,12.6,48.8l0,1.3l-1.4,0.5c-0.3-0.2-30.7-11.3-58.6,0.1
			C169,199.5,156.1,210.3,148.4,232.4L148.4,232.4z M98,183.3c7.9,0,15.1,1.7,21.6,5.2c17,9.1,23.7,24.6,26.4,33.8
			c0.2,0.7,1.2,0.8,1.5,0c8.1-19.2,20.9-29.3,36.6-35.7c21-8.6,41.1-3.7,51.6,0.1c0.8,0.3,1.4-0.6,0.9-1.3
			c-11.2-16.5-12.4-31.1-8.4-45.1c5.1-18.1,20-28.1,29-32.8c0.7-0.4,0.5-1.4-0.3-1.5c-14.7-2.5-23.9-9.7-30.8-19.9
			c-12.1-18.1-8.7-40.8-6.1-51.7c0.2-0.7-0.7-1.3-1.3-0.8c-13.9,9.9-27.1,11-40.5,8.4c-20.5-4-32.9-19.5-38.1-27.3
			c-0.4-0.6-1.3-0.4-1.5,0.3c-4.9,16.7-14.7,25.7-26.6,30.8c-17,7.2-34.3,1.6-44-2.8c-0.7-0.3-1.4,0.5-1,1.2
			c9.3,15,13.3,28.7,9.4,40.7c-4.9,15.1-20.2,21.4-27.6,24.5c-0.7,0.3-0.6,1.2,0,1.5c16,7.4,24.1,18.6,28.1,31.7
			c5.7,18.2-0.8,34.1-5.2,42.3c-0.3,0.6,0.3,1.3,1,1.2C83,183.6,89.7,183.3,98,183.3z"/>
	</g>
</g>
<g id="Ebene_12" class="st15">
</g>
<g id="Ebene_13">
</g>
<g id="Ebene_10" class="st15">
</g>
<g id="Ebene_11">
</g>
</svg>
