<?xml version="1.0" encoding="utf-8"?>
<!-- Generator: Adobe Illustrator 22.0.1, SVG Export Plug-In . SVG Version: 6.00 Build 0)  -->
<svg version="1.1" xmlns="http://www.w3.org/2000/svg" xmlns:xlink="http://www.w3.org/1999/xlink" x="0px" y="0px"
	 viewBox="0 0 322.5 307.5" style="enable-background:new 0 0 322.5 307.5;" xml:space="preserve">
<style type="text/css">
	.st0{fill:#5D5755;}
	.st1{fill:#C0BE70;}
	.st2{fill:none;stroke:#DDDEDF;stroke-width:2;stroke-miterlimit:10;}
	.st3{fill:none;stroke:#C0BE70;stroke-width:2;stroke-miterlimit:10;}
	.st4{fill:#7B3B3C;}
	.st5{fill:#4F515E;}
	.st6{fill:#DDDEDF;}
	.st7{fill:#0C0C0B;}
	.st8{fill:#AEA365;}
	.st9{fill:#483642;}
	.st10{fill:#020202;}
	.st11{fill:#4B3D48;}
	.st12{fill:#493945;}
	.st13{fill:none;stroke:#493744;stroke-width:2;stroke-miterlimit:10;}
	.st14{fill:none;stroke:#020202;stroke-miterlimit:10;}
	.st15{display:none;}
	.st16{fill:#1D1D1B;}
	.st17{fill:none;stroke:#1D1D1B;stroke-miterlimit:10;}
	.st18{fill:none;}
</style>
<g id="Ebene_1">
</g>
<g id="Ebene_2">
</g>
<g id="Ebene_3">
</g>
<g id="Ebene_4">
</g>
<g id="Ebene_5">
</g>
<g id="Ebene_6" class="st15">
</g>
<g id="Ebene_8">
</g>
<g id="Ebene_7">
</g>
<g id="Ebene_9">
</g>
<g id="Ebene_12" class="st15">
</g>
<g id="Ebene_13">
</g>
<g id="Ebene_10" class="st15">
</g>
<g id="Ebene_11">
	<path class="st16" d="M245.6,144.6l-7.8-79.1l-13.4-3.5l-12.7-39.2l-28.7,1l-5.1-5.7l-37.7,6.4l-2.5,12.1l-2.8-4.3l-29.2,18.4
		l0.4,8.4l-3.1-5.4L79.5,74.5l-2.1,10.7l-6.6,49.5l37.4,63.2l-7.5,86.2l6.4,0.6l7.3-88.1l-40.4-62.4L82.6,91l10.9,35.2l5.7,6.2
		l22,1.1l6.7-9.6l13.5,0.8l14.1-4.9l2-7.5l5,3.8l16.4-7.1l2.1-16.4l-0.3-0.1l16.7,9l11.6-7.8l-1.4-2.9l-12.2,6L173,87.2l-6.7-24.7
		l9.1-9.9L211.5,66l11.7-0.5l8.2,1.7l10.6,72.5l-45,50.3l8.2,85.4l3-0.2l-5.5-86.7L245.6,144.6z M211.8,61.2l-39.5-12.1l-9.4,13.4
		l8.1,26l6.1,2.5l0.3,16.3l-14,5.8l-6.5-5.4l-2.4-4.1l-1.2,0.4l1.4,5.7l-1.8,7.3l-11.4,5.5l-13.6-1.4l-1.5-3.2l-1.1-3.3l-1.4,0.5
		l0.6,3.5l0.4,4.3l-4.7,5.7l-19.4,0.4l-4.5-5.9L84.4,80.1l0.8-4.3l16.2-13.3l0,0l16.7,41.6l2.6,1.2l-10.4-37.8l-1.1-6.2l-0.5-6.5
		l23.6-14.6l0,0l14.7,46l2.3,1.1l-9-43.2l-0.7-5.4l3-11.7l34.7-1.4l1.6,20.5l1.5,0.3l2.1-19.8l26.1,2.5l12.5,32.3L211.8,61.2z"/>
</g>
</svg>
