<?xml version="1.0" encoding="utf-8"?>
<!-- Generator: Adobe Illustrator 22.0.1, SVG Export Plug-In . SVG Version: 6.00 Build 0)  -->
<svg version="1.1" xmlns="http://www.w3.org/2000/svg" xmlns:xlink="http://www.w3.org/1999/xlink" x="0px" y="0px"
	 viewBox="0 0 310.5 307.5" style="enable-background:new 0 0 310.5 307.5;" xml:space="preserve">
<style type="text/css">
	.st0{fill:#5D5755;}
	.st1{fill:#C0BE70;}
	.st2{fill:none;stroke:#DDDEDF;stroke-width:2;stroke-miterlimit:10;}
	.st3{fill:none;stroke:#C0BE70;stroke-width:2;stroke-miterlimit:10;}
	.st4{fill:#7B3B3C;}
	.st5{fill:#4F515E;}
	.st6{fill:#DDDEDF;}
	.st7{fill:#0C0C0B;}
	.st8{fill:#AEA365;}
	.st9{fill:#483642;}
	.st10{fill:#020202;}
	.st11{fill:#4B3D48;}
	.st12{fill:#493945;}
	.st13{fill:none;stroke:#493744;stroke-width:2;stroke-miterlimit:10;}
	.st14{fill:none;stroke:#020202;stroke-miterlimit:10;}
	.st15{display:none;}
	.st16{fill:#1D1D1B;}
	.st17{fill:none;stroke:#1D1D1B;stroke-miterlimit:10;}
	.st18{fill:none;}
</style>
<g id="Ebene_1">
</g>
<g id="Ebene_2">
</g>
<g id="Ebene_3">
</g>
<g id="Ebene_4">
</g>
<g id="Ebene_5">
	<g>
		<g>
			<path class="st10" d="M173.1,212.5c-21.8,0-44.4-14.9-56.1-39.3c-7.4-15.4-9.4-32.2-5.7-47.5c3.8-15.4,12.9-27.2,25.8-33.4
				c26.4-12.7,60.4,3,75.7,34.9c7.4,15.4,9.4,32.2,5.7,47.5c-3.8,15.4-12.9,27.2-25.8,33.4C186.4,211,179.8,212.5,173.1,212.5z
				 M158.9,92.7c-6.1,0-12.2,1.3-17.8,4c-11.7,5.6-20.1,16.5-23.6,30.7c-3.5,14.3-1.6,30.2,5.4,44.7c14.3,29.9,45.3,45.3,69.7,33.6
				c11.7-5.6,20.1-16.5,23.6-30.7c3.5-14.3,1.6-30.2-5.4-44.7C199.8,107.4,179.2,92.7,158.9,92.7z"/>
		</g>
		<g>
			<path class="st10" d="M162.5,259c-14,0-28.1-2.5-41.4-7.7c-26-10.1-45.7-28.9-55.4-52.9c-12.6-31.1-14.1-61.5-4.4-87.8
				c8.9-24.2,26.9-44.4,51.9-58.3c22.3-12.4,46.7-15,70.4-7.5c28.9,9.2,54,32.3,69,63.3c12.5,25.9,14.8,54.9,6.5,81.4
				c-8.3,26.6-26.2,47.7-50.4,59.3C194.6,255.6,178.6,259,162.5,259z M113.2,58.9c-23.2,15-37,32.4-45.6,55.7
				c-9.3,25.3-9.2,49.7,3.1,79.8c9.3,23,28.2,41,53.1,50.6c27.5,10.6,60.4,10.2,85.7-1.9c23.2-11.1,40.3-31.3,48.2-56.8
				c8-25.6,3.1-51.4-8.9-76.3c-14.2-29.6-44.9-59.5-76.3-62.6C163.7,46.5,138.2,42.7,113.2,58.9z"/>
		</g>
		<g>
			<path class="st10" d="M119.7,108.6l0.1-1.5c2.2-26-27.1-37.5-27.4-37.6l-0.9-0.4l29.3-19h0.1c8,0,14.4,2.6,19.1,7.7
				c10.2,11.3,8.1,31.4,8.1,31.6l0,0.4l-0.4,0.1c-13.7,2.6-26.9,17.4-27,17.5L119.7,108.6z M93.6,68.9c4.9,2.1,29.4,12.7,28.3,35.9
				c3.3-3.4,13.4-13.4,25.2-15.8c0.2-2.7,0.4-19.9-8.7-30c-4.4-4.9-10.8-7-18.5-7L93.6,68.9z"/>
		</g>
		<g>
			<path class="st10" d="M216.3,139.8c-0.1,0-0.1,0-0.2,0l-0.3,0l-4-10.1c-0.7-1.6-7.1-12.4-8.2-13.9l-9.5-12.1l0.4-0.3
				c0.3-0.2,25.3-17.6,26.6-32.3l0.1-1.1l0.8,0.8c1.3,1.4,31.7,34.2,32.4,49.1c0.1,2.4-1.3,5.3-3.9,8.1
				C244.9,133.7,233.1,139.8,216.3,139.8z M197,105l7.4,10.2c1.1,1.5,7.5,12.5,8.3,14.1l4.3,8.2c16.4,0,27-5.4,32.3-11
				c2.5-2.6,4.2-4.4,4.1-6.5c-0.6-13.3-26.7-42.5-31.4-47.7c-1,6.2-4.8,14.1-13,22C203.4,99.6,198.5,103.9,197,105z"/>
		</g>
		<g>
			<path class="st10" d="M212.9,243.3l0.3-1.2c3.1-14.1-20.8-34.2-21-34.4l-0.5-0.4l9.4-7.1c3.1-2.3,5.7-5.1,7.9-8.4l5.1-7.2l0.2,0
				c6.9-1,15,2.6,23.4,10.3c6.3,5.8,10.7,12,10.7,12l0.2,0.2l-5.3,10.4c-2.3,3.1-12.1,13.5-15.1,15.8L212.9,243.3z M193.2,207.4
				c1.6,1.3,7.7,5,12.4,10.8c7.2,8.7,10.9,16.6,10.2,22.7l11.8-8.1c2.9-2.3,12.6-12.5,14.8-15.6l5-9.8c-1.8-2.5-18.6-22.6-33.6-20.7
				l-4.1,5.8c-2.2,3.3-4.9,6.2-8.1,8.6L193.2,207.4z"/>
		</g>
		<g>
			<path class="st10" d="M97.2,237l-19.6-20.3c-1.2-1.3-2.3-2.7-3.1-4.3l-8-14.9l0.5-0.2c0.4-0.2,41.3-21.3,47.3-31.4l0.5-0.8
				l0.4,0.9c0.1,0.1,5.5,12.8,9.5,17.6c7.9,9.6,11.5,12.5,11.5,12.5l0.4,0.3l-0.3,0.4c-0.2,0.3-20,29.8-38.6,40L97.2,237z
				 M69.5,199.5l5.8,12.6c0.8,1.5,1.8,2.9,3,4.1l19.1,19.7c17.2-9.6,34.3-36.4,36.6-39.8c-1.1-0.9-3.6-3.6-10.2-11.7
				c-3.5-4.2-7.9-14-9.2-17C107.3,177.4,74.1,197.1,69.5,199.5z"/>
		</g>
		<path class="st10" d="M73.5,115c0,0-12,24.8-2.8,42.3c0,0,6.4,4.1,6.4-2.5c0,0-9.9-10.8-1.6-39.8C75.6,115,74.4,112.9,73.5,115z"
			/>
		<path class="st10" d="M231,172.9c0,0,5.6-18.6,0-26.9c0,0-3.8-1.4-3.8,1.7c0,0,6.1,10.3,2.4,24.2
			C229.6,171.9,229.6,173.7,231,172.9z"/>
	</g>
</g>
<g id="Ebene_6" class="st15">
</g>
<g id="Ebene_8">
</g>
<g id="Ebene_7">
</g>
<g id="Ebene_9">
</g>
<g id="Ebene_12" class="st15">
</g>
<g id="Ebene_13">
</g>
<g id="Ebene_10" class="st15">
</g>
<g id="Ebene_11">
</g>
</svg>
