<?xml version="1.0" encoding="utf-8"?>
<!-- Generator: Adobe Illustrator 22.0.1, SVG Export Plug-In . SVG Version: 6.00 Build 0)  -->
<svg version="1.1" xmlns="http://www.w3.org/2000/svg" xmlns:xlink="http://www.w3.org/1999/xlink" x="0px" y="0px"
	 viewBox="0 0 327 277.5" style="enable-background:new 0 0 327 277.5;" xml:space="preserve">
<style type="text/css">
	.st0{fill:#5D5755;}
	.st1{fill:#C0BE70;}
	.st2{fill:none;stroke:#DDDEDF;stroke-width:2;stroke-miterlimit:10;}
	.st3{fill:none;stroke:#C0BE70;stroke-width:2;stroke-miterlimit:10;}
	.st4{fill:#7B3B3C;}
	.st5{fill:#4F515E;}
	.st6{fill:#DDDEDF;}
	.st7{fill:#0C0C0B;}
	.st8{fill:#AEA365;}
	.st9{fill:#483642;}
	.st10{fill:#020202;}
	.st11{fill:#4B3D48;}
	.st12{fill:#493945;}
	.st13{fill:#ABBEE7;}
	.st14{fill:none;stroke:#493744;stroke-width:2;stroke-miterlimit:10;}
	.st15{fill:none;stroke:#020202;stroke-miterlimit:10;}
	.st16{display:none;}
	.st17{fill:#1D1D1B;}
	.st18{fill:none;}
	.st19{font-family:'Marion-Bold';}
	.st20{font-size:44.2715px;}
	.st21{fill:none;stroke:#1D1D1B;stroke-miterlimit:10;}
</style>
<g id="Ebene_1">
</g>
<g id="Ebene_2">
</g>
<g id="Ebene_3">
</g>
<g id="Ebene_4">
</g>
<g id="Ebene_5">
</g>
<g id="Ebene_6" class="st16">
</g>
<g id="Ebene_8">
</g>
<g id="Ebene_7">
	<g>
		<g>
			<g>
				<polygon class="st17" points="79.8,159 70.5,163.5 210.4,52 227.9,76.3 226.9,77.5 209,57 				"/>
			</g>
			<g>
				<path class="st17" d="M98.1,149.8l-0.9-0.9l101-73.1l0.4,0.3c11.8,7.5,18.6-2.2,18.9-2.6l0.7-0.7l4.2,7l-0.7,0.1l-3.6-4.8
					c-2.1,2.4-9.1,10-19.7,3.6L98.1,149.8z"/>
			</g>
			<g>
				<path class="st17" d="M109.8,134.1l-1.1-0.6l67-73.6l0.4,0.2c13.1,4.8,16.2-5.4,16.2-5.4l6.7,7.7l-0.7,0.2l-5.7-5.6
					c-2.3,2.3-5.8,9.1-16.3,5.5L109.8,134.1z"/>
			</g>
			<g>
				<polygon class="st17" points="86.5,199.7 59.1,175.8 67.2,166.5 68.2,168.4 63.7,175.5 87.5,198.4 				"/>
			</g>
			<g>
				<polygon class="st17" points="71.8,162.7 69.1,163.1 183.7,34.7 205,57.7 203.2,60.1 183.8,41.1 				"/>
			</g>
		</g>
		<g>
			<path class="st17" d="M107.8,238.5c-2.2-7.1-43.5-73.4-43.9-74l-0.4-0.7l0.7-0.3c56.4-24.6,164.7-88.5,165.8-89.2l0.7-0.4
				l0.3,0.8c4.7,12.1,40.2,72.5,40.5,73l0.4,0.7l-0.7,0.3C241.2,162.1,109.1,237.7,107.8,238.5L107.8,238.5z M67.7,164.8
				c4.3,6.9,38.7,58.6,42.5,68.4c10.5-6.1,127-71.9,157.1-85.7c-4-6.6-32.4-54.5-37.8-67.5C220.2,85.6,122,140.9,67.7,164.8z"/>
		</g>
		
			<rect x="150.7" y="141.1" transform="matrix(0.8417 -0.54 0.54 0.8417 -59.0188 116.7648)" class="st18" width="37.9" height="35.9"/>
		<text transform="matrix(0.8996 -0.4367 0.4367 0.8996 166.2851 171.8243)" class="st19 st20">$</text>
		
			<ellipse transform="matrix(0.876 -0.4824 0.4824 0.876 -54.0632 100.9622)" class="st21" cx="169.3" cy="155.6" rx="18" ry="22.3"/>
		<g>
			<path class="st17" d="M124.5,214.4l-0.3-0.2c-0.1-0.1-8.8-5.1-18.2-1.1l-0.6,0.2l-20.1-33.5l0.8-0.2c0.1,0,5.9-1.9,8.2-6.5
				c1.3-2.7,1.2-5.7-0.4-9.2l-0.2-0.5l118.8-64.3l0.4,0.5c0.3,0.4,7.2,9.6,18.5,3.1l0.6-0.3l22.4,31.1l-0.6,0.3
				c-0.5,0.3-11.8,6.8-7.4,17l0.2,0.5L124.5,214.4z M113.3,210.3c5.6-0.1,10,0.9,11.3,1.6l120.6-61c-3.7-9.5,5-16.5,7.4-18
				L231.3,104c-10.5,5.7-18-0.1-19.7-2.1L95.9,163.6c1.5,3.6,0.9,7.2-0.5,10c-2,4.1-6.4,6.2-8.2,6.9l18.8,31.7
				C108.6,211.2,111,210.4,113.3,210.3z"/>
		</g>
	</g>
</g>
<g id="Ebene_9">
</g>
<g id="Ebene_12" class="st16">
</g>
<g id="Ebene_13">
</g>
<g id="Ebene_10" class="st16">
</g>
<g id="Ebene_11">
</g>
</svg>
