<?xml version="1.0" encoding="utf-8"?>
<!-- Generator: Adobe Illustrator 22.0.1, SVG Export Plug-In . SVG Version: 6.00 Build 0)  -->
<svg version="1.1" xmlns="http://www.w3.org/2000/svg" xmlns:xlink="http://www.w3.org/1999/xlink" x="0px" y="0px"
	 viewBox="0 0 279 274.5" style="enable-background:new 0 0 279 274.5;" xml:space="preserve">
<style type="text/css">
	.st0{fill:#5D5755;}
	.st1{fill:#C0BE70;}
	.st2{fill:none;stroke:#DDDEDF;stroke-width:2;stroke-miterlimit:10;}
	.st3{fill:none;stroke:#C0BE70;stroke-width:2;stroke-miterlimit:10;}
	.st4{fill:#7B3B3C;}
	.st5{fill:#4F515E;}
	.st6{fill:#DDDEDF;}
	.st7{fill:#0C0C0B;}
	.st8{fill:#AEA365;}
	.st9{fill:#483642;}
	.st10{fill:#020202;}
	.st11{fill:#4B3D48;}
	.st12{fill:#493945;}
	.st13{fill:none;stroke:#493744;stroke-width:2;stroke-miterlimit:10;}
	.st14{fill:none;stroke:#020202;stroke-miterlimit:10;}
	.st15{display:none;}
	.st16{fill:#1D1D1B;}
	.st17{fill:none;stroke:#1D1D1B;stroke-miterlimit:10;}
	.st18{fill:none;}
</style>
<g id="Ebene_1">
</g>
<g id="Ebene_2">
</g>
<g id="Ebene_3">
</g>
<g id="Ebene_4">
</g>
<g id="Ebene_5">
</g>
<g id="Ebene_6" class="st15">
</g>
<g id="Ebene_8">
</g>
<g id="Ebene_7">
</g>
<g id="Ebene_9">
</g>
<g id="Ebene_12" class="st15">
</g>
<g id="Ebene_13">
	<g>
		<path class="st16" d="M146.6,151.7c-14.4,0-26.1-11.7-26.1-26.1c0-14.4,11.7-26.2,26.1-26.2s26.1,11.7,26.1,26.2
			C172.7,140,161,151.7,146.6,151.7z M146.7,104c-12.8,0-21.3,8.9-21.3,21.7s8.3,20.8,21.2,20.8s20.6-8,20.6-20.8
			S159.6,104,146.7,104z"/>
	</g>
	<g>
		<path class="st16" d="M146.7,189c-33.1,0-60.8-29.7-60.8-62.8s26.8-63.1,59.8-63.1s63.9,29.1,63.9,62.2S179.8,189,146.7,189z
			 M145.8,68.7c-30.4,0-56.7,26.5-56.7,56.9s26.7,58.8,57.1,58.8s57.6-28.2,57.6-58.6S176.2,68.7,145.8,68.7z"/>
	</g>
	<g>
		<path class="st16" d="M147.2,216.3c-47.9,0-86.7-41.7-86.7-89.6S100.1,38,148,38s88,39.9,88,87.8S195.1,216.3,147.2,216.3z
			 M147.4,40.9C102.2,40.9,64,81.8,64,127s38,86.3,83.2,86.3s83.9-41.8,83.9-87S192.7,40.9,147.4,40.9z"/>
	</g>
	<g>
		<polygon class="st16" points="149.3,225.2 144.8,225.2 144.8,31.5 150,31.7 		"/>
	</g>
	<g>
		<polygon class="st16" points="243.8,129.4 49.2,129.4 48.7,124.4 244,123 		"/>
	</g>
</g>
<g id="Ebene_10" class="st15">
</g>
<g id="Ebene_11">
</g>
</svg>
