<?xml version="1.0" encoding="utf-8"?>
<!-- Generator: Adobe Illustrator 22.0.1, SVG Export Plug-In . SVG Version: 6.00 Build 0)  -->
<svg version="1.1" xmlns="http://www.w3.org/2000/svg" xmlns:xlink="http://www.w3.org/1999/xlink" x="0px" y="0px"
	 viewBox="0 0 294 297" style="enable-background:new 0 0 294 297;" xml:space="preserve">
<style type="text/css">
	.st0{fill:#5D5755;}
	.st1{fill:#C0BE70;}
	.st2{fill:none;stroke:#DDDEDF;stroke-width:2;stroke-miterlimit:10;}
	.st3{fill:none;stroke:#C0BE70;stroke-width:2;stroke-miterlimit:10;}
	.st4{fill:#7B3B3C;}
	.st5{fill:#4F515E;}
	.st6{fill:#DDDEDF;}
	.st7{fill:#0C0C0B;}
	.st8{fill:#AEA365;}
	.st9{fill:#483642;}
	.st10{fill:#020202;}
	.st11{fill:#4B3D48;}
	.st12{fill:#493945;}
	.st13{fill:none;stroke:#493744;stroke-width:2;stroke-miterlimit:10;}
	.st14{fill:none;stroke:#020202;stroke-miterlimit:10;}
	.st15{display:none;}
	.st16{fill:#1D1D1B;}
	.st17{fill:none;stroke:#1D1D1B;stroke-miterlimit:10;}
	.st18{fill:none;}
</style>
<g id="Ebene_1">
</g>
<g id="Ebene_2">
</g>
<g id="Ebene_3">
</g>
<g id="Ebene_4">
</g>
<g id="Ebene_5">
</g>
<g id="Ebene_6" class="st15">
</g>
<g id="Ebene_8">
</g>
<g id="Ebene_7">
</g>
<g id="Ebene_9">
	<path class="st16" d="M177.3,33.6c-11.5-3-23.6,5.4-27,18.8c-3.5,13.3,3,26.6,14.5,29.6c11.5,3,23.6-5.4,27-18.8
		C195.2,49.8,188.8,36.6,177.3,33.6z M164.8,79.6c-9.6-2.5-13.7-13.1-10.5-25.2c3.1-12.1,12-19.6,21.6-17.1
		c9.6,2.5,15.2,12.8,12.1,24.9C184.8,74.3,174.4,82.1,164.8,79.6z"/>
	<g>
		<g>
			<path class="st16" d="M145.8,263.7c-4.8,0-9.7-0.8-14.8-2.5c-8.3-2.8-13.5-11.3-12.5-20.2c2.4-21.2,10-66.8,12.3-80.2
				c0-0.2,0-0.4-0.2-0.6c-0.1-0.1-0.4-0.2-0.7,0c-11,6.2-23.8,7.4-38,3.7l0,0c-3.2-0.8-5.7-3.1-6.8-6.2c-1.1-3.1-0.7-6.3,1.2-9
				l14.1-22.3c1.6-2.3,4.3-3.5,7.1-3.2c16.5,1.7,26.4-9.1,30.8-15.7c1.8-2.6,4.8-4.2,8.1-4.2H170c2.8,0,5.5,1.2,7.4,3.4
				c1.9,2.1,2.7,5.4,2.3,8.2c-1.8,14-5.9,35.5-9.5,54.4c-2.7,14.5-5.3,28.3-6.3,35.4l-0.4,2.9c-0.3,2.3-0.7,4.8,0.7,6.6
				c0.3,0.4,0.7,0.6,1.2,0.6c12.8,1.4,24.1-10,28.4-14.2c1.4-1.4,3.3-2.2,5.4-2.2c0,0,1.2,0,1.2,0c2.1,0,2.9,0.8,4.3,2.2l8.6,11.2
				c1.1,1.1,1.7,2.6,1.7,4.2c0,1.6-0.7,3-1.8,4.1c-2.7,2.5-5.6,5.4-8.6,8.5C189.5,243.7,169.8,263.7,145.8,263.7z M130.4,153.1
				c0.8,0,1.5,0.2,2.2,0.7c1.2,0.8,5,5.5,4.8,6.9c-2.3,13.4-10.6,61.4-13,82.6c-0.8,7.4-0.5,12,6.4,14.3
				c29.1,10,52.9-15.1,70.3-32.8c3.1-3.1,6-6.1,8.7-8.6c0.5-0.5,0.8-1.2,0.8-1.9c0-0.7-0.3-1.4-0.8-1.9l-7.9-8.3
				c-0.9-0.9-2-1.3-3.2-1.3c0,0-2.1,0-3.2,1.3c-4.2,4.9-16.4,17.5-30.7,16c-1.4-0.2-2.5-0.8-3.4-1.8c-2.2-2.8-1.5-8.1-1.1-11.3
				l0.1-0.6c1-7.2,3.4-20.4,6.3-35.6c3.6-18.9,7.6-40.3,9.4-54.2c0.2-1.9-0.3-3.8-1.6-5.3c-1.3-1.4-3.1-2.3-5-2.3l-24,1.5
				c-2.2,0-4.3,1.1-5.4,2.8c-3.9,5.8-14.8,17.6-33.6,15.6c-1.6-0.2-3.2,0.6-4.2,1.9l-13.3,16.6c-1.3,1.8-1.6,4-0.8,6.1
				c0.8,2.1,2.5,3.7,4.7,4.2l3.1,1.3c13.4,3.5,22.2,0.2,32.4-5.5C129.1,153.3,129.8,153.1,130.4,153.1z"/>
		</g>
	</g>
</g>
<g id="Ebene_12" class="st15">
</g>
<g id="Ebene_13">
</g>
<g id="Ebene_10" class="st15">
</g>
<g id="Ebene_11">
</g>
</svg>
