<?xml version="1.0" encoding="utf-8"?>
<!-- Generator: Adobe Illustrator 22.0.1, SVG Export Plug-In . SVG Version: 6.00 Build 0)  -->
<svg version="1.1" xmlns="http://www.w3.org/2000/svg" xmlns:xlink="http://www.w3.org/1999/xlink" x="0px" y="0px"
	 viewBox="0 0 292.5 301.5" style="enable-background:new 0 0 292.5 301.5;" xml:space="preserve">
<style type="text/css">
	.st0{fill:#5D5755;}
	.st1{fill:#C0BE70;}
	.st2{fill:none;stroke:#DDDEDF;stroke-width:2;stroke-miterlimit:10;}
	.st3{fill:none;stroke:#C0BE70;stroke-width:2;stroke-miterlimit:10;}
	.st4{fill:#7B3B3C;}
	.st5{fill:#4F515E;}
	.st6{fill:#DDDEDF;}
	.st7{fill:#0C0C0B;}
	.st8{fill:#AEA365;}
	.st9{fill:#483642;}
	.st10{fill:#020202;}
	.st11{fill:#4B3D48;}
	.st12{fill:#493945;}
	.st13{fill:none;stroke:#493744;stroke-width:2;stroke-miterlimit:10;}
	.st14{fill:none;stroke:#020202;stroke-miterlimit:10;}
	.st15{display:none;}
	.st16{fill:#1D1D1B;}
	.st17{fill:none;stroke:#1D1D1B;stroke-miterlimit:10;}
	.st18{fill:none;}
</style>
<g id="Ebene_1">
</g>
<g id="Ebene_2">
</g>
<g id="Ebene_3">
</g>
<g id="Ebene_4">
</g>
<g id="Ebene_5">
	<g>
		<g>
			<path class="st10" d="M131.3,254.9c-9.8,0-21.8-2.7-34.5-12.1l-0.4-0.3l-1.6-52.4l1.2,0.5c0.5,0.2,47.9,19.1,69.7,0.1l2.9-2.5
				l-1.5,3.5c-0.1,0.3-12.9,35.8-3.9,54l0.3,0.7l-0.6,0.5c-0.3,0.2-9.2,4.4-20.9,6.8C138.9,254.4,135.3,254.9,131.3,254.9z
				 M100.7,240.3c0.1,0.6,0.4,1.2,0.9,1.6c16.8,11.9,29.8,12.3,40,10.2c8.9-1.8,15.3-5.6,17.7-7.2c0.3-0.2,0.4-0.5,0.2-0.8
				c-3.4-7.9-4-18.6-1.1-32.7c0.9-4.2,2.5-11.1,3.8-14.5c-9.5,6.6-21.8,5.8-39.7,2.9c-12-2-22.3-5.6-25.8-6.9L100.7,240.3z"/>
		</g>
		<g>
			<path class="st10" d="M137.7,201.2c-4.8,0-9.9-0.5-15.4-1.4c-14.7-2.5-26.7-7.5-26.9-7.6l-0.3-0.1l-0.1-0.3
				c-14.2-30-7.1-87.6-6.5-91.9c-5.3-9.8,2.1-17.3,3.7-19.5c-1.1-1.1-2.9-2.9-3.1-4.6c-0.4-3.8,0.2-7.7,7.6-12.2
				c-4-15.1,12.7-26.1,20.9-30.3c-0.2-0.8,0-1.7,0.4-2.5c1.6-3.1,7.1-4.7,7.4-4.8c32.1-9.9,62.2,5.6,62.5,5.8
				c8,3.9,11.8,9.8,12.9,16.3c2,11.9-7.1,24-7.7,24.8c-2,3-3.7,6-5,9c1.9-2,3.5-2.4,3.7-2.5l0.1,0c9.2-2.9,17.5,2.2,22.8,8.3
				c5.9,6.7,7.7,16.1,8.3,22.9c0.6,7.3-0.2,12.9-0.3,13.1c-3.5,18.9-18,35.3-29.5,45.7c-11.1,9.9-22.3,16.1-24.7,17.5
				c1.6,2.8-1.1,5.1-1.6,5.4C159.9,198.2,150,201.2,137.7,201.2z M101.2,186c4.1,1.7,41,25.1,62.4,6.5l0,0c1.9-1.5,2.8-3.2,2.5-5.6
				c-0.2-1.3-2.1-2.4-2.4-2.6l0-0.2l6.7-4.3c1.1-1.2,38.8-21.7,48.9-55.5c0.1-0.2,5.6-23.2-6-35.4c-5.1-5.4-13.7-6.1-20.7-3.5
				c-5.5,2.2-19.5,27.8-0.6,48.2l-0.2,0.8c-15.1-10.4-16.8-41.5-2-63.1l2.3-3.3c0.8-1.4,8.1-7.2,6.2-18.5c-1-6-4.8-11-11.2-15
				c-0.3-0.1-28.7-15.5-60.1-5.8c0,0-5.1,1.5-5.4,5.8c-0.1,0.6-0.1,1.3,0.1,1.9l0,0l-1.3,0.5C120.2,37,98,44.2,99.2,65.1l0,0.3
				l-0.2,0.2C99,65.7,91,70,91.5,75c0.1,1.2,0.8,2.2,1.7,2.9l2.5,1.5c0.4,0.3,0.4,0.8,0.2,1.2l-1.9,1.4c-0.3,0.3-7.1,5.6-1,16.9l0,0
				l0,0.3C92.7,99.8,87,155.4,101.2,186z"/>
		</g>
		<path class="st10" d="M145.7,83.1c0,0,19,11.8,31.2,9.7c0,0,0.8-2.8,0.1-2.8c0,0-13.8,1.2-31.3-7.9
			C145.7,82.1,144.4,82.4,145.7,83.1z"/>
		<path class="st10" d="M172.7,56.7c0,0,7.8,6.5,12,12.6c0,0,0.8,0.5,0.6-0.3c0,0-8.1-12.3-11.9-14
			C173.5,54.9,172.6,55.6,172.7,56.7z"/>
		<path class="st10" d="M177.1,119.6c0,0-14.3,9.9-9.9,19.1C167.2,138.7,165.6,131.4,177.1,119.6z"/>
		<path class="st10" d="M97.4,201.2c0,0,22.2,14.9,41.3,8.6c0,0,1.1,0.8,0,1.6c0,0-19.4,6.6-41.4-6.6
			C97.4,204.8,94.8,202.4,97.4,201.2z"/>
		<path class="st10" d="M98.3,217.2c0,0,19.6,8.2,27.5,4.4c0,0,1.5,0-0.1,1.1c0,0-8.5,4.6-27.2-2.6L98.3,217.2z"/>
	</g>
</g>
<g id="Ebene_6" class="st15">
</g>
<g id="Ebene_8">
</g>
<g id="Ebene_7">
</g>
<g id="Ebene_9">
</g>
<g id="Ebene_12" class="st15">
</g>
<g id="Ebene_13">
</g>
<g id="Ebene_10" class="st15">
</g>
<g id="Ebene_11">
</g>
</svg>
