<?xml version="1.0" encoding="utf-8"?>
<!-- Generator: Adobe Illustrator 22.0.1, SVG Export Plug-In . SVG Version: 6.00 Build 0)  -->
<svg version="1.1" xmlns="http://www.w3.org/2000/svg" xmlns:xlink="http://www.w3.org/1999/xlink" x="0px" y="0px"
	 viewBox="0 0 321 279" style="enable-background:new 0 0 321 279;" xml:space="preserve">
<style type="text/css">
	.st0{fill:#5D5755;}
	.st1{fill:#C0BE70;}
	.st2{fill:none;stroke:#DDDEDF;stroke-width:2;stroke-miterlimit:10;}
	.st3{fill:none;stroke:#C0BE70;stroke-width:2;stroke-miterlimit:10;}
	.st4{fill:#7B3B3C;}
	.st5{fill:#4F515E;}
	.st6{fill:#DDDEDF;}
	.st7{fill:#0C0C0B;}
	.st8{fill:#AEA365;}
	.st9{fill:#483642;}
	.st10{fill:#020202;}
	.st11{fill:#4B3D48;}
	.st12{fill:#493945;}
	.st13{fill:none;stroke:#493744;stroke-width:2;stroke-miterlimit:10;}
	.st14{fill:none;stroke:#020202;stroke-miterlimit:10;}
	.st15{display:none;}
	.st16{fill:#1D1D1B;}
	.st17{fill:none;stroke:#1D1D1B;stroke-miterlimit:10;}
	.st18{fill:none;}
</style>
<g id="Ebene_1">
</g>
<g id="Ebene_2">
</g>
<g id="Ebene_3">
</g>
<g id="Ebene_4">
</g>
<g id="Ebene_5">
</g>
<g id="Ebene_6" class="st15">
</g>
<g id="Ebene_8">
</g>
<g id="Ebene_7">
</g>
<g id="Ebene_9">
	<g>
		<g>
			<path class="st16" d="M166.8,243.4c-73-0.4-115.5-55.8-115.5-116.8c0-51.9,38.3-92.5,88.9-104l1.5,1.4l0.4,1.6
				c-27.9,34.1-30.3,80.9-8.3,119.1c23.6,40.8,68.7,63,114.6,52.5l1.2,0.9l0.7,2.2C229.2,226.1,200,243.4,166.8,243.4z M132.9,31.8
				c0.9-1.4-0.4-3.1-2-2.6C87.4,43.5,56.6,82.9,56.6,129.5c0,58.8,49.3,107.6,108.2,107.6c28.6,0,55.6-11.3,75.6-31.4
				c1.1-1.1,0.1-3-1.5-2.8c-44.1,5.8-87.3-15.2-109.9-54.4l0,0C107.9,112,109.8,66.4,132.9,31.8z"/>
		</g>
		<g>
			<path class="st16" d="M190.5,79.9l-5.6-11.3c-0.1-0.1-0.2-0.2-0.3-0.2l-12.2-1.8c-0.3,0-0.4-0.4-0.2-0.6l9-7.9
				c0.1-0.1,0.1-0.2,0.1-0.3l-1.9-11.3c-0.1-0.3,0.3-0.5,0.5-0.4l10.2,5.4c0.1,0.1,0.2,0.1,0.3,0l11.1-5.8c0.3-0.1,0.6,0.1,0.5,0.4
				l-2.8,11.8c0,0.1,0,0.3,0.1,0.4l8.2,8c0.2,0.2,0.1,0.6-0.2,0.6L196,68.4c-0.1,0-0.2,0.1-0.3,0.2l-4.6,11.2
				C191,80.1,190.6,80.2,190.5,79.9z M176.9,64.7l9.1,2c0.1,0,0.2,0.1,0.3,0.2l4.1,8.3c0.1,0.3,0.5,0.3,0.7,0l3.9-7.9
				c0.1-0.1,0.1-0.2,0.3-0.2l8.5-1.7c0.3-0.1,0.4-0.4,0.2-0.6l-6.2-6.1c-0.1-0.1-0.1-0.2-0.1-0.4l2.3-9.6c0.1-0.3-0.3-0.6-0.6-0.4
				l-8.4,5.1c-0.1,0.1-0.3,0.1-0.4,0l-8.2-4.6c-0.3-0.2-0.6,0.1-0.6,0.4l1.3,9.2c0,0.1,0,0.2-0.1,0.3l-6.2,5.4
				C176.5,64.3,176.6,64.7,176.9,64.7z"/>
		</g>
		<g>
			<path class="st16" d="M214,161.1l-6.2-11.8c-0.1-0.2-0.4-0.4-0.6-0.4l-13.1-0.8c-0.7,0-1-0.9-0.4-1.3l10.4-9
				c0.2-0.2,0.3-0.5,0.2-0.7l-3.4-14.4c-0.2-0.7,0.6-1.2,1.2-0.8l12,8.1c0.3,0.2,0.6,0.2,0.8,0l12-8.1c0.6-0.4,1.3,0.1,1.2,0.8
				l-3.5,14.2c-0.1,0.3,0,0.6,0.2,0.8l9.6,8.3c0.5,0.4,0.3,1.2-0.4,1.3l-12.8,1.9c-0.2,0-0.5,0.2-0.6,0.4l-5.6,11.6
				C214.7,161.4,214.2,161.4,214,161.1z M199.3,146.5l9.8,0.5c0.3,0,0.5,0.2,0.6,0.4l4.3,8.1c0.3,0.6,1.2,0.5,1.4-0.1l3-8.1
				c0.1-0.3,0.3-0.5,0.6-0.5l10.1-1.3c0.7-0.1,0.9-0.9,0.4-1.3l-7-5.4c-0.2-0.2-0.3-0.5-0.3-0.8l2.5-10.1c0.2-0.7-0.6-1.2-1.2-0.8
				l-8.3,5.6c-0.3,0.2-0.6,0.2-0.8,0l-9.1-5.9c-0.6-0.4-1.3,0.2-1.1,0.8l2.7,10.1c0.1,0.3,0,0.6-0.2,0.8l-7.8,6.6
				C198.3,145.6,198.6,146.5,199.3,146.5z"/>
		</g>
	</g>
</g>
<g id="Ebene_12" class="st15">
</g>
<g id="Ebene_13">
</g>
<g id="Ebene_10" class="st15">
</g>
<g id="Ebene_11">
</g>
</svg>
